STARTFONT 2.3
FONT -FontForge-Pacifico-Book-R-Normal--14-140-72-72-P-82-ISO10646-1
SIZE 14 72 72  4
FONTBOUNDINGBOX 33 29 -9 -7
COMMENT "Generated by fontforge, http://fontforge.sourceforge.net"
COMMENT "Copyright 2018 The Pacifico Project Authors (https://github.com/googlefonts/Pacifico)"
STARTPROPERTIES 41
FOUNDRY "FontForge"
FAMILY_NAME "Pacifico"
WEIGHT_NAME "Book"
SLANT "R"
SETWIDTH_NAME "Normal"
ADD_STYLE_NAME ""
PIXEL_SIZE 14
POINT_SIZE 140
RESOLUTION_X 72
RESOLUTION_Y 72
SPACING "P"
AVERAGE_WIDTH 82
CHARSET_REGISTRY "ISO10646"
CHARSET_ENCODING "1"
FONTNAME_REGISTRY ""
CHARSET_COLLECTIONS "ISO8859-2 ISO8859-5 ISO8859-9 ISO8859-4 ISO10646-1"
BITS_PER_PIXEL 4
FONT_NAME "Pacifico-Regular"
FACE_NAME "Pacifico Regular"
COPYRIGHT "Copyright 2018 The Pacifico Project Authors (https://github.com/googlefonts/Pacifico)"
FONT_VERSION "3.001"
FONT_ASCENT 11
FONT_DESCENT 3
UNDERLINE_POSITION -1
UNDERLINE_THICKNESS 1
X_HEIGHT 6
CAP_HEIGHT 12
DEFAULT_CHAR 1
RAW_ASCENT 800
RAW_DESCENT 200
NORM_SPACE 4
RELATIVE_WEIGHT 40
RELATIVE_SETWIDTH 50
SUPERSCRIPT_X 0
SUPERSCRIPT_Y 4
SUPERSCRIPT_SIZE 8
SUBSCRIPT_X 0
SUBSCRIPT_Y 1
SUBSCRIPT_SIZE 8
AVG_LOWERCASE_WIDTH 66
AVG_UPPERCASE_WIDTH 113
ENDPROPERTIES
CHARS 1514
STARTCHAR NULL.dup1
ENCODING 0
SWIDTH 0 0
DWIDTH 0 0
BBX 1 1 0 0
BITMAP
00
ENDCHAR
STARTCHAR nonmarkingreturn
ENCODING 13
SWIDTH 265 0
DWIDTH 4 0
BBX 1 1 0 0
BITMAP
00
ENDCHAR
STARTCHAR space
ENCODING 32
SWIDTH 265 0
DWIDTH 4 0
BBX 1 1 0 0
BITMAP
00
ENDCHAR
STARTCHAR exclam
ENCODING 33
SWIDTH 340 0
DWIDTH 5 0
BBX 6 13 0 0
BITMAP
000AE1
001FE0
005FB0
008F70
00BF30
00DE00
01FA00
03F600
05F100
013000
2B9000
7FF000
4EA000
ENDCHAR
STARTCHAR quotedbl
ENCODING 34
SWIDTH 510 0
DWIDTH 7 0
BBX 6 5 1 8
BITMAP
0BC0AD
2FE1FF
4FB2FC
5F84F9
5E34E4
ENDCHAR
STARTCHAR numbersign
ENCODING 35
SWIDTH 700 0
DWIDTH 10 0
BBX 10 9 0 0
BITMAP
0006D02D40
000DE07F40
0CFFFFFFF6
07CFBAFD93
00AF14F700
39EE9CFB70
6FFFFFFFC0
08F42FA000
07B02D3000
ENDCHAR
STARTCHAR dollar
ENCODING 36
SWIDTH 524 0
DWIDTH 7 0
BBX 7 13 0 -2
BITMAP
00006000
0001E000
01AEFC20
0AFBDFA0
0DB78A90
0BFC6000
02DFE600
030DEF50
5F2E3F80
4FBFAF40
08EFD600
004B0000
00580000
ENDCHAR
STARTCHAR percent
ENCODING 37
SWIDTH 896 0
DWIDTH 13 0
BBX 13 11 0 0
BITMAP
04EF9000AA0000
1EACF43AF90000
4F48FFFFE10000
3F65F9BF700000
0BFF91ED100000
004308F56EF700
00002FC2F99F20
0000AF46F23F40
0003FA07F14F40
000BF203F9BD00
000B80008EC300
ENDCHAR
STARTCHAR ampersand
ENCODING 38
SWIDTH 851 0
DWIDTH 12 0
BBX 12 14 0 -1
BITMAP
0002BED60000
000DFADF2000
005F804F6000
007F505F5000
005F81DE1000
001EEDF40000
002DFE300000
03EFEF4002B6
0DF55FE20BF4
4FB008FCAF80
5FB000CFFA00
1DFCACFFF800
02AEFD85FF60
000000005E70
ENDCHAR
STARTCHAR quotesingle
ENCODING 39
SWIDTH 290 0
DWIDTH 4 0
BBX 3 5 1 8
BITMAP
0BC0
2FE0
4FB0
5F80
5E30
ENDCHAR
STARTCHAR parenleft
ENCODING 40
SWIDTH 613 0
DWIDTH 9 0
BBX 10 16 1 -2
BITMAP
00005CED80
0008FEADF4
005FC10050
00DF200000
06F9000000
0BF3000000
1FE0000000
4FA0000000
7F70000000
9F40000000
AF30000000
BF20000000
AF30000000
7F6008B000
2EEADF8000
04CFD50000
ENDCHAR
STARTCHAR parenright
ENCODING 41
SWIDTH 613 0
DWIDTH 9 0
BBX 10 16 -2 -2
BITMAP
00004CFD60
0005FEAEF4
0009B104FA
00000000FD
00000000FE
00000000FD
00000002FC
00000004FA
00000008F7
0000000BF4
0000001FE0
0000006F90
000001DF20
04100AF800
1FEADFB000
06DFD70000
ENDCHAR
STARTCHAR asterisk
ENCODING 42
SWIDTH 520 0
DWIDTH 7 0
BBX 7 6 1 8
BITMAP
0C6B7000
0AEEAE40
17DFD710
4E9DE800
008C6C00
00790000
ENDCHAR
STARTCHAR plus
ENCODING 43
SWIDTH 700 0
DWIDTH 10 0
BBX 8 9 1 0
BITMAP
0003D200
0007F200
0008F100
000AE000
9FFFFFFA
7BBFEBB6
000F9000
002F7000
002E3000
ENDCHAR
STARTCHAR comma
ENCODING 44
SWIDTH 257 0
DWIDTH 4 0
BBX 3 5 0 -2
BITMAP
2E80
6FB0
7F60
9E10
A700
ENDCHAR
STARTCHAR hyphen
ENCODING 45
SWIDTH 403 0
DWIDTH 6 0
BBX 6 3 0 3
BITMAP
002340
2EFFF1
077630
ENDCHAR
STARTCHAR period
ENCODING 46
SWIDTH 257 0
DWIDTH 4 0
BBX 3 3 0 0
BITMAP
3C80
9FE0
5E90
ENDCHAR
STARTCHAR slash
ENCODING 47
SWIDTH 509 0
DWIDTH 7 0
BBX 8 14 0 0
BITMAP
000000A9
000003F9
00000BF3
00003FA0
0000BF30
0003FA00
000BF300
003FA000
00BF3000
03FA0000
0BF30000
3FA00000
AF300000
A9000000
ENDCHAR
STARTCHAR zero
ENCODING 48
SWIDTH 543 0
DWIDTH 8 0
BBX 8 9 0 0
BITMAP
00178400
02EFFF60
0AF42ED0
1FB00BF1
3F800AF1
4F700CE0
2FA02FA0
0CFADF30
02BEC400
ENDCHAR
STARTCHAR one
ENCODING 49
SWIDTH 376 0
DWIDTH 5 0
BBX 5 9 0 0
BITMAP
04AE70
2FFF80
068F60
009F40
00BF20
00DF00
00EE00
01FC00
01D700
ENDCHAR
STARTCHAR two
ENCODING 50
SWIDTH 560 0
DWIDTH 8 0
BBX 8 9 0 0
BITMAP
007DEC20
07FCBFC0
0CE00DF0
09801ED0
00008F70
0006FB00
02AFA100
2EFD9991
4FFFFFE2
ENDCHAR
STARTCHAR three
ENCODING 51
SWIDTH 520 0
DWIDTH 7 0
BBX 7 9 0 0
BITMAP
02AEEB20
0DFACFA0
1F702FB0
0302AF50
004FF800
0116CF50
7E105F90
7FCAEF60
08DFD700
ENDCHAR
STARTCHAR four
ENCODING 52
SWIDTH 577 0
DWIDTH 8 0
BBX 8 9 0 0
BITMAP
002D8000
009F4000
02FC08C0
08F50EC0
0ED02FA0
4FDABFC5
2FFFFFF8
00008F40
00006E10
ENDCHAR
STARTCHAR five
ENCODING 53
SWIDTH 518 0
DWIDTH 7 0
BBX 7 9 0 0
BITMAP
04899970
0DFFFFD0
07F40000
0AF86100
0AFFFE20
02029F80
4F303F90
3FEADF40
06DFD600
ENDCHAR
STARTCHAR six
ENCODING 54
SWIDTH 541 0
DWIDTH 8 0
BBX 8 9 0 0
BITMAP
004CED50
03FEAEF1
0CE205D1
1FA69500
4FFFFF60
4FD24FB0
2FB02FB0
0CFADF60
02BED700
ENDCHAR
STARTCHAR seven
ENCODING 55
SWIDTH 497 0
DWIDTH 7 0
BBX 8 9 0 0
BITMAP
19999991
4FFFFFF2
0001CF50
000BF400
006F8000
00DF2000
02FC0000
04FA0000
02E60000
ENDCHAR
STARTCHAR eight
ENCODING 56
SWIDTH 512 0
DWIDTH 7 0
BBX 7 9 0 0
BITMAP
019EEB20
09FBAFA0
0DD00EB0
0AF79F50
03FFFA00
1DC5CF60
6F502F90
4FDADF60
07DFD700
ENDCHAR
STARTCHAR nine
ENCODING 57
SWIDTH 541 0
DWIDTH 8 0
BBX 7 9 0 0
BITMAP
019EE910
09FCBF80
0ED00EE0
0EE14FF0
09FFFFF0
00695DD0
4D204F80
4FDAED10
07EEB200
ENDCHAR
STARTCHAR colon
ENCODING 58
SWIDTH 257 0
DWIDTH 4 0
BBX 4 7 0 0
BITMAP
08C2
1FF7
0CE2
0000
3C80
9FE0
5E90
ENDCHAR
STARTCHAR semicolon
ENCODING 59
SWIDTH 257 0
DWIDTH 4 0
BBX 4 9 0 -2
BITMAP
08C2
1FF7
0CE2
0000
2E80
6FB0
7F60
9E10
A700
ENDCHAR
STARTCHAR less
ENCODING 60
SWIDTH 700 0
DWIDTH 10 0
BBX 8 7 1 1
BITMAP
000005BD
0028EFE8
3CFFC610
CFE40000
5DFFA400
004BFFD3
000028E5
ENDCHAR
STARTCHAR equal
ENCODING 61
SWIDTH 700 0
DWIDTH 10 0
BBX 8 5 1 2
BITMAP
7FFFFFFD
49999997
00000000
79999994
DFFFFFF7
ENDCHAR
STARTCHAR greater
ENCODING 62
SWIDTH 700 0
DWIDTH 10 0
BBX 8 7 1 1
BITMAP
5E820000
3DFFB400
004AFFD5
00004EFC
016BFFC3
8EFE8200
DB500000
ENDCHAR
STARTCHAR question
ENCODING 63
SWIDTH 476 0
DWIDTH 7 0
BBX 8 13 0 0
BITMAP
007DFC40
06FCAFE1
0AE00CF4
07B00EF2
00008FA0
0006FC10
003FC100
00AE1000
00C70000
00310000
08C30000
1FF70000
0CE30000
ENDCHAR
STARTCHAR at
ENCODING 64
SWIDTH 1015 0
DWIDTH 14 0
BBX 14 15 0 -4
BITMAP
000017BEFDA300
0003DFDBACFF60
004EE600003DF2
01DE30000003F8
08F6008EA400EA
0DE009FCED00DB
3FA03FB0EB00EA
5F708F42F903F7
6F60AF26F70BF2
6F608FAEFCBF70
3FA01CE76ED700
0DF20000000000
04FD3000005B40
006FFCAABEFE30
00028CEFDB6100
ENDCHAR
STARTCHAR A
ENCODING 65
SWIDTH 786 0
DWIDTH 11 0
BBX 13 13 0 0
BITMAP
000006BEFEC600
0002CFFDBDF900
002DF910251000
00BF8000BF3000
05FC0000EF1000
0AF50002FC0000
0FF10006FA0000
2FE0000AF70000
3FD0001EF50000
2FE0006FF40030
0EF502EEF508B0
07FFCEC8FECF40
007DEA11BED400
ENDCHAR
STARTCHAR B
ENCODING 66
SWIDTH 827 0
DWIDTH 12 0
BBX 13 14 0 -1
BITMAP
0027BDEFEB4000
1AFFEBAADFF700
AF93000006FF10
3309A00000FF20
002FC00003FE00
005F90016EF500
008F62EFFB4000
00BF31ADFB1000
00EF1000BF7000
01FE00008F8000
03FC0003EF4000
04FEAACFF80000
06FFFED9400000
04E50000000000
ENDCHAR
STARTCHAR C
ENCODING 67
SWIDTH 686 0
DWIDTH 10 0
BBX 12 13 0 0
BITMAP
00006CED7000
001BFDADF600
00AFA002FB00
03FD0001FC00
09F60002F800
0DF200001000
0FF000000000
1FF000000000
0FF200000000
0CF600000000
06FE30000393
009FFB9BDFE2
0005BEFDB720
ENDCHAR
STARTCHAR D
ENCODING 68
SWIDTH 836 0
DWIDTH 12 0
BBX 12 13 0 0
BITMAP
005ADFEC7100
1CFEBABEFD10
5E810001BFB0
001BA0001EF2
004FA0000BF5
007F70000AF6
00AF40000BF5
00EF10000DF3
01FE00003FE0
03FC0000BF80
05FA0019FD00
07FDABFFC100
04CEFDB50000
ENDCHAR
STARTCHAR E
ENCODING 69
SWIDTH 686 0
DWIDTH 10 0
BBX 12 13 0 0
BITMAP
0003ADFD8100
005FFCADF900
00EF5001EE00
02FE0000EE00
01FF2000B700
006FEA500000
018EFF800000
0CF930000000
5FB000000000
8F8000000000
6FD2000004A3
0CFFBAABEFE2
006BEFEDB720
ENDCHAR
STARTCHAR F
ENCODING 70
SWIDTH 712 0
DWIDTH 10 0
BBX 13 13 0 0
BITMAP
00059CEFFFEDB0
01CFABFD999980
08F307F8000000
0BE008F7000000
0AF209F5000000
02600AF4000000
0003EFFFFF6000
00029FF9982000
00001FE0000000
10003FB0000000
E600AF70000000
BFBCFE10000000
19EEB200000000
ENDCHAR
STARTCHAR G
ENCODING 71
SWIDTH 811 0
DWIDTH 11 0
BBX 13 20 0 -7
BITMAP
00005CEEA20000
001BFEABFC0000
009FA100CF1000
03FD0000BF3000
09F60000BD0000
0DF20000110000
0FF00000000000
1FF00029993000
0FF1005FFF8000
0CF600005F6020
06FE20006F49C0
009FFB9BFFDE40
0005BEFCEFB100
00000006FC0000
0000007EF90000
000005E6F50000
00000D67F10000
00004F1DB00000
00005FCF400000
00001CE7000000
ENDCHAR
STARTCHAR H
ENCODING 72
SWIDTH 873 0
DWIDTH 12 0
BBX 15 14 -1 0
BITMAP
0000000000028500
004CEA00001DFF20
06FBDF40009F4E40
1F607F7001EA0E30
18007F7005F63F10
00008F6009F3BA00
0000AF400CFDD100
0049EFA9AFFA1000
008FFFEDBFC00000
0003FB002FB00000
0006F8001FC00020
000AF5000EF104E0
000DF20008FDAF80
000BA00001AED600
ENDCHAR
STARTCHAR I
ENCODING 73
SWIDTH 495 0
DWIDTH 7 0
BBX 9 13 -1 0
BITMAP
006EFFFF90
0049CFC940
0000AF5000
0000CF3000
0000EF1000
0001FD0000
0003FB0000
0005F90000
0007F70000
0009F50000
000BF40000
069EFA8100
2FFFFFD100
ENDCHAR
STARTCHAR J
ENCODING 74
SWIDTH 743 0
DWIDTH 10 0
BBX 10 14 1 -1
BITMAP
028CEFFEB4
4FFCA9AFF8
DE20001FE0
FB00003FC0
CE00005FA0
2300007F70
00003AFF50
0008FDEF20
00AF81ED00
06F803F900
0CF108F300
0EE02EC000
0BFAEE3000
02CEC30000
ENDCHAR
STARTCHAR K
ENCODING 75
SWIDTH 937 0
DWIDTH 13 0
BBX 15 13 0 0
BITMAP
004BEFDA1004E500
05FEABFF300BF500
0DD106F8002FE100
1F9008F7008F8000
0EC00AF502FE1000
07900BF32DF40000
00007EFCFD400000
0000DFFFE4000000
00002FC5FE200000
22005F90AF900030
9D10AF503FF307D0
6FDBFD100AFECF60
07DEB20001AED500
ENDCHAR
STARTCHAR L
ENCODING 76
SWIDTH 673 0
DWIDTH 9 0
BBX 13 13 -1 0
BITMAP
000003AEEB2000
00004FFBBFD000
0001EF400BF300
0006FA0009F400
0009F60009E100
000BF400001000
000CF300000000
000DF100000000
000EF000000000
000ED000000200
1BEFE940002E30
8FFFFFFEAAEA00
3DE9149DFE8000
ENDCHAR
STARTCHAR M
ENCODING 77
SWIDTH 1232 0
DWIDTH 17 0
BBX 19 13 0 0
BITMAP
03BE9019EC204CEA0000
3ECEF1CDBF93FBEF4000
D90AF7C10EBC709F7000
800AFD300FEC009F6000
000CFC001FF600CF4000
000EF7003FF100FF1000
001FF3006FC003FD0000
003FE0008F8005FA0000
005FB000BF5008F70000
007F8000DF300AF50030
009F6000FF1009F604F0
00BF4002FE0006FEAF80
008E1001E900009ED700
ENDCHAR
STARTCHAR N
ENCODING 78
SWIDTH 884 0
DWIDTH 12 0
BBX 15 13 0 0
BITMAP
03BEA007DEA00000
3ECEF28EAEF60000
D90AF5E207F90000
800BFB6007F80000
000CFD000AF60000
000EF8000DF30000
001FF3001FF00000
003FE0004FC00000
005FB0006F900000
007F80008F700200
009F60008F803E20
00AF40004FEAEA00
008E100007EE8000
ENDCHAR
STARTCHAR O
ENCODING 79
SWIDTH 816 0
DWIDTH 11 0
BBX 12 13 0 0
BITMAP
00006CEE9100
001BFDADFD10
009F9000BF90
03FD00003FE0
09F600000FF1
0DF200000EF2
0FF000000FF1
1FF000002FE0
1FF100005FA0
0DF40000CF40
08FB1008FA00
01DFDADFC100
0019DEC70000
ENDCHAR
STARTCHAR P
ENCODING 80
SWIDTH 805 0
DWIDTH 11 0
BBX 12 14 0 -1
BITMAP
00003AEFD800
0008FEAAEFB0
007F81002EF4
02FA09D00AF7
08F20FF009F7
0DB02FD00DF4
2F704FA08FC0
3F56CFDDFD20
5F49FFFD8100
5F40BF300000
4F50EF100000
1FA3FD000000
09FEF9000000
009ED2000000
ENDCHAR
STARTCHAR Q
ENCODING 81
SWIDTH 816 0
DWIDTH 11 0
BBX 13 18 0 -5
BITMAP
00006CEE910000
001BFDADFD1000
00AF9000BF9000
03FD00003FE000
09F600000FF100
0DF200000EF200
0FF000000FF100
1FF000002FE000
0FF100007FA000
0DF50001DF4000
07FD302BFA0000
00AFFEFFB10000
0005CFF7000000
000009FB000000
000002FF300430
000000AFB14E20
0000002EFFF800
00000002884000
ENDCHAR
STARTCHAR R
ENCODING 82
SWIDTH 880 0
DWIDTH 12 0
BBX 15 13 0 0
BITMAP
00005BDFD8100000
000AFDAAFFB00000
009F60103FF30000
03F70CD00CF50000
09E02FC00EF20000
0EA05FA08FA00000
1F63CFCCFA100000
3F56FFFF90000000
3F50CF4DF5000000
2F60EF06FC000400
0DA1FD00DF503F10
07FCFA006FEAE900
008ED30008EE7000
ENDCHAR
STARTCHAR S
ENCODING 83
SWIDTH 693 0
DWIDTH 10 0
BBX 10 13 0 0
BITMAP
0007CEEB40
00BFDAAFF4
04FB0004FA
07F70002FA
06FC1001C5
01EFD61000
003CFFE600
00005CFF90
2B20006FF1
7F50000CF2
7F70002EE0
2EFBABEF60
029DFDB400
ENDCHAR
STARTCHAR T
ENCODING 84
SWIDTH 697 0
DWIDTH 10 0
BBX 13 13 0 0
BITMAP
0049CEEFFFFD50
0AFDABFD99AA50
5F7006F9000000
7F3009F6000000
4F600CF4000000
05100EF2000000
00001FE0000000
00004FC0000000
00006FA0000000
00008F80000000
0000AF60000000
0000BF40000000
00009D20000000
ENDCHAR
STARTCHAR U
ENCODING 85
SWIDTH 890 0
DWIDTH 12 0
BBX 15 13 0 0
BITMAP
03BEC10002E70000
3ECDF70005FA0000
DA07F80007F80000
9108F70009F60000
000BF4000CF40000
000EF2001FF20000
002FD0005FF00000
005FA000AFD00000
008F7001EFB00000
00AF5009BF900310
00BF607E6FB04E30
008FFEF52FFEFA00
001BED5007EE8000
ENDCHAR
STARTCHAR V
ENCODING 86
SWIDTH 763 0
DWIDTH 11 0
BBX 12 13 1 0
BITMAP
09D1004DE500
0EF101ECEE00
1FE005F1AF10
3FD006F0AF00
3FC005F3DD00
4FB001FCF900
4FB0006FFDA5
4FB0000DEDE8
2FC0006F7000
0FE001ED0000
0CF62CF30000
06FFFF600000
009EC5000000
ENDCHAR
STARTCHAR W
ENCODING 87
SWIDTH 1217 0
DWIDTH 17 0
BBX 18 13 1 0
BITMAP
09D10002E7001BEA00
0EF10007F900AECF40
1FF0000AF700F74F60
3FD0000DF501F55F50
4FC0001FF500F88F30
4FB0005FF400BEDE00
5FA0009FF4002EFEA8
4FB000DFF40008FDED
3FB004FBF5001EC000
1FE00BE5F6009F4000
0DF47F71FC17F90000
07FFFC00BFFFC00000
00AEA1003DE9100000
ENDCHAR
STARTCHAR X
ENCODING 88
SWIDTH 712 0
DWIDTH 10 0
BBX 13 13 -1 0
BITMAP
006DE90003DA00
07FAEF701DF500
0C404FD0BF8000
00000DFAFB0000
000009FFD10000
000005FE300000
00000BFE000000
00009FFF200000
0006FDAF600000
003FE35FA00020
01DF601FE108B0
0BF9000AFCBF40
1EB10001BEC400
ENDCHAR
STARTCHAR Y
ENCODING 89
SWIDTH 851 0
DWIDTH 12 0
BBX 14 18 0 -5
BITMAP
03BEC10002E800
3ECDF70005FA00
DA07F80007F800
8009F7000AF600
000BF4000DF400
000EF2002FF200
002FD0008FF000
004FB001EFD000
004FB00BAFB000
001EFADD4FA583
0005DEA38FFFF4
0000018EFF9410
00003DFABF3000
0001ED30CE0000
0007F402FA0000
0009F42CF30000
0005FFFF600000
00004883000000
ENDCHAR
STARTCHAR Z
ENCODING 90
SWIDTH 721 0
DWIDTH 10 0
BBX 12 13 0 0
BITMAP
004ADFEEC940
07FEA9ACFFC0
1FC10005FD10
2F80000DF500
0EB0007FB000
033001EF3000
000009F90000
00004FE10000
0001DF700000
0009FC000003
3CFFFA30006D
BFFFFFFDACF5
6ED716BEFC50
ENDCHAR
STARTCHAR bracketleft
ENCODING 91
SWIDTH 405 0
DWIDTH 6 0
BBX 6 15 1 -1
BITMAP
03EFFC
07FB97
09F400
0BF200
0DF000
0FD000
2FC000
4FA000
6F8000
8F6000
AF4000
CF2000
DF0000
FF9920
CFFF40
ENDCHAR
STARTCHAR backslash
ENCODING 92
SWIDTH 509 0
DWIDTH 7 0
BBX 6 14 1 0
BITMAP
4E1000
6F6000
3FA000
0EE000
0AF300
06F700
02FB00
00DF10
009F40
005F80
001FD0
000CF2
0008F5
0002E3
ENDCHAR
STARTCHAR bracketright
ENCODING 93
SWIDTH 405 0
DWIDTH 6 0
BBX 7 15 -1 -1
BITMAP
00DFFE30
0089DF50
0000BF30
0000DF10
0000EE00
0001FC00
0003FB00
0005F900
0007F700
0009F500
000BF300
000DF100
000EE000
499FC000
8FFE6000
ENDCHAR
STARTCHAR asciicircum
ENCODING 94
SWIDTH 700 0
DWIDTH 10 0
BBX 7 8 1 1
BITMAP
0004E200
000DF700
006FDC00
00DB6F10
06F32F50
0DB00DA0
7F3009E0
9A0004D0
ENDCHAR
STARTCHAR underscore
ENCODING 95
SWIDTH 354 0
DWIDTH 5 0
BBX 6 2 -1 -2
BITMAP
199993
3FFFF7
ENDCHAR
STARTCHAR grave
ENCODING 96
SWIDTH 600 0
DWIDTH 8 0
BBX 4 5 1 8
BITMAP
0610
4F80
0CE1
02E6
0059
ENDCHAR
STARTCHAR a
ENCODING 97
SWIDTH 470 0
DWIDTH 7 0
BBX 9 7 0 0
BITMAP
006DB50000
06FDDF1000
1ED1CE0000
6F60FB0110
7F44F91C50
5FCDEDDC10
0BE94EB100
ENDCHAR
STARTCHAR b
ENCODING 98
SWIDTH 473 0
DWIDTH 7 0
BBX 9 14 0 0
BITMAP
0009E70000
006FDE0000
00DA6E0000
04F57C0000
08F1C80000
0CE3E10000
0EBA600000
2FDFF70000
3FF7FF2000
3FA0FFBC60
3F807FFD40
1FA07F1000
0BFAFA0000
02CEA10000
ENDCHAR
STARTCHAR c
ENCODING 99
SWIDTH 368 0
DWIDTH 5 0
BBX 7 7 0 0
BITMAP
02BEA000
0CFBF200
5F84E100
8F402030
7F5007E0
3FEADF60
05DEC400
ENDCHAR
STARTCHAR d
ENCODING 100
SWIDTH 515 0
DWIDTH 7 0
BBX 9 14 0 0
BITMAP
000001CD10
000009EE60
00000E7B80
00004F4C60
00007F1E30
0000AE3E00
0000CD8A00
006DFCD400
07FCFED000
1FC1FF5000
6F60ED0030
7F41EC05E0
5FCDEFAF70
0AEA2CE600
ENDCHAR
STARTCHAR e
ENCODING 101
SWIDTH 393 0
DWIDTH 6 0
BBX 8 7 0 0
BITMAP
02BEB100
0DEBF500
5F63F400
7F9DB021
6FC504E4
2FEACFB0
04CED700
ENDCHAR
STARTCHAR f
ENCODING 102
SWIDTH 371 0
DWIDTH 5 0
BBX 7 19 0 -5
BITMAP
0002CD10
000CDF60
005F4D70
00BD0E60
01F93F20
06F68B00
09F4E400
0CFB9000
0EFC1000
1FE20000
2F9DFF90
3FAF9820
4F8F1000
4F7D3000
3F8C5000
2F8B5000
1F9B4000
0CEE1000
05E80000
ENDCHAR
STARTCHAR g
ENCODING 103
SWIDTH 479 0
DWIDTH 7 0
BBX 9 14 0 -7
BITMAP
006DB50000
06FDDF0000
1ED1CD0000
6F60FB0200
7F44F97F30
5FCDFEF800
0BEBFE4000
003EF20000
03EEE00000
1E8DA00000
8C2F600000
E68F100000
FCF9000000
7EB1000000
ENDCHAR
STARTCHAR h
ENCODING 104
SWIDTH 502 0
DWIDTH 7 0
BBX 9 14 0 0
BITMAP
0008E70000
005FDE0000
00CA6E0000
03F57C0000
07F2C70000
0BE4E10000
0DCD600000
0FFA8E5000
2FC8FF7000
3F9EAF5000
3FE87F2030
4FF2AF07C0
4FD0BFBF40
2E605ED400
ENDCHAR
STARTCHAR i
ENCODING 105
SWIDTH 246 0
DWIDTH 3 0
BBX 6 11 0 0
BITMAP
001000
07FB00
07F800
000000
08D000
0EC000
2FA000
4F7021
5F62E3
3FDEB0
0AE910
ENDCHAR
STARTCHAR j
ENCODING 106
SWIDTH 254 0
DWIDTH 4 0
BBX 9 17 -4 -7
BITMAP
00000AE500
00000DF500
0000011000
00000AD000
00000ED000
00000FB000
00002F9020
00004F77F0
00005FEE60
00007FD300
0003EF1000
004EFC0000
02E6E90000
0AA4F40000
1F4AE00000
2FCF700000
0AE9000000
ENDCHAR
STARTCHAR k
ENCODING 107
SWIDTH 525 0
DWIDTH 7 0
BBX 10 14 0 0
BITMAP
0008E70000
005FDE0000
00CA6E0000
03F57C0000
07F2C60000
0BE4D10000
0DCD400000
0FF88EA000
2FB8DDF200
3F9E1AF100
3FE88F8040
3FF6FA04F1
3FC2FEAE90
0D706DE800
ENDCHAR
STARTCHAR l
ENCODING 108
SWIDTH 326 0
DWIDTH 5 0
BBX 7 14 0 0
BITMAP
0008E600
006FDD00
00DA6F00
03F57D00
08F19B00
0BD0D700
0EB3F200
1F99A000
2FAF3000
3FFA0000
3FE20210
1FA02D50
0BFAEC10
03DEA100
ENDCHAR
STARTCHAR m
ENCODING 109
SWIDTH 744 0
DWIDTH 10 0
BBX 13 7 0 0
BITMAP
08D1AE23DB0000
0EBAFF5EFD0000
2FBEBFB9FB0000
3FE69FE2F80300
4FF1BF84F62E30
4FB0BF35FCEA00
1D607C01DE8000
ENDCHAR
STARTCHAR n
ENCODING 110
SWIDTH 496 0
DWIDTH 7 0
BBX 9 7 0 0
BITMAP
08D09E4000
0EB9FF6000
2FAEAF4000
3FE79F1030
4FF1BE09B0
4FB0CFBF40
1D606EC400
ENDCHAR
STARTCHAR o
ENCODING 111
SWIDTH 451 0
DWIDTH 6 0
BBX 9 7 0 0
BITMAP
02BEC20000
0DFCFC0000
5F75FFAC10
7F40CFEB10
7F50CC0000
3FEBF50000
06EE700000
ENDCHAR
STARTCHAR p
ENCODING 112
SWIDTH 481 0
DWIDTH 7 0
BBX 11 14 -2 -7
BITMAP
001C8AE70000
002FFCEF1000
001FC09F3000
001F90BF1120
006F93FB0B80
00DFCDFCDE20
05EFFCAEB200
0B9F70000000
1F5F60000000
5D5F40000000
8A6F10000000
A99C00000000
9EE700000000
3EB100000000
ENDCHAR
STARTCHAR q
ENCODING 113
SWIDTH 500 0
DWIDTH 7 0
BBX 9 14 0 -6
BITMAP
0000064000
005DEF9000
06FDDF5000
1ED1BF1000
6F60EC0000
7F45F9DFB0
5FCEF7F950
0BECF4F100
000AF1F100
000CF1F000
000CE3E000
000CF6A000
0009FE6000
0002DB1000
ENDCHAR
STARTCHAR r
ENCODING 114
SWIDTH 455 0
DWIDTH 6 0
BBX 9 7 0 0
BITMAP
08D09E4000
0EB8FF6000
2FAEBF4420
3FE87FDF40
4FF12DE600
4FC0000000
1D60000000
ENDCHAR
STARTCHAR s
ENCODING 115
SWIDTH 427 0
DWIDTH 6 0
BBX 9 7 -1 0
BITMAP
0004E40000
000CF00000
004FF40000
00CAEE1150
08D18F7BB0
1E5EFFFF40
011CFFD500
ENDCHAR
STARTCHAR t
ENCODING 116
SWIDTH 393 0
DWIDTH 6 0
BBX 8 13 0 0
BITMAP
0005E900
002FDF10
009D4F10
00E86D00
04F6D600
07FBB000
DFFFFF30
8DF99700
0BE00000
0BF00021
09F302D4
04FEAEC0
007EE910
ENDCHAR
STARTCHAR u
ENCODING 117
SWIDTH 462 0
DWIDTH 6 0
BBX 9 7 0 0
BITMAP
07E04E1000
0DC0AE0000
2F90EC0000
4F75F90210
5F8DF72E30
4FFBFDEB00
0BD2BE9000
ENDCHAR
STARTCHAR v
ENCODING 118
SWIDTH 449 0
DWIDTH 6 0
BBX 9 7 0 0
BITMAP
3E40BD0000
4F64FF1000
4F64FEAC10
3F78FEEB00
2FAF900000
1FFE100000
0AE4000000
ENDCHAR
STARTCHAR w
ENCODING 119
SWIDTH 700 0
DWIDTH 10 0
BBX 12 7 0 0
BITMAP
3E408C04E600
4F61EE0CF900
4F66FE0BFCB8
3F7CFF1EEED5
2FBFAFAF2000
1FFC6FF80000
0AE32EA00000
ENDCHAR
STARTCHAR x
ENCODING 120
SWIDTH 529 0
DWIDTH 7 0
BBX 10 7 0 0
BITMAP
06EC3BE600
0CDEFDE800
053BF55200
140BF20030
9E0EF303E3
BFBFFD9EA0
4ED48EE800
ENDCHAR
STARTCHAR y
ENCODING 121
SWIDTH 479 0
DWIDTH 7 0
BBX 9 14 0 -7
BITMAP
07E04E1000
0DC0AF0000
2F90ED0000
4F75FA0300
5F8DF87F30
4FFDFEF700
0BD7FD3000
003EF20000
03EED00000
1D7DA00000
9B2F600000
E68E100000
FCF8000000
8EA1000000
ENDCHAR
STARTCHAR z
ENCODING 122
SWIDTH 445 0
DWIDTH 6 0
BBX 8 7 0 0
BITMAP
1FFFFF80
089DFF50
01AFA200
0BF60005
1FD0008E
0EFBADF6
03BEEB40
ENDCHAR
STARTCHAR braceleft
ENCODING 123
SWIDTH 490 0
DWIDTH 7 0
BBX 9 15 0 -1
BITMAP
00004CED10
0002FFA800
0006F80000
0008F50000
000AF30000
000DF10000
18CF900000
2FFE200000
008F800000
005F800000
007F700000
008F500000
009F400000
006FD93000
0009EF7000
ENDCHAR
STARTCHAR bar
ENCODING 124
SWIDTH 326 0
DWIDTH 5 0
BBX 5 19 0 -5
BITMAP
003E50
006F50
008F30
00AF10
00CE00
00EC00
01FA00
03F800
05F600
07F400
0AF200
0CF000
0ED000
1FB000
3F9000
5F7000
6F5000
8F3000
260000
ENDCHAR
STARTCHAR braceright
ENCODING 125
SWIDTH 490 0
DWIDTH 7 0
BBX 8 15 -1 -1
BITMAP
01DFC300
008BFD00
0000CF10
0000CF10
0000EE00
0000FD00
0000BFB5
0000AFFA
0006FA10
0009F400
000BF300
000CF100
001FE000
39DF9000
6FE91000
ENDCHAR
STARTCHAR asciitilde
ENCODING 126
SWIDTH 700 0
DWIDTH 10 0
BBX 8 4 1 3
BITMAP
03610025
3FFD40CD
AF7DFBF6
C7018EA0
ENDCHAR
STARTCHAR uni00A0
ENCODING 160
SWIDTH 265 0
DWIDTH 4 0
BBX 1 1 0 0
BITMAP
00
ENDCHAR
STARTCHAR exclamdown
ENCODING 161
SWIDTH 340 0
DWIDTH 5 0
BBX 6 13 -1 -6
BITMAP
001DD1
004FF4
001BA0
000400
005F20
009E00
00EC00
03F900
07F700
0BF400
0EF100
3FC000
3C5000
ENDCHAR
STARTCHAR cent
ENCODING 162
SWIDTH 466 0
DWIDTH 7 0
BBX 7 11 0 -2
BITMAP
00023000
00087000
003CA200
07FFED00
1F9D8E00
5F4D3400
5F6C1C10
1EEDCD00
04DFB200
00780000
00850000
ENDCHAR
STARTCHAR sterling
ENCODING 163
SWIDTH 525 0
DWIDTH 7 0
BBX 8 9 0 0
BITMAP
00048820
009FFFE1
03FB17F4
07F40050
4DFA9400
8FFFF700
0CE00000
4EE99980
9FFFFFD0
ENDCHAR
STARTCHAR currency
ENCODING 164
SWIDTH 700 0
DWIDTH 10 0
BBX 8 7 1 1
BITMAP
3C2883C2
1DFFFFD1
09C22C90
0D7007D0
09C22C90
1CFFFFC1
3D3883D2
ENDCHAR
STARTCHAR yen
ENCODING 165
SWIDTH 497 0
DWIDTH 7 0
BBX 8 9 0 0
BITMAP
5E2003E6
4F900CE2
0CF16F70
05F9EC00
00DFF200
3FFFFF40
5FFFFF20
00AF3000
008D0000
ENDCHAR
STARTCHAR brokenbar
ENCODING 166
SWIDTH 326 0
DWIDTH 5 0
BBX 5 19 0 -5
BITMAP
003E50
006F50
008F30
00AF10
00CE00
00EC00
01FA00
02F600
000000
000000
037000
0BF000
0DD000
0FB000
2F9000
4F7000
6F5000
8F3000
260000
ENDCHAR
STARTCHAR section
ENCODING 167
SWIDTH 607 0
DWIDTH 9 0
BBX 7 13 1 0
BITMAP
008EEB20
07FCAFA0
0CD00BC0
0BF30870
09FF9200
3F8BFE20
6F406F70
3FE74F60
05EFFB00
8506ED00
F900BE00
CFBAFA00
3BEE9100
ENDCHAR
STARTCHAR dieresis
ENCODING 168
SWIDTH 600 0
DWIDTH 8 0
BBX 6 3 1 8
BITMAP
010010
1ED1EB
0DA1D9
ENDCHAR
STARTCHAR copyright
ENCODING 169
SWIDTH 647 0
DWIDTH 9 0
BBX 9 9 1 5
BITMAP
018DEB4000
0CDBFDF400
6C4FFC6D00
B6A91D0D30
C4D2010C40
B7B6160E30
6E8FFA9D00
0CFEEDF400
018EEB4000
ENDCHAR
STARTCHAR ordfeminine
ENCODING 170
SWIDTH 393 0
DWIDTH 6 0
BBX 5 6 1 6
BITMAP
05DD70
4F9BD0
BD0DB0
DB4F90
8FCF80
020110
ENDCHAR
STARTCHAR guillemotleft
ENCODING 171
SWIDTH 615 0
DWIDTH 9 0
BBX 8 6 0 1
BITMAP
006E219C
1AFC3DF9
8FA1CF60
6FB1AF70
08FC1CF7
007D11BA
ENDCHAR
STARTCHAR logicalnot
ENCODING 172
SWIDTH 700 0
DWIDTH 10 0
BBX 8 5 1 0
BITMAP
59999994
BFFFFFFC
000001FA
000002F8
000002E4
ENDCHAR
STARTCHAR uni00AD
ENCODING 173
SWIDTH 403 0
DWIDTH 6 0
BBX 6 3 0 3
BITMAP
002340
2EFFF1
077630
ENDCHAR
STARTCHAR registered
ENCODING 174
SWIDTH 647 0
DWIDTH 9 0
BBX 9 9 1 5
BITMAP
018DEB4000
0CDEFCF400
6C5FFC6D00
B61D4D0D30
C42FF60C40
B75DD20E30
6E75689D00
0CFBADF400
018EEB4000
ENDCHAR
STARTCHAR macron
ENCODING 175
SWIDTH 600 0
DWIDTH 8 0
BBX 5 2 2 8
BITMAP
699930
DFFF50
ENDCHAR
STARTCHAR degree
ENCODING 176
SWIDTH 385 0
DWIDTH 5 0
BBX 5 5 1 8
BITMAP
0AEB10
6FAF70
9B0B90
7FAF60
1BE900
ENDCHAR
STARTCHAR plusminus
ENCODING 177
SWIDTH 700 0
DWIDTH 10 0
BBX 8 9 1 0
BITMAP
00016100
0007F200
09BDFBA2
1EFFFFF3
000CC000
000EA000
00073000
4BBBBB70
8FFFFFA0
ENDCHAR
STARTCHAR uni00B2
ENCODING 178
SWIDTH 450 0
DWIDTH 6 0
BBX 7 7 0 5
BITMAP
01AEE600
09D4BF10
09709F10
0002EA00
003DC100
09FD5510
2FFFFF30
ENDCHAR
STARTCHAR uni00B3
ENCODING 179
SWIDTH 450 0
DWIDTH 6 0
BBX 6 7 1 5
BITMAP
1AEE90
8E49F4
340AE2
01EF50
414CE1
E94BF2
6DFD60
ENDCHAR
STARTCHAR acute
ENCODING 180
SWIDTH 600 0
DWIDTH 8 0
BBX 4 5 3 8
BITMAP
0043
01FB
07F5
0D90
2C10
ENDCHAR
STARTCHAR uni00B5
ENCODING 181
SWIDTH 462 0
DWIDTH 6 0
BBX 9 11 0 -4
BITMAP
08E04E1000
0DC0AE0000
1F90EC0000
4F75F90210
5F8DF72E30
7FFBFDEB00
8FD2BE9000
8F20000000
9F10000000
9F10000000
7D00000000
ENDCHAR
STARTCHAR paragraph
ENCODING 182
SWIDTH 739 0
DWIDTH 10 0
BBX 9 13 1 0
BITMAP
028DEFEB30
2EFFFDCFB0
7FFFF84FB0
8FFFF66F90
3FFFF38F70
04CFF1AF40
000EE0CF20
002FC0EE00
004FA1FC00
006F84FB00
008F66F900
00AF57F700
008E25E400
ENDCHAR
STARTCHAR periodcentered
ENCODING 183
SWIDTH 257 0
DWIDTH 4 0
BBX 4 3 0 2
BITMAP
1AB1
5FF3
2DC1
ENDCHAR
STARTCHAR cedilla
ENCODING 184
SWIDTH 600 0
DWIDTH 8 0
BBX 5 5 0 -4
BITMAP
019710
04FF90
001AC0
19AE90
1EFA10
ENDCHAR
STARTCHAR uni00B9
ENCODING 185
SWIDTH 450 0
DWIDTH 6 0
BBX 5 7 1 5
BITMAP
17BE30
7DCF30
009F10
00BE00
00DC00
00FA00
00D600
ENDCHAR
STARTCHAR ordmasculine
ENCODING 186
SWIDTH 408 0
DWIDTH 6 0
BBX 5 6 1 6
BITMAP
19ED30
8E5DC0
CB09E0
BD2CB0
3EFE30
013000
ENDCHAR
STARTCHAR guillemotright
ENCODING 187
SWIDTH 615 0
DWIDTH 9 0
BBX 9 6 0 1
BITMAP
2E605D3000
1DF73EE300
01CF54EE10
01AF73DF20
2DF95EE600
3D507C3000
ENDCHAR
STARTCHAR onequarter
ENCODING 188
SWIDTH 955 0
DWIDTH 13 0
BBX 12 12 1 0
BITMAP
17BE30034000
7DCF300DB000
009F107F5000
00BE01EB0000
00DC09F30000
00FA2FA08D00
00D6BF22F793
0004F80AD4F5
000CE11F87F2
000D604FFFFE
000000044CD2
0000000009A0
ENDCHAR
STARTCHAR onehalf
ENCODING 189
SWIDTH 1024 0
DWIDTH 14 0
BBX 13 12 1 0
BITMAP
17BE3003400000
7DCF300DB00000
009F107F500000
00BE01EB000000
00DC09F3000000
00FA2FA06DEB10
00D6BF23F77F70
0004F803D03F80
000CE10000AF20
000D60001AF500
00000004EF8530
0000000AFFFF90
ENDCHAR
STARTCHAR threequarters
ENCODING 190
SWIDTH 1035 0
DWIDTH 14 0
BBX 14 12 1 0
BITMAP
1AEE9000250000
8E49F400CD0000
340AE205F70000
01EF500DD00000
414CE17F500000
E94BF3EB06E000
6DFD69F31E9840
00003FA08E3F70
0000AE20E95F40
0000B702FFFFF1
0000000034AF30
00000000007C00
ENDCHAR
STARTCHAR questiondown
ENCODING 191
SWIDTH 476 0
DWIDTH 7 0
BBX 7 13 -1 -6
BITMAP
00007E70
0000CFB0
00006C40
00002200
0000D700
0005F400
004EC000
04EE2000
1EF30000
7F902D30
9F704F50
6FEAEE20
08DFC400
ENDCHAR
STARTCHAR Agrave
ENCODING 192
SWIDTH 786 0
DWIDTH 11 0
BBX 13 17 0 0
BITMAP
00001610000000
00006FC1000000
000009FD200000
0000002A900000
000006BEFEC600
0002CFFDBDF900
002DF910251000
00BF8000BF3000
05FC0000EF1000
0AF50002FC0000
0FF10006FA0000
2FE0000AF70000
3FD0001EF50000
2FE0006FF40030
0EF502EEF508B0
07FFCEC8FECF40
007DEA11BED400
ENDCHAR
STARTCHAR Aacute
ENCODING 193
SWIDTH 786 0
DWIDTH 11 0
BBX 13 17 0 0
BITMAP
00000000003500
0000000005FF00
000000006FD500
00000001E71000
000006BEFEC600
0002CFFDBDF900
002DF910251000
00BF8000BF3000
05FC0000EF1000
0AF50002FC0000
0FF10006FA0000
2FE0000AF70000
3FD0001EF50000
2FE0006FF40030
0EF502EEF508B0
07FFCEC8FECF40
007DEA11BED400
ENDCHAR
STARTCHAR Acircumflex
ENCODING 194
SWIDTH 786 0
DWIDTH 11 0
BBX 13 17 0 0
BITMAP
00000004DB0000
0000001EDF4000
0000009F3EA000
000000D809A000
000006BEFEC600
0002CFFDBDF900
002DF910251000
00BF8000BF3000
05FC0000EF1000
0AF50002FC0000
0FF10006FA0000
2FE0000AF70000
3FD0001EF50000
2FE0006FF40030
0EF502EEF508B0
07FFCEC8FECF40
007DEA11BED400
ENDCHAR
STARTCHAR Atilde
ENCODING 195
SWIDTH 786 0
DWIDTH 11 0
BBX 13 16 0 0
BITMAP
0000008E609800
000003FDFAF600
000006C06EA000
000006BEFEC600
0002CFFDBDF900
002DF910251000
00BF8000BF3000
05FC0000EF1000
0AF50002FC0000
0FF10006FA0000
2FE0000AF70000
3FD0001EF50000
2FE0006FF40030
0EF502EEF508B0
07FFCEC8FECF40
007DEA11BED400
ENDCHAR
STARTCHAR Adieresis
ENCODING 196
SWIDTH 786 0
DWIDTH 11 0
BBX 13 16 0 0
BITMAP
00000001011000
000000CF1DE000
000000BD1CC000
000006BEFEC600
0002CFFDBDF900
002DF910251000
00BF8000BF3000
05FC0000EF1000
0AF50002FC0000
0FF10006FA0000
2FE0000AF70000
3FD0001EF50000
2FE0006FF40030
0EF502EEF508B0
07FFCEC8FECF40
007DEA11BED400
ENDCHAR
STARTCHAR Aring
ENCODING 197
SWIDTH 786 0
DWIDTH 11 0
BBX 13 18 0 0
BITMAP
00000002850000
0000000DFF4000
0000003F3D7000
0000002FBF5000
00000008EA0000
000006BEFEC600
0002CFFDBDF900
002DF910251000
00BF8000BF3000
05FC0000EF1000
0AF50002FC0000
0FF10006FA0000
2FE0000AF70000
3FD0001EF50000
2FE0006FF40030
0EF502EEF508B0
07FFCEC8FECF40
007DEA11BED400
ENDCHAR
STARTCHAR AE
ENCODING 198
SWIDTH 1015 0
DWIDTH 14 0
BBX 16 13 0 0
BITMAP
000017CE37EFFFE1
0003DFFD4FE99970
003EFA205F900000
00CF80009F600000
05FD0000DF300000
0BF60001FF000000
0FF10005FFFFFE10
2FE00009FD999800
3FD0000EF8000000
2FE0005FF8000000
0EF401DDFD100049
06FEADE2BFEAADFB
006DEC3018DFEB60
ENDCHAR
STARTCHAR Ccedilla
ENCODING 199
SWIDTH 686 0
DWIDTH 10 0
BBX 12 17 0 -4
BITMAP
00006CED7000
001BFDADF600
009FA002FB00
03FD0001FC00
09F60002F800
0DF200001000
0FF000000000
1FF000000000
0FF200000000
0DF600000000
06FE30000393
00AFFB9BDFE2
0007FFFEC720
00029EB00000
000008D00000
0009AEA00000
001DEA100000
ENDCHAR
STARTCHAR Egrave
ENCODING 200
SWIDTH 686 0
DWIDTH 10 0
BBX 12 17 0 0
BITMAP
000620000000
002FE3000000
0006EE400000
000018D00000
0003ADFD8100
005FFCADF900
00EF5001EE00
02FE0000EE00
01FF2000B700
006FEA500000
018EFF800000
0CF930000000
5FB000000000
8F8000000000
6FD2000004A3
0CFFBAABEFE2
006BEFEDB720
ENDCHAR
STARTCHAR Eacute
ENCODING 201
SWIDTH 686 0
DWIDTH 10 0
BBX 12 17 0 0
BITMAP
000000001600
00000002DF30
0000003EE700
000000B92000
0003ADFD8100
005FFCADF900
00EF5001EE00
02FE0000EE00
01FF2000B700
006FEA500000
018EFF800000
0CF930000000
5FB000000000
8F8000000000
6FD2000004A3
0CFFBAABEFE2
006BEFEDB720
ENDCHAR
STARTCHAR Ecircumflex
ENCODING 202
SWIDTH 686 0
DWIDTH 10 0
BBX 12 17 0 0
BITMAP
000002CD1000
00000BEF8000
00006F6BD000
00009B06D000
0003ADFD8100
005FFCADF900
00EF5001EE00
02FE0000EE00
01FF2000B700
006FEA500000
018EFF800000
0CF930000000
5FB000000000
8F8000000000
6FD2000004A3
0CFFBAABEFE2
006BEFEDB720
ENDCHAR
STARTCHAR Edieresis
ENCODING 203
SWIDTH 686 0
DWIDTH 10 0
BBX 12 16 0 0
BITMAP
000001001000
00009F4AF300
00008E39E200
0003ADFD8100
005FFCADF900
00EF5001EE00
02FE0000EE00
01FF2000B700
006FEA500000
018EFF800000
0CF930000000
5FB000000000
8F8000000000
6FD2000004A3
0CFFBAABEFE2
006BEFEDB720
ENDCHAR
STARTCHAR Igrave
ENCODING 204
SWIDTH 495 0
DWIDTH 7 0
BBX 9 17 -1 0
BITMAP
0053000000
00EF500000
004DF70000
00007D1000
006EFFFF90
0049CFC940
0000AF5000
0000CF3000
0000EF1000
0001FD0000
0003FB0000
0005F90000
0007F70000
0009F50000
000BF40000
069EFA8100
2FFFFFD100
ENDCHAR
STARTCHAR Iacute
ENCODING 205
SWIDTH 495 0
DWIDTH 7 0
BBX 10 17 -1 0
BITMAP
0000000161
0000001CF6
000002CF91
000008B300
006EFFFF90
0049CFC940
0000AF5000
0000CF3000
0000EF1000
0001FD0000
0003FB0000
0005F90000
0007F70000
0009F50000
000BF40000
069EFA8100
2FFFFFD100
ENDCHAR
STARTCHAR Icircumflex
ENCODING 206
SWIDTH 495 0
DWIDTH 7 0
BBX 9 17 -1 0
BITMAP
00000AE400
00008FDB00
0003F98F10
0006D13E20
006EFFFF90
0049CFC940
0000AF5000
0000CF3000
0000EF1000
0001FD0000
0003FB0000
0005F90000
0007F70000
0009F50000
000BF40000
069EFA8100
2FFFFFD100
ENDCHAR
STARTCHAR Idieresis
ENCODING 207
SWIDTH 495 0
DWIDTH 7 0
BBX 9 16 -1 0
BITMAP
0000100100
0005F77F60
0005E56E40
006EFFFF90
0049CFC940
0000AF5000
0000CF3000
0000EF1000
0001FD0000
0003FB0000
0005F90000
0007F70000
0009F50000
000BF40000
069EFA8100
2FFFFFD100
ENDCHAR
STARTCHAR Eth
ENCODING 208
SWIDTH 821 0
DWIDTH 12 0
BBX 12 13 0 0
BITMAP
0005DFEC6000
000BFABEFB00
001FD002DF80
004FA0004FE0
008F60000EF2
49DFB9700DF3
AFFFFFD00DF2
03FC00001FF0
05F900006FA0
08F70001DF40
09F6002CF900
0BFBACFF9000
07DEED930000
ENDCHAR
STARTCHAR Ntilde
ENCODING 209
SWIDTH 884 0
DWIDTH 12 0
BBX 15 16 0 0
BITMAP
000003EA13E10000
00000CEEDCC00000
00000E42BD300000
03BEA007DEA00000
3ECEF28EAEF60000
D90AF5E207F90000
800BFB6007F80000
000CFD000AF60000
000EF8000DF30000
001FF3001FF00000
003FE0004FC00000
005FB0006F900000
007F80008F700200
009F60008F803E20
00AF40004FEAEA00
008E100007EE8000
ENDCHAR
STARTCHAR Ograve
ENCODING 210
SWIDTH 816 0
DWIDTH 11 0
BBX 12 17 0 0
BITMAP
000530000000
000EF6000000
0004DF700000
000007D20000
00006CEE9100
001BFDADFD10
009F9000BF90
03FD00003FE0
09F600000FF1
0DF200000EF2
0FF000000FF1
1FF000002FE0
1FF100005FA0
0DF40000CF40
08FB1008FA00
01DFDADFC100
0019DEC70000
ENDCHAR
STARTCHAR Oacute
ENCODING 211
SWIDTH 816 0
DWIDTH 11 0
BBX 12 17 0 0
BITMAP
000000000610
00000001BF70
0000002CF910
0000008B3000
00006CEE9100
001BFDADFD10
009F9000BF90
03FD00003FE0
09F600000FF1
0DF200000EF2
0FF000000FF1
1FF000002FE0
1FF100005FA0
0DF40000CF40
08FB1008FA00
01DFDADFC100
0019DEC70000
ENDCHAR
STARTCHAR Ocircumflex
ENCODING 212
SWIDTH 816 0
DWIDTH 11 0
BBX 12 17 0 0
BITMAP
000000AE4000
000008FDB000
00003F98F100
00006D13E200
00006CEE9100
001BFDADFD10
009F9000BF90
03FD00003FE0
09F600000FF1
0DF200000EF2
0FF000000FF1
1FF000002FE0
1FF100005FA0
0DF40000CF40
08FB1008FA00
01DFDADFC100
0019DEC70000
ENDCHAR
STARTCHAR Otilde
ENCODING 213
SWIDTH 816 0
DWIDTH 11 0
BBX 12 16 0 0
BITMAP
00003DB13E10
0000BEEDBD00
0000D42BE400
00006CEE9100
001BFDADFD10
009F9000BF90
03FD00003FE0
09F600000FF1
0DF200000EF2
0FF000000FF1
1FF000002FE0
1FF100005FA0
0DF40000CF40
08FB1008FA00
01DFDADFC100
0019DEC70000
ENDCHAR
STARTCHAR Odieresis
ENCODING 214
SWIDTH 816 0
DWIDTH 11 0
BBX 12 16 0 0
BITMAP
000001001000
00005F87F600
00005E56E400
00006CEE9100
001BFDADFD10
009F9000BF90
03FD00003FE0
09F600000FF1
0DF200000EF2
0FF000000FF1
1FF000002FE0
1FF100005FA0
0DF40000CF40
08FB1008FA00
01DFDADFC100
0019DEC70000
ENDCHAR
STARTCHAR multiply
ENCODING 215
SWIDTH 700 0
DWIDTH 10 0
BBX 8 7 1 1
BITMAP
0AA002D4
0AF82EE3
01DFEE30
005FF500
03EEFC10
2EE39F90
4D300BA0
ENDCHAR
STARTCHAR Oslash
ENCODING 216
SWIDTH 816 0
DWIDTH 11 0
BBX 12 16 0 -2
BITMAP
0000000D7000
00006CEFB100
001BFDDFFD10
009F90CBAF90
03FD01F73FE0
09F604F40EF1
0DF307F00EF2
0FF00BB00EF1
1FF00E801FE0
1FF03F505FA0
0DF36F10CF40
08FBAD08FA00
01DFFDCFC100
001AFFC70000
0007F1000000
000250000000
ENDCHAR
STARTCHAR Ugrave
ENCODING 217
SWIDTH 890 0
DWIDTH 12 0
BBX 15 17 0 0
BITMAP
0000620000000000
0003FD3000000000
00007EE400000000
0000019C00000000
03BEC10002E70000
3ECDF70005FA0000
DA07F80007F80000
9108F70009F60000
000BF4000CF40000
000EF2001FF20000
002FD0005FF00000
005FA000AFD00000
008F7001EFB00000
00AF5009BF900310
00BF607E6FB04E30
008FFEF52FFEFA00
001BED5007EE8000
ENDCHAR
STARTCHAR Uacute
ENCODING 218
SWIDTH 890 0
DWIDTH 12 0
BBX 15 17 0 0
BITMAP
0000000002600000
000000003EF20000
00000004EE700000
0000000C91000000
03BEC10002E70000
3ECDF70005FA0000
DA07F80007F80000
9108F70009F60000
000BF4000CF40000
000EF2001FF20000
002FD0005FF00000
005FA000AFD00000
008F7001EFB00000
00AF5009BF900310
00BF607E6FB04E30
008FFEF52FFEFA00
001BED5007EE8000
ENDCHAR
STARTCHAR Ucircumflex
ENCODING 219
SWIDTH 890 0
DWIDTH 12 0
BBX 15 17 0 0
BITMAP
0000002CD1000000
000000CDF7000000
000007F5CC000000
00000AA07C000000
03BEC10002E70000
3ECDF70005FA0000
DA07F80007F80000
9108F70009F60000
000BF4000CF40000
000EF2001FF20000
002FD0005FF00000
005FA000AFD00000
008F7001EFB00000
00AF5009BF900310
00BF607E6FB04E30
008FFEF52FFEFA00
001BED5007EE8000
ENDCHAR
STARTCHAR Udieresis
ENCODING 220
SWIDTH 890 0
DWIDTH 12 0
BBX 15 16 0 0
BITMAP
0000001001000000
000009F3BF200000
000009E2AD100000
03BEC10002E70000
3ECDF70005FA0000
DA07F80007F80000
9108F70009F60000
000BF4000CF40000
000EF2001FF20000
002FD0005FF00000
005FA000AFD00000
008F7001EFB00000
00AF5009BF900310
00BF607E6FB04E30
008FFEF52FFEFA00
001BED5007EE8000
ENDCHAR
STARTCHAR Yacute
ENCODING 221
SWIDTH 851 0
DWIDTH 12 0
BBX 14 22 0 -5
BITMAP
00000000016100
000000002CF500
00000002DF8000
0000000AA20000
03BEC10002E800
3ECDF70005FA00
DA07F80007F800
8009F7000AF600
000BF4000DF400
000EF2002FF200
002FD0008FF000
004FB001EFD000
004FB00BAFB000
001EFADD4FA583
0005DEA38FFFF4
0000018EFF9410
00003DFABF3000
0001ED30CE0000
0007F402FA0000
0009F42CF30000
0005FFFF600000
00004883000000
ENDCHAR
STARTCHAR Thorn
ENCODING 222
SWIDTH 776 0
DWIDTH 11 0
BBX 11 16 0 -2
BITMAP
000009E10000
00000EF10000
00001FE00000
00017FFEB400
002DFFDCFF40
01DDAF808FC0
07F39F603FE0
0DB0BF405FC0
2F60DF11CF60
4F48FF9EFA00
5F3DFFFC6000
6F35FA000000
4F47F7000000
1F8BF4000000
09FFE1000000
019C50000000
ENDCHAR
STARTCHAR germandbls
ENCODING 223
SWIDTH 596 0
DWIDTH 8 0
BBX 11 15 0 -3
BITMAP
0006DFC30000
008FCAFC0000
02FB00BF0000
08F302EC0000
0DD04ED20000
1FA2FD100000
2F94FC000000
3F80DFC86200
4F77FCFFDF10
5F7F90BF1200
5F7FEAFD0000
5F65DEB30000
6F6000000000
6F6000000000
4E4000000000
ENDCHAR
STARTCHAR agrave
ENCODING 224
SWIDTH 470 0
DWIDTH 7 0
BBX 9 13 0 0
BITMAP
0061000000
02FA000000
00BF100000
001E700000
0004A00000
0000000000
006DB50000
06FDDF1000
1ED1CE0000
6F60FB0110
7F44F91C50
5FCDEDDC10
0BE94EB100
ENDCHAR
STARTCHAR aacute
ENCODING 225
SWIDTH 470 0
DWIDTH 7 0
BBX 9 13 0 0
BITMAP
0000044000
00000ED000
00006F6000
0000CA0000
0001D10000
0000000000
006DB50000
06FDDF1000
1ED1CE0000
6F60FB0110
7F44F91C50
5FCDEDDC10
0BE94EB100
ENDCHAR
STARTCHAR acircumflex
ENCODING 226
SWIDTH 470 0
DWIDTH 7 0
BBX 9 13 0 0
BITMAP
0001CB0000
0009EF1000
003F6F5000
00AD0F8000
00E60B7000
0000000000
006DB50000
06FDDF1000
1ED1CE0000
6F60FB0110
7F44F91C50
5FCDEDDC10
0BE94EB100
ENDCHAR
STARTCHAR atilde
ENCODING 227
SWIDTH 470 0
DWIDTH 7 0
BBX 9 11 0 0
BITMAP
0036104300
02EED5E600
06C18E9000
0000000000
006DB50000
06FDDF1000
1ED1CE0000
6F60FB0110
7F44F91C50
5FCDEDDC10
0BE94EB100
ENDCHAR
STARTCHAR adieresis
ENCODING 228
SWIDTH 470 0
DWIDTH 7 0
BBX 9 11 0 0
BITMAP
0011011000
00DE1ED000
00CC0DA000
0000000000
006DB50000
06FDDF1000
1ED1CE0000
6F60FB0110
7F44F91C50
5FCDEDDC10
0BE94EB100
ENDCHAR
STARTCHAR aring
ENCODING 229
SWIDTH 470 0
DWIDTH 7 0
BBX 9 13 0 0
BITMAP
0003850000
001EFF3000
004F2E6000
003FBF4000
0009E90000
0000000000
006DB50000
06FDDF1000
1ED1CE0000
6F60FB0110
7F44F91C50
5FCDEDDC10
0BE94EB100
ENDCHAR
STARTCHAR ae
ENCODING 230
SWIDTH 653 0
DWIDTH 9 0
BBX 11 7 0 0
BITMAP
005CE8DE7000
07FDCFDDF000
2FC1AF18E000
6F50ED9F6030
7F43FF9309E0
5FCDDFDAEF60
0AEB18EEB400
ENDCHAR
STARTCHAR ccedilla
ENCODING 231
SWIDTH 368 0
DWIDTH 5 0
BBX 7 11 0 -4
BITMAP
01BE9000
0CFBF200
4F94F100
7F526000
8F4002C0
5FA14D90
0AFFE800
03AE8000
0009C000
19AE9000
1EFB1000
ENDCHAR
STARTCHAR egrave
ENCODING 232
SWIDTH 393 0
DWIDTH 6 0
BBX 8 13 0 0
BITMAP
03400000
0BF10000
05F70000
009D0000
001C2000
00000000
02BEB100
0DEBF500
5F63F400
7F9DB021
6FC504E4
2FEACFB0
04CED700
ENDCHAR
STARTCHAR eacute
ENCODING 233
SWIDTH 393 0
DWIDTH 6 0
BBX 8 13 0 0
BITMAP
00001600
00008F40
0001EC00
0006E200
00095000
00000000
02BEB100
0DEBF500
5F63F400
7F9DB021
6FC504E4
2FEACFB0
04CED700
ENDCHAR
STARTCHAR ecircumflex
ENCODING 234
SWIDTH 393 0
DWIDTH 6 0
BBX 8 13 0 0
BITMAP
0008E200
003FE700
00BBAB00
04F49E00
08B05D00
00000000
02BEB100
0DEBF500
5F63F400
7F9DB021
6FC504E4
2FEACFB0
04CED700
ENDCHAR
STARTCHAR edieresis
ENCODING 235
SWIDTH 393 0
DWIDTH 6 0
BBX 8 11 0 0
BITMAP
00100100
07F58F40
06E47E20
00000000
02BEB100
0DEBF500
5F63F400
7F9DB021
6FC504E4
2FEACFB0
04CED700
ENDCHAR
STARTCHAR igrave
ENCODING 236
SWIDTH 246 0
DWIDTH 3 0
BBX 7 13 -1 0
BITMAP
06200000
2FA00000
0AF20000
01D80000
004B0000
00000000
008D0000
00EC0000
02FA0000
04F70210
05F62E30
03FDEB00
00AE9100
ENDCHAR
STARTCHAR iacute
ENCODING 237
SWIDTH 246 0
DWIDTH 3 0
BBX 6 13 0 0
BITMAP
000340
000ED0
005F70
00BB00
01D100
000000
08D000
0EC000
2FA000
4F7021
5F62E3
3FDEB0
0AE910
ENDCHAR
STARTCHAR icircumflex
ENCODING 238
SWIDTH 246 0
DWIDTH 3 0
BBX 6 13 0 0
BITMAP
01CB00
09EF20
2F6F50
AD0E90
D60B80
000000
08D000
0EC000
2FA000
4F7021
5F62E3
3FDEB0
0AE910
ENDCHAR
STARTCHAR idieresis
ENCODING 239
SWIDTH 246 0
DWIDTH 3 0
BBX 6 11 0 0
BITMAP
110110
DE1ED0
BC0CB0
000000
08D000
0EC000
2FA000
4F7021
5F62E3
3FDEB0
0AE910
ENDCHAR
STARTCHAR eth
ENCODING 240
SWIDTH 451 0
DWIDTH 6 0
BBX 8 14 0 0
BITMAP
00CA0020
006F77F3
000CFF90
008FFA00
01E8DC00
00009F10
00007F30
02BEEF50
0DFAEF50
5F707F40
7F409F10
7F50DC00
3FECF500
06EE7000
ENDCHAR
STARTCHAR ntilde
ENCODING 241
SWIDTH 496 0
DWIDTH 7 0
BBX 9 11 0 0
BITMAP
0026103300
01EEE5E700
05D17EA000
0000000000
08D09E4000
0EB9FF6000
2FAEAF4000
3FE79F1030
4FF1BE09B0
4FB0CFBF40
1D606EC400
ENDCHAR
STARTCHAR ograve
ENCODING 242
SWIDTH 451 0
DWIDTH 6 0
BBX 9 13 0 0
BITMAP
0440000000
0CE1000000
05F6000000
00AD000000
001C200000
0000000000
02BEC20000
0DFCFC0000
5F75FFAC10
7F40CFEB10
7F50CC0000
3FEBF50000
06EE700000
ENDCHAR
STARTCHAR oacute
ENCODING 243
SWIDTH 451 0
DWIDTH 6 0
BBX 9 13 0 0
BITMAP
0000160000
00009F3000
0001EC0000
0006E20000
000A500000
0000000000
02BEC20000
0DFCFC0000
5F75FFAC10
7F40CFEB10
7F50CC0000
3FEBF50000
06EE700000
ENDCHAR
STARTCHAR ocircumflex
ENCODING 244
SWIDTH 451 0
DWIDTH 6 0
BBX 9 13 0 0
BITMAP
0009E20000
004FE70000
00CABA0000
05F49D0000
09B06D0000
0000000000
02BEC20000
0DFCFC0000
5F75FFAC10
7F40CFEB10
7F50CC0000
3FEBF50000
06EE700000
ENDCHAR
STARTCHAR otilde
ENCODING 245
SWIDTH 451 0
DWIDTH 6 0
BBX 9 11 0 0
BITMAP
0163015000
0AEF8BB000
1E35CD2000
0000000000
02BEC20000
0DFCFC0000
5F75FFAC10
7F40CFEB10
7F50CC0000
3FEBF50000
06EE700000
ENDCHAR
STARTCHAR odieresis
ENCODING 246
SWIDTH 451 0
DWIDTH 6 0
BBX 9 11 0 0
BITMAP
0010010000
08F59F3000
07E38E2000
0000000000
02BEC20000
0DFCFC0000
5F75FFAC10
7F40CFEB10
7F50CC0000
3FEBF50000
06EE700000
ENDCHAR
STARTCHAR divide
ENCODING 247
SWIDTH 700 0
DWIDTH 10 0
BBX 8 9 1 0
BITMAP
00002000
000AF400
0009E200
00000000
AFFFFFFA
69999995
00020000
006F8000
005E6000
ENDCHAR
STARTCHAR oslash
ENCODING 248
SWIDTH 459 0
DWIDTH 6 0
BBX 9 11 0 -2
BITMAP
0004900000
0007800000
02CFD30000
0DEEFD0000
5F6E9F7820
7F5D7FFF30
7F9A9E4100
3FFDF90000
06EE910000
00C3000000
00D1000000
ENDCHAR
STARTCHAR ugrave
ENCODING 249
SWIDTH 462 0
DWIDTH 6 0
BBX 9 13 0 0
BITMAP
0160000000
05F7000000
01DD000000
003F400000
0007800000
0000000000
07E04E1000
0DC0AE0000
2F90EC0000
4F75F90210
5F8DF72E30
4FFBFDEB00
0BD2BE9000
ENDCHAR
STARTCHAR uacute
ENCODING 250
SWIDTH 462 0
DWIDTH 6 0
BBX 9 13 0 0
BITMAP
0000053000
00002FA000
00009F3000
0001E70000
0004B00000
0000000000
07E04E1000
0DC0AE0000
2F90EC0000
4F75F90210
5F8DF72E30
4FFBFDEB00
0BD2BE9000
ENDCHAR
STARTCHAR ucircumflex
ENCODING 251
SWIDTH 462 0
DWIDTH 6 0
BBX 9 13 0 0
BITMAP
0003E80000
000CED0000
006F7F2000
00DA3F5000
02E31D5000
0000000000
07E04E1000
0DC0AE0000
2F90EC0000
4F75F90210
5F8DF72E30
4FFBFDEB00
0BD2BE9000
ENDCHAR
STARTCHAR udieresis
ENCODING 252
SWIDTH 462 0
DWIDTH 6 0
BBX 9 11 0 0
BITMAP
0010010000
02EB2FA000
01E92E7000
0000000000
07E04E1000
0DC0AE0000
2F90EC0000
4F75F90210
5F8DF72E30
4FFBFDEB00
0BD2BE9000
ENDCHAR
STARTCHAR yacute
ENCODING 253
SWIDTH 479 0
DWIDTH 7 0
BBX 9 20 0 -7
BITMAP
0000053000
00002FA000
00009F3000
0001E70000
0004B00000
0000000000
07E04E1000
0DC0AF0000
2F90ED0000
4F75FA0300
5F8DF87F30
4FFDFEF700
0BD7FD3000
003EF20000
03EED00000
1D7DA00000
9B2F600000
E68E100000
FCF8000000
8EA1000000
ENDCHAR
STARTCHAR thorn
ENCODING 254
SWIDTH 508 0
DWIDTH 7 0
BBX 9 17 0 -5
BITMAP
01D8000000
04F8000000
07F5000000
0AF1000000
0CE0000000
0EB3DD2000
1FAECF8000
3FE73F8000
5FE15F6050
6FA1CE17D0
7FBCFEBF50
8FFC8ED500
9F20000000
9F10000000
AF10000000
AF10000000
8D10000000
ENDCHAR
STARTCHAR ydieresis
ENCODING 255
SWIDTH 479 0
DWIDTH 7 0
BBX 9 18 0 -7
BITMAP
0010010000
02EB2FA000
01E92E7000
0000000000
07E04E1000
0DC0AF0000
2F90ED0000
4F75FA0300
5F8DF87F30
4FFDFEF700
0BD7FD3000
003EF20000
03EED00000
1D7DA00000
9B2F600000
E68E100000
FCF8000000
8EA1000000
ENDCHAR
STARTCHAR Amacron
ENCODING 256
SWIDTH 786 0
DWIDTH 11 0
BBX 13 15 0 0
BITMAP
00000059994000
000000BFFF7000
000006BEFEC600
0002CFFDBDF900
002DF910251000
00BF8000BF3000
05FC0000EF1000
0AF50002FC0000
0FF10006FA0000
2FE0000AF70000
3FD0001EF50000
2FE0006FF40030
0EF502EEF508B0
07FFCEC8FECF40
007DEA11BED400
ENDCHAR
STARTCHAR amacron
ENCODING 257
SWIDTH 470 0
DWIDTH 7 0
BBX 9 10 0 0
BITMAP
0069994000
00CFFF6000
0000000000
006DB50000
06FDDF1000
1ED1CE0000
6F60FB0110
7F44F91C50
5FCDEDDC10
0BE94EB100
ENDCHAR
STARTCHAR Abreve
ENCODING 258
SWIDTH 786 0
DWIDTH 11 0
BBX 13 16 0 0
BITMAP
000003E301C600
000002FEADF300
0000005DFC5000
000006BEFEC600
0002CFFDBDF900
002DF910251000
00BF8000BF3000
05FC0000EF1000
0AF50002FC0000
0FF10006FA0000
2FE0000AF70000
3FD0001EF50000
2FE0006FF40030
0EF502EEF508B0
07FFCEC8FECF40
007DEA11BED400
ENDCHAR
STARTCHAR abreve
ENCODING 259
SWIDTH 470 0
DWIDTH 7 0
BBX 9 12 0 0
BITMAP
0160005100
05F504F500
01EEAEE100
004DFC3000
0000000000
006DB50000
06FDDF1000
1ED1CE0000
6F60FB0110
7F44F91C50
5FCDEDDC10
0BE94EB100
ENDCHAR
STARTCHAR Aogonek
ENCODING 260
SWIDTH 786 0
DWIDTH 11 0
BBX 13 17 0 -4
BITMAP
000006BEFEC600
0002CFEBABE800
002DF810360000
00BF7000CF3000
05FC0000EF1000
0AF50003FC0000
0FF10006F90000
2FE0000AF70000
3FD0000EF50000
2FE0005FF40030
0EF401DFF507B0
07FEADC9FDBE30
007DEA11CFB200
00000000B90000
00000001F92100
00000000BFF800
00000000034000
ENDCHAR
STARTCHAR aogonek
ENCODING 261
SWIDTH 470 0
DWIDTH 7 0
BBX 9 11 0 -4
BITMAP
006DB50000
06FDDF1000
1ED1CE0000
6F60FB0110
7F44F91C50
5FCDFDDB10
0BE98F8000
0003F30000
0007F31000
0003EFF200
0000142000
ENDCHAR
STARTCHAR Cacute
ENCODING 262
SWIDTH 686 0
DWIDTH 10 0
BBX 12 17 0 0
BITMAP
000000001610
00000001CF60
0000002DF910
0000009B3000
00006CED7000
001BFDADF600
00AFA002FB00
03FD0001FC00
09F60002F800
0DF200001000
0FF000000000
1FF000000000
0FF200000000
0CF600000000
06FE30000393
009FFB9BDFE2
0005BEFDB720
ENDCHAR
STARTCHAR cacute
ENCODING 263
SWIDTH 368 0
DWIDTH 5 0
BBX 7 13 0 0
BITMAP
00001600
00009F30
0001EB00
0007E200
000A5000
00000000
02BEA000
0CFBF200
5F84E100
8F402030
7F5007E0
3FEADF60
05DEC400
ENDCHAR
STARTCHAR Ccircumflex
ENCODING 264
SWIDTH 686 0
DWIDTH 10 0
BBX 12 17 0 0
BITMAP
000001AE3000
000008FEA000
00003F98F100
00007D13E200
00006CED7000
001BFDADF600
00AFA002FB00
03FD0001FC00
09F60002F800
0DF200001000
0FF000000000
1FF000000000
0FF200000000
0CF600000000
06FE30000393
009FFB9BDFE2
0005BEFDB720
ENDCHAR
STARTCHAR ccircumflex
ENCODING 265
SWIDTH 368 0
DWIDTH 5 0
BBX 7 13 0 0
BITMAP
0009E200
004FE600
00CABA00
05F3AD00
09A06C00
00000000
02BEA000
0CFBF200
5F84E100
8F402030
7F5007E0
3FEADF60
05DEC400
ENDCHAR
STARTCHAR Cdotaccent
ENCODING 266
SWIDTH 686 0
DWIDTH 10 0
BBX 12 16 0 0
BITMAP
000000110000
000002EF2000
000002EC1000
00006CED7000
001BFDADF600
00AFA002FB00
03FD0001FC00
09F60002F800
0DF200001000
0FF000000000
1FF000000000
0FF200000000
0CF600000000
06FE30000393
009FFB9BDFE2
0005BEFDB720
ENDCHAR
STARTCHAR cdotaccent
ENCODING 267
SWIDTH 368 0
DWIDTH 5 0
BBX 7 11 0 0
BITMAP
00010000
004FE000
004EB000
00000000
02BEA000
0CFBF200
5F84E100
8F402030
7F5007E0
3FEADF60
05DEC400
ENDCHAR
STARTCHAR Ccaron
ENCODING 268
SWIDTH 686 0
DWIDTH 10 0
BBX 12 17 0 0
BITMAP
000006105300
00001F74F500
000009DDA000
000001DB1000
00006CED7000
001BFDADF600
00AFA002FB00
03FD0001FC00
09F60002F800
0DF200001000
0FF000000000
1FF000000000
0FF200000000
0CF600000000
06FE30000393
009FFB9BDFE2
0005BEFDB720
ENDCHAR
STARTCHAR ccaron
ENCODING 269
SWIDTH 368 0
DWIDTH 5 0
BBX 7 13 0 0
BITMAP
00D50B80
00E84F40
00BABB00
008EF300
003E8000
00000000
02BEA000
0CFBF200
5F84E100
8F402030
7F5007E0
3FEADF60
05DEC400
ENDCHAR
STARTCHAR Dcaron
ENCODING 270
SWIDTH 836 0
DWIDTH 12 0
BBX 12 17 0 0
BITMAP
000034016000
00008E0BC000
00002FAF3000
000008E50000
005ADFEC7100
1CFEBABEFD10
5E810001BFB0
001BA0001EF2
004FA0000BF5
007F70000AF6
00AF40000BF5
00EF10000DF3
01FE00003FE0
03FC0000BF80
05FA0019FD00
07FDABFFC100
04CEFDB50000
ENDCHAR
STARTCHAR dcaron
ENCODING 271
SWIDTH 470 0
DWIDTH 7 0
BBX 10 14 0 0
BITMAP
0000000020
000007E6F4
00000BF7F1
00000DE5A0
00000FB000
00002F8000
00004F5000
006DEF3000
06FDDF1000
1ED1CD0000
6F60FB0110
7F44F91C50
5FCDEDDC10
0BE94EB100
ENDCHAR
STARTCHAR Dcroat
ENCODING 272
SWIDTH 821 0
DWIDTH 12 0
BBX 12 13 0 0
BITMAP
0005DFEC6000
000BFABEFB00
001FD002DF80
004FA0004FE0
008F60000EF2
49DFB9700DF3
AFFFFFD00DF2
03FC00001FF0
05F900006FA0
08F70001DF40
09F6002CF900
0BFBACFF9000
07DEED930000
ENDCHAR
STARTCHAR dcroat
ENCODING 273
SWIDTH 470 0
DWIDTH 7 0
BBX 9 13 0 0
BITMAP
000007E100
00000BF200
00000DF000
00AFFFF900
0069AFC200
00004F7000
006DEF4000
06FDDF1000
1ED1CD0000
6F60FB0110
7F44F91C50
5FCDEDDC10
0BE94EB100
ENDCHAR
STARTCHAR Emacron
ENCODING 274
SWIDTH 686 0
DWIDTH 10 0
BBX 12 15 0 0
BITMAP
000039997000
00007FFFB000
0003ADFD8100
005FFCADF900
00EF5001EE00
02FE0000EE00
01FF2000B700
006FEA500000
018EFF800000
0CF930000000
5FB000000000
8F8000000000
6FD2000004A3
0CFFBAABEFE2
006BEFEDB720
ENDCHAR
STARTCHAR emacron
ENCODING 275
SWIDTH 393 0
DWIDTH 6 0
BBX 8 10 0 0
BITMAP
02999700
06FFFC00
00000000
02BEB100
0DEBF500
5F63F400
7F9DB021
6FC504E4
2FEACFB0
04CED700
ENDCHAR
STARTCHAR Ebreve
ENCODING 276
SWIDTH 686 0
DWIDTH 10 0
BBX 12 16 0 0
BITMAP
0000D600A900
0000DFACF700
00003BFD7000
0003ADFD8100
005FFCADF900
00EF5001EE00
02FE0000EE00
01FF2000B700
006FEA500000
018EFF800000
0CF930000000
5FB000000000
8F8000000000
6FD2000004A3
0CFFBAABEFE2
006BEFEDB720
ENDCHAR
STARTCHAR ebreve
ENCODING 277
SWIDTH 393 0
DWIDTH 6 0
BBX 8 12 0 0
BITMAP
05200240
0EB00CB0
0AFBCF60
01AED700
00000000
02BEB100
0DEBF500
5F63F400
7F9DB021
6FC504E4
2FEACFB0
04CED700
ENDCHAR
STARTCHAR Edotaccent
ENCODING 278
SWIDTH 686 0
DWIDTH 10 0
BBX 12 16 0 0
BITMAP
000000100000
000005FE0000
000005EB0000
0003ADFD8100
005FFCADF900
00EF5001EE00
02FE0000EE00
01FF2000B700
006FEA500000
018EFF800000
0CF930000000
5FB000000000
8F8000000000
6FD2000004A3
0CFFBAABEFE2
006BEFEDB720
ENDCHAR
STARTCHAR edotaccent
ENCODING 279
SWIDTH 393 0
DWIDTH 6 0
BBX 8 11 0 0
BITMAP
00010000
003FE100
003EB000
00000000
02BEB100
0DEBF500
5F63F400
7F9DB021
6FC504E4
2FEACFB0
04CED700
ENDCHAR
STARTCHAR Eogonek
ENCODING 280
SWIDTH 686 0
DWIDTH 10 0
BBX 12 17 0 -4
BITMAP
0003ADFD8100
005FFCADF900
00EF5001EE00
02FE0000EE00
01FF2000B700
006FEA500000
018EFF800000
0CF930000000
5FB000000000
8F8000000000
6FD2000004A3
1CFFBAABEFF3
017CEFFEC820
00001E800000
00005F300000
00003FC93000
000008ED3000
ENDCHAR
STARTCHAR eogonek
ENCODING 281
SWIDTH 393 0
DWIDTH 6 0
BBX 8 12 0 -5
BITMAP
01BEB000
0CEBF500
4F72F500
7F5BE100
7FFC20B4
5FB24CE2
0BFFFD30
008F7000
00BA0000
00CC2100
006FFB00
00024100
ENDCHAR
STARTCHAR Ecaron
ENCODING 282
SWIDTH 686 0
DWIDTH 10 0
BBX 12 17 0 0
BITMAP
000016006200
00003F46F300
00000CBE7000
000003E90000
0003ADFD8100
005FFCADF900
00EF5001EE00
02FE0000EE00
01FF2000B700
006FEA500000
018EFF800000
0CF930000000
5FB000000000
8F8000000000
6FD2000004A3
0CFFBAABEFE2
006BEFEDB720
ENDCHAR
STARTCHAR ecaron
ENCODING 283
SWIDTH 393 0
DWIDTH 6 0
BBX 8 13 0 0
BITMAP
00C60A90
00D93F50
00ABAC00
007EF400
002E9000
00000000
02BEB100
0DEBF500
5F63F400
7F9DB021
6FC504E4
2FEACFB0
04CED700
ENDCHAR
STARTCHAR Gcircumflex
ENCODING 284
SWIDTH 811 0
DWIDTH 11 0
BBX 13 24 0 -7
BITMAP
0000008E600000
000005FDE00000
00001EC5F40000
00004E31D50000
00005CEEA20000
001BFEABFC0000
009FA100CF1000
03FD0000BF3000
09F60000BD0000
0DF20000110000
0FF00000000000
1FF00029993000
0FF1005FFF8000
0CF600005F6020
06FE20006F49C0
009FFB9BFFDE40
0005BEFCEFB100
00000006FC0000
0000007EF90000
000005E6F50000
00000D67F10000
00004F1DB00000
00005FCF400000
00001CE7000000
ENDCHAR
STARTCHAR gcircumflex
ENCODING 285
SWIDTH 479 0
DWIDTH 7 0
BBX 9 20 0 -7
BITMAP
0001CB0000
0009EF1000
003F6F5000
00AD0F8000
00E60B7000
0000000000
006DB50000
06FDDF0000
1ED1CD0000
6F60FB0200
7F44F97F30
5FCDFEF800
0BEBFE4000
003EF20000
03EEE00000
1E8DA00000
8C2F600000
E68F100000
FCF9000000
7EB1000000
ENDCHAR
STARTCHAR Gbreve
ENCODING 286
SWIDTH 811 0
DWIDTH 11 0
BBX 13 23 0 -7
BITMAP
00008C005E1000
00007FCAFD0000
000008EEA20000
00005CEEA20000
001BFEABFC0000
009FA100CF1000
03FD0000BF3000
09F60000BD0000
0DF20000110000
0FF00000000000
1FF00029993000
0FF1005FFF8000
0CF600005F6020
06FE20006F49C0
009FFB9BFFDE40
0005BEFCEFB100
00000006FC0000
0000007EF90000
000005E6F50000
00000D67F10000
00004F1DB00000
00005FCF400000
00001CE7000000
ENDCHAR
STARTCHAR gbreve
ENCODING 287
SWIDTH 479 0
DWIDTH 7 0
BBX 9 19 0 -7
BITMAP
0160005100
05F504F500
01EEAEE100
004DFC3000
0000000000
006DB50000
06FDDF0000
1ED1CD0000
6F60FB0200
7F44F97F30
5FCDFEF800
0BEBFE4000
003EF20000
03EEE00000
1E8DA00000
8C2F600000
E68F100000
FCF9000000
7EB1000000
ENDCHAR
STARTCHAR Gdotaccent
ENCODING 288
SWIDTH 811 0
DWIDTH 11 0
BBX 13 23 0 -7
BITMAP
00000001000000
000000DF500000
000000DE300000
00005CEEA20000
001BFEABFC0000
009FA100CF1000
03FD0000BF3000
09F60000BD0000
0DF20000110000
0FF00000000000
1FF00029993000
0FF1005FFF8000
0CF600005F6020
06FE20006F49C0
009FFB9BFFDE40
0005BEFCEFB100
00000006FC0000
0000007EF90000
000005E6F50000
00000D67F10000
00004F1DB00000
00005FCF400000
00001CE7000000
ENDCHAR
STARTCHAR gdotaccent
ENCODING 289
SWIDTH 479 0
DWIDTH 7 0
BBX 9 18 0 -7
BITMAP
0000100000
0009F90000
0009E60000
0000000000
006DB50000
06FDDF0000
1ED1CD0000
6F60FB0200
7F44F97F30
5FCDFEF800
0BEBFE4000
003EF20000
03EEE00000
1E8DA00000
8C2F600000
E68F100000
FCF9000000
7EB1000000
ENDCHAR
STARTCHAR uni0122
ENCODING 290
SWIDTH 811 0
DWIDTH 11 0
BBX 13 20 0 -7
BITMAP
00005CEEA20000
001BFEABFC0000
009FA100CF1000
03FD0000BF3000
09F60000BD0000
0DF20000110000
0FF00000000000
1FF00029993000
0FF1005FFF8000
0CF600005F6020
06FE20006F49C0
009FFB9BFFDE40
0005BEFCEFB100
00000006FC0000
000D607EF90000
002F65E6F50000
001E2D67F10000
00004F1DB00000
00005FCF400000
00001CE7000000
ENDCHAR
STARTCHAR uni0123
ENCODING 291
SWIDTH 479 0
DWIDTH 7 0
BBX 9 19 0 -7
BITMAP
0000D60000
0002F80000
0002F40000
0002D00000
0000000000
006DB50000
06FDDF0000
1ED1CD0000
6F60FB0200
7F44F97F30
5FCDFEF800
0BEBFE4000
003EF20000
03EEE00000
1E8DA00000
8C2F600000
E68F100000
FCF9000000
7EB1000000
ENDCHAR
STARTCHAR Hcircumflex
ENCODING 292
SWIDTH 873 0
DWIDTH 12 0
BBX 15 17 -1 0
BITMAP
00000003DC100000
0000000DDF600000
0000007F4DB00000
000000B908B28500
004CEA00001DFF20
06FBDF40009F4E40
1F607F7001EA0E30
18007F7005F63F10
00008F6009F3BA00
0000AF400CFDD100
0049EFA9AFFA1000
008FFFEDBFC00000
0003FB002FB00000
0006F8001FC00020
000AF5000EF104E0
000DF20008FDAF80
000BA00001AED600
ENDCHAR
STARTCHAR hcircumflex
ENCODING 293
SWIDTH 502 0
DWIDTH 7 0
BBX 9 19 0 0
BITMAP
0001CD2000
000AEE9000
005F7AE000
009C05D100
0000000000
0008E70000
005FDE0000
00CA6E0000
03F57C0000
07F2C70000
0BE4E10000
0DCD600000
0FFA8E5000
2FC8FF7000
3F9EAF5000
3FE87F2030
4FF2AF07C0
4FD0BFBF40
2E605ED400
ENDCHAR
STARTCHAR Hbar
ENCODING 294
SWIDTH 856 0
DWIDTH 12 0
BBX 13 13 0 0
BITMAP
001D900008E200
003FC0000CF300
04AFD8888EF810
0AFFFFFFFFFE20
008F60002FC000
00AF40004FA000
1EFFFFFFFFFB00
19FE9999DFB500
03FC0000CF3000
05FA0000EF1000
07F80001FE0000
09F60003FC0000
07E30002E80000
ENDCHAR
STARTCHAR hbar
ENCODING 295
SWIDTH 502 0
DWIDTH 7 0
BBX 9 13 0 0
BITMAP
007E100000
00CF100000
00FD000000
2FFFFF2000
0AFB870000
09F3000000
0CF08E5000
0EC7FF7000
1FBEAF5000
2FE87F2030
3FF2AF07C0
3FD0BFBF50
0D705ED400
ENDCHAR
STARTCHAR Itilde
ENCODING 296
SWIDTH 495 0
DWIDTH 7 0
BBX 10 16 -1 0
BITMAP
0003DB13E1
000CEEDBC0
000E42BE40
006EFFFF90
0049CFC940
0000AF5000
0000CF3000
0000EF1000
0001FD0000
0003FB0000
0005F90000
0007F70000
0009F50000
000BF40000
069EFA8100
2FFFFFD100
ENDCHAR
STARTCHAR itilde
ENCODING 297
SWIDTH 246 0
DWIDTH 3 0
BBX 7 11 -1 0
BITMAP
02610430
2EED5E60
6C17EA00
00000000
008D0000
00EC0000
02FA0000
04F70210
05F62E30
03FDEB00
00AE9100
ENDCHAR
STARTCHAR Imacron
ENCODING 298
SWIDTH 495 0
DWIDTH 7 0
BBX 9 15 -1 0
BITMAP
0001999800
0004FFFD00
006EFFFF90
0049CFC940
0000AF5000
0000CF3000
0000EF1000
0001FD0000
0003FB0000
0005F90000
0007F70000
0009F50000
000BF40000
069EFA8100
2FFFFFD100
ENDCHAR
STARTCHAR imacron
ENCODING 299
SWIDTH 246 0
DWIDTH 3 0
BBX 6 10 0 0
BITMAP
599940
BFFF70
000000
08D000
0EC000
2FA000
4F7021
5F62E3
3FDEB0
0AE910
ENDCHAR
STARTCHAR Ibreve
ENCODING 300
SWIDTH 495 0
DWIDTH 7 0
BBX 9 16 -1 0
BITMAP
000B9007C0
000AFBBFA0
0001AEE910
006EFFFF90
0049CFC940
0000AF5000
0000CF3000
0000EF1000
0001FD0000
0003FB0000
0005F90000
0007F70000
0009F50000
000BF40000
069EFA8100
2FFFFFD100
ENDCHAR
STARTCHAR ibreve
ENCODING 301
SWIDTH 246 0
DWIDTH 3 0
BBX 7 12 -1 0
BITMAP
16000520
4F503F60
1EEAEE10
04CFC300
00000000
008D0000
00EC0000
02FA0000
04F70210
05F62E30
03FDEB00
00AE9100
ENDCHAR
STARTCHAR Iogonek
ENCODING 302
SWIDTH 495 0
DWIDTH 7 0
BBX 9 17 -1 -4
BITMAP
006EFFFF90
0049CFC940
0000AF5000
0000CF3000
0000EF1000
0001FD0000
0003FB0000
0005F90000
0007F70000
0009F50000
000BF40000
069EFA8100
2FFFFFD100
004F400000
008E000000
007FB91000
001BFC1000
ENDCHAR
STARTCHAR iogonek
ENCODING 303
SWIDTH 246 0
DWIDTH 3 0
BBX 6 15 0 -4
BITMAP
002000
09F900
08E600
000000
09D000
0EC000
2F9000
4F7041
5F64F2
2FEF70
0DE400
7E2000
9E2100
4FFE00
014100
ENDCHAR
STARTCHAR Idotaccent
ENCODING 304
SWIDTH 495 0
DWIDTH 7 0
BBX 9 16 -1 0
BITMAP
0000011000
00002EF200
00002ED100
006EFFFF90
0049CFC940
0000AF5000
0000CF3000
0000EF1000
0001FD0000
0003FB0000
0005F90000
0007F70000
0009F50000
000BF40000
069EFA8100
2FFFFFD100
ENDCHAR
STARTCHAR dotlessi
ENCODING 305
SWIDTH 246 0
DWIDTH 3 0
BBX 6 7 0 0
BITMAP
08D000
0EC000
2FA000
4F7021
5F62E3
3FDEB0
0AE910
ENDCHAR
STARTCHAR Jcircumflex
ENCODING 308
SWIDTH 743 0
DWIDTH 10 0
BBX 10 18 1 -1
BITMAP
00005E9000
0002FDF200
000BE3F700
001E60B800
028CEFFEB4
4FFCA9AFF8
DE20001FE0
FB00003FC0
CE00005FA0
2300007F70
00003AFF50
0008FDEF20
00AF81ED00
06F803F900
0CF108F300
0EE02EC000
0BFAEE3000
02CEC30000
ENDCHAR
STARTCHAR jcircumflex
ENCODING 309
SWIDTH 254 0
DWIDTH 4 0
BBX 9 20 -4 -7
BITMAP
000001CB00
000009EF10
00002F6F50
0000AD0E80
0000D60B80
0000000000
00000AD000
00000ED000
00000FB000
00002F9020
00004F77F0
00005FEE60
00007FD300
0003EF1000
004EFC0000
02E6E90000
0AA4F40000
1F4AE00000
2FCF700000
0AE9000000
ENDCHAR
STARTCHAR uni0136
ENCODING 310
SWIDTH 937 0
DWIDTH 13 0
BBX 15 17 0 -4
BITMAP
004BEFDA1004E500
05FEABFF300BF500
0DD106F8002FE100
1F9008F7008F8000
0EC00AF502FE1000
07900BF32DF40000
00007EFCFD400000
0000DFFFE4000000
00002FC5FE200000
22005F90AF900030
9D10AF503FF307D0
6FDBFD100AFECF60
07DEB20001AED500
0000000000000000
000000AA00000000
000000DB00000000
000000C500000000
ENDCHAR
STARTCHAR uni0137
ENCODING 311
SWIDTH 525 0
DWIDTH 7 0
BBX 10 19 0 -5
BITMAP
0008E70000
005FDE0000
00CA6E0000
03F57C0000
07F2C60000
0BE4D10000
0DCD400000
0FF88EA000
2FB8DDF200
3F9E1AF100
3FE88F8040
3FF6FA04F1
3FC2FEAE90
0D706DE800
0000000000
007D000000
00AE000000
00AB000000
0095000000
ENDCHAR
STARTCHAR kgreenlandic
ENCODING 312
SWIDTH 465 0
DWIDTH 7 0
BBX 9 7 0 0
BITMAP
08D2BE8000
0EBCECF000
2FBF67D000
3FEF312210
4FFF502E40
4FCEEAEC00
1D63CEA100
ENDCHAR
STARTCHAR Lacute
ENCODING 313
SWIDTH 673 0
DWIDTH 9 0
BBX 13 17 -1 0
BITMAP
00000000005300
0000000008FB00
000000009FC300
00000004D50000
000003AEEB2000
00004FFBBFD000
0001EF400BF300
0006FA0009F400
0009F60009E100
000BF400001000
000CF300000000
000DF100000000
000EF000000000
000ED000000200
1BEFE940002E30
8FFFFFFEAAEA00
3DE9149DFE8000
ENDCHAR
STARTCHAR lacute
ENCODING 314
SWIDTH 326 0
DWIDTH 5 0
BBX 9 19 0 0
BITMAP
0000001600
000002DF40
00003EF800
0000B92000
0000000000
0008E60000
006FDD0000
00DA6F0000
03F57D0000
08F19B0000
0BD0D70000
0EB3F20000
1F99A00000
2FAF300000
3FFA000000
3FE2021000
1FA02D5000
0BFAEC1000
03DEA10000
ENDCHAR
STARTCHAR uni013B
ENCODING 315
SWIDTH 673 0
DWIDTH 9 0
BBX 13 17 -1 -4
BITMAP
000003AEEB2000
00004FFBBFD000
0001EF400BF300
0006FA0009F400
0009F60009E100
000BF400001000
000CF300000000
000DF100000000
000EF000000000
000ED000000200
1BEFE940002E30
8FFFFFFEAAEA00
3DE9149DFE8000
00000000000000
00004E20000000
00007F20000000
00006B00000000
ENDCHAR
STARTCHAR uni013C
ENCODING 316
SWIDTH 326 0
DWIDTH 5 0
BBX 7 19 0 -5
BITMAP
0008E600
006FDD00
00DA6F00
03F57D00
08F19B00
0BD0D700
0EB3F200
1F99A000
2FAF3000
3FFA0000
3FE20210
1FA02D50
0BFAEC10
03DEA100
00000000
03E20000
06F30000
07E00000
06900000
ENDCHAR
STARTCHAR Lcaron
ENCODING 317
SWIDTH 673 0
DWIDTH 9 0
BBX 14 13 -1 0
BITMAP
000003AEEB2000
00004FFBBFD020
0001EF400BF5F6
0006FA0009F7F4
0009F60009E4C0
000BF400001000
000CF300000000
000DF100000000
000EF000000000
000ED000000200
1BEFE940002E30
8FFFFFFEAAEA00
3DE9149DFE8000
ENDCHAR
STARTCHAR lcaron
ENCODING 318
SWIDTH 237 0
DWIDTH 3 0
BBX 7 14 0 0
BITMAP
00000200
009D8F10
00FDAD00
03FA9700
06F70000
09F40000
0BF10000
0ED00000
1FA00000
3F800000
5F604000
6F54F100
4FCE9000
0BE80000
ENDCHAR
STARTCHAR Ldot
ENCODING 319
SWIDTH 673 0
DWIDTH 9 0
BBX 13 13 -1 0
BITMAP
000003AEEB2000
00004FFBBFD000
0001EF400BF300
0006FA0009F400
0009F60009E100
000BF401001000
000CF35FD00000
000DF15EA00000
000EF000000000
000ED000000200
1BEFE940002E30
8FFFFFFEAAEA00
3DE9149DFE8000
ENDCHAR
STARTCHAR ldot
ENCODING 320
SWIDTH 363 0
DWIDTH 5 0
BBX 7 14 0 0
BITMAP
004E4000
00AF3000
00DF0000
02FC0000
05F80000
08F50000
0BF7E700
0DE9F800
1FB14000
3F800000
4F800030
4FA007D0
1EFACF50
04CEC400
ENDCHAR
STARTCHAR Lslash
ENCODING 321
SWIDTH 673 0
DWIDTH 9 0
BBX 13 15 -1 0
BITMAP
000017BDEFD500
00007DBA999400
000003AEEB2000
00004EFBBFD000
0001EF300BF300
0006FA0009F400
0009F6000AE100
000BF400012000
000CF300000000
000DF100000000
000EF000000000
000ED000000200
1BEFE940002E30
8FFFFFFEAAEA00
3DE9149DFE8000
ENDCHAR
STARTCHAR lslash
ENCODING 322
SWIDTH 326 0
DWIDTH 5 0
BBX 9 15 0 0
BITMAP
0038CEFC20
01FEB99910
001AE60000
008FDD0000
01E96F0000
06F37D0000
0BE0AA0000
0EB1E40000
1F97D00000
3F9E500000
3FFB000000
2FE2021000
1FA02D5000
0BFAEC1000
02DEA10000
ENDCHAR
STARTCHAR Nacute
ENCODING 323
SWIDTH 884 0
DWIDTH 12 0
BBX 15 17 0 0
BITMAP
0000000001610000
000000001CF60000
00000002DF910000
00000009B3000000
03BEA007DEA00000
3ECEF28EAEF60000
D90AF5E207F90000
800BFB6007F80000
000CFD000AF60000
000EF8000DF30000
001FF3001FF00000
003FE0004FC00000
005FB0006F900000
007F80008F700200
009F60008F803E20
00AF40004FEAEA00
008E100007EE8000
ENDCHAR
STARTCHAR nacute
ENCODING 324
SWIDTH 496 0
DWIDTH 7 0
BBX 9 13 0 0
BITMAP
0000035000
00000DE000
00004F7000
0000BB0000
0000D20000
0000000000
08D09E4000
0EB9FF6000
2FAEAF4000
3FE79F1030
4FF1BE09B0
4FB0CFBF40
1D606EC400
ENDCHAR
STARTCHAR uni0145
ENCODING 325
SWIDTH 884 0
DWIDTH 12 0
BBX 15 17 0 -4
BITMAP
03BEA007DEA00000
3ECEF28EAEF60000
D90AF5E207F90000
800BFB6007F80000
000CFD000AF60000
000EF8000DF30000
001FF3001FF00000
003FE0004FC00000
005FB0006F900000
007F80008F700200
009F60008F803E20
00AF40004FEAEA00
008E100007EE8000
0000000000000000
00000B9000000000
00000E9000000000
00000D4000000000
ENDCHAR
STARTCHAR uni0146
ENCODING 326
SWIDTH 496 0
DWIDTH 7 0
BBX 9 12 0 -5
BITMAP
08D09E4000
0EB9FF6000
2FAEAF4000
3FE79F1030
4FF1BE09B0
4FB0CFBF40
1D606EC400
0000000000
007D000000
00AE000000
00AB000000
0095000000
ENDCHAR
STARTCHAR Ncaron
ENCODING 327
SWIDTH 884 0
DWIDTH 12 0
BBX 15 17 0 0
BITMAP
0000006105300000
000001F74F500000
0000009DDA000000
0000001DB1000000
03BEA007DEA00000
3ECEF28EAEF60000
D90AF5E207F90000
800BFB6007F80000
000CFD000AF60000
000EF8000DF30000
001FF3001FF00000
003FE0004FC00000
005FB0006F900000
007F80008F700200
009F60008F803E20
00AF40004FEAEA00
008E100007EE8000
ENDCHAR
STARTCHAR ncaron
ENCODING 328
SWIDTH 496 0
DWIDTH 7 0
BBX 9 13 0 0
BITMAP
003E22D400
003F48E100
000F7E7000
000CEE1000
0006E50000
0000000000
08D09E4000
0EB9FF6000
2FAEAF4000
3FE79F1030
4FF1BE09B0
4FB0CFBF40
1D606EC400
ENDCHAR
STARTCHAR napostrophe
ENCODING 329
SWIDTH 496 0
DWIDTH 7 0
BBX 9 12 0 0
BITMAP
B800000000
F900000000
F600000000
D100000000
0000000000
08D09E4000
0EB9FF6000
2FAEAF4000
3FE79F1030
4FF1BE09B0
4FB0CFBF40
1D606EC400
ENDCHAR
STARTCHAR Eng
ENCODING 330
SWIDTH 884 0
DWIDTH 12 0
BBX 15 18 0 -5
BITMAP
03BEA007DEA00000
3ECEF28EAEF50000
D90AF6E208F80000
800BFB6008F70000
000CFD000AF50000
000EF8000DF20000
001FF3001FE00000
003FE0004FB00000
005FB0007F800000
007F8000AF500200
009F6000DF202E20
00BF4001FFDAEA00
007E1004FDEE8000
00000008F5000000
0000000CE1000000
007C204F90000000
006FEAEE10000000
0006DFB200000000
ENDCHAR
STARTCHAR eng
ENCODING 331
SWIDTH 495 0
DWIDTH 7 0
BBX 9 13 0 -6
BITMAP
08D09E4000
0EB9FF6000
2FAEAF4000
3FE79F1030
4FF1BD09A0
4FB0DDCF30
1D61FFC400
0004F20000
0008D00000
470D800000
8D5F200000
3EF6000000
0120000000
ENDCHAR
STARTCHAR Omacron
ENCODING 332
SWIDTH 816 0
DWIDTH 11 0
BBX 12 15 0 0
BITMAP
000019998000
00004FFFE000
00006CEE9100
001BFDADFD10
009F9000BF90
03FD00003FE0
09F600000FF1
0DF200000EF2
0FF000000FF1
1FF000002FE0
1FF100005FA0
0DF40000CF40
08FB1008FA00
01DFDADFC100
0019DEC70000
ENDCHAR
STARTCHAR omacron
ENCODING 333
SWIDTH 451 0
DWIDTH 6 0
BBX 9 10 0 0
BITMAP
0399970000
06FFFB0000
0000000000
02BEC20000
0DFCFC0000
5F75FFAC10
7F40CFEB10
7F50CC0000
3FEBF50000
06EE700000
ENDCHAR
STARTCHAR Obreve
ENCODING 334
SWIDTH 816 0
DWIDTH 11 0
BBX 12 16 0 0
BITMAP
0000AA007C00
0000AFBBFA00
00001AEE9100
00006CEE9100
001BFDADFD10
009F9000BF90
03FD00003FE0
09F600000FF1
0DF200000EF2
0FF000000FF1
1FF000002FE0
1FF100005FA0
0DF40000CF40
08FB1008FA00
01DFDADFC100
0019DEC70000
ENDCHAR
STARTCHAR obreve
ENCODING 335
SWIDTH 451 0
DWIDTH 6 0
BBX 9 12 0 0
BITMAP
0520034000
0EA00DA000
0BFBCF5000
01AED60000
0000000000
02BEC20000
0DFCFC0000
5F75FFAC10
7F40CFEB10
7F50CC0000
3FEBF50000
06EE700000
ENDCHAR
STARTCHAR Ohungarumlaut
ENCODING 336
SWIDTH 816 0
DWIDTH 11 0
BBX 12 17 0 0
BITMAP
000001604300
000006F3DB00
00000AC3F600
00000C44B000
00006CEE9100
001BFDADFD10
009F9000BF90
03FD00003FE0
09F600000FF1
0DF200000EF2
0FF000000FF1
1FF000002FE0
1FF100005FA0
0DF40000CF40
08FB1008FA00
01DFDADFC100
0019DEC70000
ENDCHAR
STARTCHAR ohungarumlaut
ENCODING 337
SWIDTH 451 0
DWIDTH 6 0
BBX 9 13 0 0
BITMAP
0006226000
003F8AF100
008F3EA000
00C94F2000
00D1780000
0000000000
02BEC20000
0DFCFC0000
5F75FFAC10
7F40CFEB10
7F50CC0000
3FEBF50000
06EE700000
ENDCHAR
STARTCHAR OE
ENCODING 338
SWIDTH 1124 0
DWIDTH 16 0
BBX 18 13 0 0
BITMAP
00006CEEA22CFFFF80
001BFDADFEBFB99930
009F9000BFFF100000
03FD00003FFD000000
09F700000FFB000000
0DF300000EF8000000
0FF000000FFFFFF800
1FF000002FFA999300
1FF100005FF0000000
0DF40000CFF1000000
08FB1008FFF7000174
01DFDADFC5FFCABEF4
0019DFD7004BEFD930
ENDCHAR
STARTCHAR oe
ENCODING 339
SWIDTH 668 0
DWIDTH 9 0
BBX 12 7 0 0
BITMAP
02BEA2BE9000
0DEBFFECF300
5F70CF45F200
7F40BF8E9030
7F50DFB406F2
3FDCFFEADF90
06EE54DFC500
ENDCHAR
STARTCHAR Racute
ENCODING 340
SWIDTH 880 0
DWIDTH 12 0
BBX 15 17 0 0
BITMAP
0000000004400000
000000006FD00000
00000008FD400000
0000002D60000000
00005BDFD8100000
000AFDAAFFB00000
009F60103FF30000
03F70CD00CF50000
09E02FC00EF20000
0EA05FA08FA00000
1F63CFCCFA100000
3F56FFFF90000000
3F50CF4DF5000000
2F60EF06FC000400
0DA1FD00DF503F10
07FCFA006FEAE900
008ED30008EE7000
ENDCHAR
STARTCHAR racute
ENCODING 341
SWIDTH 455 0
DWIDTH 6 0
BBX 9 13 0 0
BITMAP
0000053000
00003FA000
00009F3000
0001E70000
0004B00000
0000000000
08D09E4000
0EB8FF6000
2FAEBF4420
3FE87FDF40
4FF12DE600
4FC0000000
1D60000000
ENDCHAR
STARTCHAR uni0156
ENCODING 342
SWIDTH 880 0
DWIDTH 12 0
BBX 15 17 0 -4
BITMAP
00005BDFD8100000
000AFDAAFFB00000
009F60103FF30000
03F70CD00CF50000
09E02FC00EF20000
0EA05FA08FA00000
1F63CFCCFA100000
3F56FFFF90000000
3F50CF4DF5000000
2F60EF06FC000400
0DA1FD00DF503F10
07FCFA006FEAE900
008ED30008EE7000
0000000000000000
000000C800000000
000000F800000000
000000E300000000
ENDCHAR
STARTCHAR uni0157
ENCODING 343
SWIDTH 455 0
DWIDTH 6 0
BBX 9 12 0 -5
BITMAP
08D09E4000
0EB8FF6000
2FAEBF4420
3FE87FDF40
4FF12DE600
4FC0000000
1D60000000
0000000000
3E30000000
6F30000000
6E00000000
5900000000
ENDCHAR
STARTCHAR Rcaron
ENCODING 344
SWIDTH 880 0
DWIDTH 12 0
BBX 15 17 0 0
BITMAP
0000044026000000
000009E0CC000000
000002FAE2000000
0000008E50000000
00005BDFD8100000
000AFDAAFFB00000
009F60103FF30000
03F70CD00CF50000
09E02FC00EF20000
0EA05FA08FA00000
1F63CFCCFA100000
3F56FFFF90000000
3F50CF4DF5000000
2F60EF06FC000400
0DA1FD00DF503F10
07FCFA006FEAE900
008ED30008EE7000
ENDCHAR
STARTCHAR rcaron
ENCODING 345
SWIDTH 455 0
DWIDTH 6 0
BBX 9 13 0 0
BITMAP
007B05E000
008F0DB000
004F6F3000
001FEA0000
000BD20000
0000000000
08D09E4000
0EB8FF6000
2FAEBF4420
3FE87FDF40
4FF12DE600
4FC0000000
1D60000000
ENDCHAR
STARTCHAR Sacute
ENCODING 346
SWIDTH 693 0
DWIDTH 10 0
BBX 10 17 0 0
BITMAP
0000000053
00000009FA
000000AFB2
000005C400
0007CEEB40
00BFDAAFF4
04FB0004FA
07F70002FA
06FC1001C5
01EFD61000
003CFFE600
00005CFF90
2B20006FF1
7F50000CF2
7F70002EE0
2EFBABEF60
029DFDB400
ENDCHAR
STARTCHAR sacute
ENCODING 347
SWIDTH 427 0
DWIDTH 6 0
BBX 9 13 -1 0
BITMAP
0000016000
000009F300
00001EC000
00006E2000
0000A50000
0000000000
0004E40000
000CF00000
004FF40000
00CAEE1150
08D18F7BB0
1E5EFFFF40
011CFFD500
ENDCHAR
STARTCHAR Scircumflex
ENCODING 348
SWIDTH 693 0
DWIDTH 10 0
BBX 10 17 0 0
BITMAP
000008E600
00005FDE00
0001DC5F40
0003E31D50
0007CEEB40
00BFDAAFF4
04FB0004FA
07F70002FA
06FC1001C5
01EFD61000
003CFFE600
00005CFF90
2B20006FF1
7F50000CF2
7F70002EE0
2EFBABEF60
029DFDB400
ENDCHAR
STARTCHAR scircumflex
ENCODING 349
SWIDTH 427 0
DWIDTH 6 0
BBX 9 13 -1 0
BITMAP
00008E2000
0004FE7000
000CBBB000
005F49E000
008B05D000
0000000000
0004E40000
000CF00000
004FF40000
00CAEE1150
08D18F7BB0
1E5EFFFF40
011CFFD500
ENDCHAR
STARTCHAR Scedilla
ENCODING 350
SWIDTH 693 0
DWIDTH 10 0
BBX 10 17 0 -4
BITMAP
0007CEEB40
00BFDAAFF4
04FB0004FA
07F70002FA
06FD2001C5
01EFE82000
003CFFF910
00005CFFA0
2B20006FF2
7F50000CF2
6F70002ED0
1CFBABED30
005FFE6100
00007F2000
00007F1000
00CFFA0000
0069600000
ENDCHAR
STARTCHAR scedilla
ENCODING 351
SWIDTH 427 0
DWIDTH 6 0
BBX 9 12 -1 -5
BITMAP
0004E40000
000CF10000
003FF10000
00AFFA0000
05F5DF3390
1E918F8D70
062FFFD700
004FF90000
0001BC0000
0013CA0000
02FFE30000
0034100000
ENDCHAR
STARTCHAR Scaron
ENCODING 352
SWIDTH 693 0
DWIDTH 10 0
BBX 10 17 0 0
BITMAP
0000520350
0000CA1E90
00005FBD10
00000BD300
0007CEEB40
00BFDAAFF4
04FB0004FA
07F70002FA
06FC1001C5
01EFD61000
003CFFE600
00005CFF90
2B20006FF1
7F50000CF2
7F70002EE0
2EFBABEF60
029DFDB400
ENDCHAR
STARTCHAR scaron
ENCODING 353
SWIDTH 427 0
DWIDTH 6 0
BBX 9 13 -1 0
BITMAP
000D50B800
000E94F500
000ABBC000
0007EF4000
0002E80000
0000000000
0004E40000
000CF00000
004FF40000
00CAEE1150
08D18F7BB0
1E5EFFFF40
011CFFD500
ENDCHAR
STARTCHAR uni0162
ENCODING 354
SWIDTH 697 0
DWIDTH 10 0
BBX 13 17 0 -4
BITMAP
0059CEEFFFFD50
0BFDABFD99AA50
5F7006F9000000
7F3009F6000000
2E500CF3000000
00000FF1000000
00002FD0000000
00005FB0000000
00007F80000000
00009F60000000
0000BF50000000
0003EF20000000
0006FF60000000
00001CB0000000
00001D90000000
004FFF30000000
00188300000000
ENDCHAR
STARTCHAR uni0163
ENCODING 355
SWIDTH 393 0
DWIDTH 6 0
BBX 8 17 0 -4
BITMAP
0005E900
002FDF10
009D4F10
00E86D00
04F6D600
07FBB000
DFFFFF30
8DF99700
0BE00000
0BF00010
09F301D4
05FC8DD1
01EFFC10
02AEB000
0007E000
08AEB000
0DFB2000
ENDCHAR
STARTCHAR Tcaron
ENCODING 356
SWIDTH 697 0
DWIDTH 10 0
BBX 13 17 0 0
BITMAP
00000430250000
00000BC1DA0000
000004FAE10000
0000009D400000
0049CEEFFFFD50
0AFDABFD99AA50
5F7006F9000000
7F3009F6000000
4F600CF4000000
05100EF2000000
00001FE0000000
00004FC0000000
00006FA0000000
00008F80000000
0000AF60000000
0000BF40000000
00009D20000000
ENDCHAR
STARTCHAR tcaron
ENCODING 357
SWIDTH 343 0
DWIDTH 5 0
BBX 7 14 0 0
BITMAP
00000200
00001F70
00363F40
00CF3D00
01FC0000
04F90000
5BFB8400
BFFFE500
0CF00000
0ED00000
0FB00130
0ED00B80
0BFBDE20
02CEB200
ENDCHAR
STARTCHAR Tbar
ENCODING 358
SWIDTH 697 0
DWIDTH 10 0
BBX 13 13 0 0
BITMAP
0039BDEFFFFD50
09FDABFD99AA50
4F8006F9000000
7F3008F7000000
5F600BF4000000
09200DF2000000
004EFFFFE30000
0039BFE9810000
00005FA0000000
00007F80000000
0000AF60000000
0000BF50000000
00009D20000000
ENDCHAR
STARTCHAR tbar
ENCODING 359
SWIDTH 343 0
DWIDTH 5 0
BBX 7 12 0 0
BITMAP
00360000
00CF1000
01FC0000
04F90000
5BFB8400
BFFFE500
0CF00000
EFFFE000
9FE96120
0FC00B80
0CFACE20
03CEB200
ENDCHAR
STARTCHAR Utilde
ENCODING 360
SWIDTH 890 0
DWIDTH 12 0
BBX 15 16 0 0
BITMAP
000006E806B00000
00001EDFBE900000
00003D14DC100000
03BEC10002E70000
3ECDF70005FA0000
DA07F80007F80000
9108F70009F60000
000BF4000CF40000
000EF2001FF20000
002FD0005FF00000
005FA000AFD00000
008F7001EFB00000
00AF5009BF900310
00BF607E6FB04E30
008FFEF52FFEFA00
001BED5007EE8000
ENDCHAR
STARTCHAR utilde
ENCODING 361
SWIDTH 462 0
DWIDTH 6 0
BBX 9 11 0 0
BITMAP
0046005100
04FEC6F300
09919E7000
0000000000
07E04E1000
0DC0AE0000
2F90EC0000
4F75F90210
5F8DF72E30
4FFBFDEB00
0BD2BE9000
ENDCHAR
STARTCHAR Umacron
ENCODING 362
SWIDTH 890 0
DWIDTH 12 0
BBX 15 15 0 0
BITMAP
0000049996000000
000008FFFA000000
03BEC10002E70000
3ECDF70005FA0000
DA07F80007F80000
9108F70009F60000
000BF4000CF40000
000EF2001FF20000
002FD0005FF00000
005FA000AFD00000
008F7001EFB00000
00AF5009BF900310
00BF607E6FB04E30
008FFEF52FFEFA00
001BED5007EE8000
ENDCHAR
STARTCHAR umacron
ENCODING 363
SWIDTH 462 0
DWIDTH 6 0
BBX 9 10 0 0
BITMAP
0089992000
01EFFF3000
0000000000
07E04E1000
0DC0AE0000
2F90EC0000
4F75F90210
5F8DF72E30
4FFBFDEB00
0BD2BE9000
ENDCHAR
STARTCHAR Ubreve
ENCODING 364
SWIDTH 890 0
DWIDTH 12 0
BBX 15 16 0 0
BITMAP
00001D600B800000
00000EEACF600000
000003CFD7000000
03BEC10002E70000
3ECDF70005FA0000
DA07F80007F80000
9108F70009F60000
000BF4000CF40000
000EF2001FF20000
002FD0005FF00000
005FA000AFD00000
008F7001EFB00000
00AF5009BF900310
00BF607E6FB04E30
008FFEF52FFEFA00
001BED5007EE8000
ENDCHAR
STARTCHAR ubreve
ENCODING 365
SWIDTH 462 0
DWIDTH 6 0
BBX 9 12 0 0
BITMAP
0250006000
08F207F200
04FDAFC000
006DEA1000
0000000000
07E04E1000
0DC0AE0000
2F90EC0000
4F75F90210
5F8DF72E30
4FFBFDEB00
0BD2BE9000
ENDCHAR
STARTCHAR Uring
ENCODING 366
SWIDTH 890 0
DWIDTH 12 0
BBX 15 18 0 0
BITMAP
0000001860000000
000000BFF7000000
000001F5AA000000
000000ECE8000000
0000006EB1000000
03BEC10002E70000
3ECDF70005FA0000
DA07F80007F80000
9108F70009F60000
000BF4000CF40000
000EF2001FF20000
002FD0005FF00000
005FA000AFD00000
008F7001EFB00000
00AF5009BF900310
00BF607E6FB04E30
008FFEF52FFEFA00
001BED5007EE8000
ENDCHAR
STARTCHAR uring
ENCODING 367
SWIDTH 462 0
DWIDTH 6 0
BBX 9 13 0 0
BITMAP
0004830000
003FFE1000
007D3F3000
006FBF1000
001BE60000
0000000000
07E04E1000
0DC0AE0000
2F90EC0000
4F75F90210
5F8DF72E30
4FFBFDEB00
0BD2BE9000
ENDCHAR
STARTCHAR Uhungarumlaut
ENCODING 368
SWIDTH 890 0
DWIDTH 12 0
BBX 15 17 0 0
BITMAP
0000002506200000
000000AE2F700000
000000E87F200000
000002D187000000
03BEC10002E70000
3ECDF70005FA0000
DA07F80007F80000
9108F70009F60000
000BF4000CF40000
000EF2001FF20000
002FD0005FF00000
005FA000AFD00000
008F7001EFB00000
00AF5009BF900310
00BF607E6FB04E30
008FFEF52FFEFA00
001BED5007EE8000
ENDCHAR
STARTCHAR uhungarumlaut
ENCODING 369
SWIDTH 462 0
DWIDTH 6 0
BBX 9 13 0 0
BITMAP
0003506200
000CE4F700
001F98F200
006E1D9000
00870D1000
0000000000
07E04E1000
0DC0AE0000
2F90EC0000
4F75F90210
5F8DF72E30
4FFBFDEB00
0BD2BE9000
ENDCHAR
STARTCHAR Uogonek
ENCODING 370
SWIDTH 890 0
DWIDTH 12 0
BBX 15 17 0 -4
BITMAP
03BEC10002E70000
3ECDF60005FA0000
CA07F80007F90000
9108F70009F70000
000BF5000CF40000
000EF2000FF20000
002FE0004FF00000
005FB0009FD00000
008F8001EFB00000
00AF5007CF900100
00BF504E6FA02D30
008FDAF63FFAEA00
001BED6008EE6000
0000000001E60000
0000000004F72000
0000000001DFF600
0000000000043000
ENDCHAR
STARTCHAR uogonek
ENCODING 371
SWIDTH 462 0
DWIDTH 6 0
BBX 9 11 0 -4
BITMAP
07E04E1000
0DC0AE0000
2F90EC0000
4F75F90210
5F8DF72E30
4FFBFDE900
0BD2CE6000
0004E20000
0008E21000
0004FFE000
0000141000
ENDCHAR
STARTCHAR Wcircumflex
ENCODING 372
SWIDTH 1217 0
DWIDTH 17 0
BBX 18 17 1 0
BITMAP
00000000AE40000000
00000007FDB0000000
0000002FA7F2000000
0000006D22E3000000
09D10002E7001BEA00
0EF10007F900AECF40
1FF0000AF700F74F60
3FD0000DF501F55F50
4FC0001FF500F88F30
4FB0005FF400BEDE00
5FA0009FF4002EFEA8
4FB000DFF40008FDED
3FB004FBF5001EC000
1FE00BE5F6009F4000
0DF47F71FC17F90000
07FFFC00BFFFC00000
00AEA1003DE9100000
ENDCHAR
STARTCHAR wcircumflex
ENCODING 373
SWIDTH 700 0
DWIDTH 10 0
BBX 12 13 0 0
BITMAP
00001CB00000
00009EF10000
0003F6F50000
000AD0F80000
000E60B70000
000000000000
3E408C04E600
4F61EE0CF900
4F66FE0BFCB8
3F7CFF1EEED5
2FBFAFAF2000
1FFC6FF80000
0AE32EA00000
ENDCHAR
STARTCHAR Ycircumflex
ENCODING 374
SWIDTH 851 0
DWIDTH 12 0
BBX 14 22 0 -5
BITMAP
0000001BD30000
0000009EE90000
000004F79E0000
000008C14E1000
03BEC10002E800
3ECDF70005FA00
DA07F80007F800
8009F7000AF600
000BF4000DF400
000EF2002FF200
002FD0008FF000
004FB001EFD000
004FB00BAFB000
001EFADD4FA583
0005DEA38FFFF4
0000018EFF9410
00003DFABF3000
0001ED30CE0000
0007F402FA0000
0009F42CF30000
0005FFFF600000
00004883000000
ENDCHAR
STARTCHAR ycircumflex
ENCODING 375
SWIDTH 479 0
DWIDTH 7 0
BBX 9 20 0 -7
BITMAP
0003E80000
000CED0000
006F7F2000
00DA3F5000
02E31D5000
0000000000
07E04E1000
0DC0AF0000
2F90ED0000
4F75FA0300
5F8DF87F30
4FFDFEF700
0BD7FD3000
003EF20000
03EED00000
1D7DA00000
9B2F600000
E68E100000
FCF8000000
8EA1000000
ENDCHAR
STARTCHAR Ydieresis
ENCODING 376
SWIDTH 851 0
DWIDTH 12 0
BBX 14 21 0 -5
BITMAP
00000010010000
000007F68F5000
000006E47E3000
03BEC10002E800
3ECDF70005FA00
DA07F80007F800
8009F7000AF600
000BF4000DF400
000EF2002FF200
002FD0008FF000
004FB001EFD000
004FB00BAFB000
001EFADD4FA583
0005DEA38FFFF4
0000018EFF9410
00003DFABF3000
0001ED30CE0000
0007F402FA0000
0009F42CF30000
0005FFFF600000
00004883000000
ENDCHAR
STARTCHAR Zacute
ENCODING 377
SWIDTH 721 0
DWIDTH 10 0
BBX 12 17 0 0
BITMAP
000000003500
00000005FF00
0000006FD500
000001E71000
004ADFEEC940
07FEA9ACFFC0
1FC10005FD10
2F80000DF500
0EB0007FB000
033001EF3000
000009F90000
00004FE10000
0001DF700000
0009FC000003
3CFFFA30006D
BFFFFFFDACF5
6ED716BEFC50
ENDCHAR
STARTCHAR zacute
ENCODING 378
SWIDTH 445 0
DWIDTH 6 0
BBX 8 13 0 0
BITMAP
00000620
00004F80
0000AE20
0002F600
00059000
00000000
1FFFFF80
089DFF50
01AFA200
0BF60005
1FD0008E
0EFBADF6
03BEEB40
ENDCHAR
STARTCHAR Zdotaccent
ENCODING 379
SWIDTH 721 0
DWIDTH 10 0
BBX 12 16 0 0
BITMAP
000000200000
000008FA0000
000008F70000
004ADFEEC940
07FEA9ACFFC0
1FC10005FD10
2F80000DF500
0EB0007FB000
033001EF3000
000009F90000
00004FE10000
0001DF700000
0009FC000003
3CFFFA30006D
BFFFFFFDACF5
6ED716BEFC50
ENDCHAR
STARTCHAR zdotaccent
ENCODING 380
SWIDTH 445 0
DWIDTH 6 0
BBX 8 11 0 0
BITMAP
00001000
001DF400
001DD200
00000000
1FFFFF80
089DFF50
01AFA200
0BF60005
1FD0008E
0EFBADF6
03BEEB40
ENDCHAR
STARTCHAR Zcaron
ENCODING 381
SWIDTH 721 0
DWIDTH 10 0
BBX 12 17 0 0
BITMAP
000035016000
00007F1AD000
00001EAF4000
000006E70000
004ADFEEC940
07FEA9ACFFC0
1FC10005FD10
2F80000DF500
0EB0007FB000
033001EF3000
000009F90000
00004FE10000
0001DF700000
0009FC000003
3CFFFA30006D
BFFFFFFDACF5
6ED716BEFC50
ENDCHAR
STARTCHAR zcaron
ENCODING 382
SWIDTH 445 0
DWIDTH 6 0
BBX 8 13 0 0
BITMAP
008A06D0
009D0E90
006F6F20
002FE800
000CC100
00000000
1FFFFF80
089DFF50
01AFA200
0BF60005
1FD0008E
0EFBADF6
03BEEB40
ENDCHAR
STARTCHAR uni018F
ENCODING 399
SWIDTH 792 0
DWIDTH 11 0
BBX 11 13 0 0
BITMAP
0005BEEC6000
008FEABFF800
01F91003FF30
005000009F90
000000005FB0
000000004FC0
06999999BFB0
1FFFFFFFFF90
2FE00000AF50
0FF10002EE10
0AF8001BF600
02EFCADF9000
002AEEC50000
ENDCHAR
STARTCHAR florin
ENCODING 402
SWIDTH 478 0
DWIDTH 7 0
BBX 9 16 -1 -4
BITMAP
0000038920
00006FFF50
0000DF3000
0001FB0000
0003F90000
05FFFFFD00
039CFB9500
0008F40000
000AF20000
000CF10000
000EE00000
000FC00000
002FA00000
005F800000
6AEF300000
BFD5000000
ENDCHAR
STARTCHAR Ohorn
ENCODING 416
SWIDTH 816 0
DWIDTH 11 0
BBX 12 15 0 0
BITMAP
00000000007D
0000000002DE
00006CEFFFF7
001BFDADFF80
009F9000BF90
03FD00003FE0
09F600000FF1
0DF200000EF2
0FF000000FF1
1FF000002FE0
1FF100005F90
0DF40000CF40
08FB1008FA00
01DFDADFC100
0019DEC70000
ENDCHAR
STARTCHAR ohorn
ENCODING 417
SWIDTH 451 0
DWIDTH 6 0
BBX 9 9 0 0
BITMAP
000004D000
00000AE000
02BFFF7000
0DFCFC0000
5F75FFAC10
7F40CFEB10
7F50CC0000
3FEBF50000
06EE700000
ENDCHAR
STARTCHAR Uhorn
ENCODING 431
SWIDTH 890 0
DWIDTH 12 0
BBX 15 15 0 0
BITMAP
0000000000009A00
000000000003EC00
03BEC10002EFF700
3ECDF70005FE8000
DA07F80007F90000
9108F70009F70000
000BF4000CF40000
000EF2001FF20000
002FD0005FF00000
005FA000AFD00000
008F7001EFB00000
00AF5009BF900310
00BF607E6FB04E30
008FFEF52FFEFA00
001BED5007EE8000
ENDCHAR
STARTCHAR uhorn
ENCODING 432
SWIDTH 512 0
DWIDTH 7 0
BBX 9 9 0 0
BITMAP
0000005C00
000000BC00
07E04EF500
0DC0AE4000
2F90EC0000
4F75F90030
5F8DF706E0
4FFBFDBF60
0BD29EC400
ENDCHAR
STARTCHAR uni01C4
ENCODING 452
SWIDTH 1531 0
DWIDTH 21 0
BBX 23 17 1 0
BITMAP
000000000000001600520000
000000000000002F65F40000
000000000000000ACD900000
0000000000000002DB100000
029DFEB5000028CEFEDA7000
0BEBACFF9003EFBAABEFF200
0100003EF50AF30001EF5000
04D50006FB0CD00008FA0000
0AF50002FF09F2002FF20000
0DF10000FF115000AF800000
1FD00001FF000004FE100000
4FA00003FD00001DF6000000
7F800008F800009FC0000000
9F60002EF30003FF30000210
BF5003DF801AEFFD40002E30
CFBACFF8006FFFFFFEAAEA00
8DFEC930002DEA249DFE8000
ENDCHAR
STARTCHAR uni01C5
ENCODING 453
SWIDTH 1191 0
DWIDTH 17 0
BBX 17 13 1 0
BITMAP
029DFEB50000D50B80
0BEBACFF9000E94F50
0100003EF500ABBC00
04D50006FB007EF400
0AF50002FF002E8000
0DF10000FF10000000
1FD00001FF5FFFFD00
4FA00003FD29AFFA00
7F800008F801CF6000
9F60002EF31CF50000
BF5003DF808F600000
CFBACFF800EF999700
8DFEC93000DFFFFD00
ENDCHAR
STARTCHAR uni01C6
ENCODING 454
SWIDTH 895 0
DWIDTH 13 0
BBX 15 13 0 0
BITMAP
000007E24D13E300
00000BF15F3AD000
00000DE01F8F6000
00000FB00DFC0000
00002F8007D30000
00004F5000000000
006DEF3BFFFFC000
06FDDF08BCFF8000
1ED1CD005EB30000
6F60FB06F8000310
7F45F92EF3005E40
5FDEEEEFFECEFA00
0BE84EA29EFC7000
ENDCHAR
STARTCHAR uni01C7
ENCODING 455
SWIDTH 1276 0
DWIDTH 18 0
BBX 20 15 -1 -2
BITMAP
000004BEE70017CEEC80
00005FEADF50CFCADFF1
0001EF304FA5F7009F60
0006FA003FA8F200AF40
0009F6003F67F500CF20
000BF4000101A200EF00
000CF30000000017FD00
000DF100000005EFFA00
000EF00000008FA7F700
000ED0000007F709F300
1BEFE940002EB00DD000
8FFFFFFEAAEF605F7000
3DE9149DFEDF82DE1000
00000000002EFFF40000
00000000000388200000
ENDCHAR
STARTCHAR uni01C8
ENCODING 456
SWIDTH 927 0
DWIDTH 13 0
BBX 16 20 -1 -7
BITMAP
000003AEEB200000
00004FFBBFC00000
0001EF400BF30000
0006FA0009F8EA00
0009F6000AF8FB00
000BF40002402000
000CF3000004E400
000DF1000007F400
000EF0000009F200
000ED000000AF011
1BEFE940002DD2D7
8FFFFFFEABEFDEA1
3DE9149DFEAFF600
0000000000AF7000
000000000BEF3000
000000009B9E0000
00000004E1DA0000
00000009A3F50000
0000000BEDD00000
00000004ED300000
ENDCHAR
STARTCHAR uni01C9
ENCODING 457
SWIDTH 610 0
DWIDTH 9 0
BBX 10 21 0 -7
BITMAP
0008E60000
006FDD0000
00DA6F0000
03F57D0000
08F19BAE40
0BD0D7EF40
0EB3F21100
1F9AA0AC00
2FAF30EC00
3FFA01FA00
3FE103F803
1FA02DF79F
0BFAEFFEE5
03DEA9FC20
00004EF000
0004EEC000
002E6F8000
00B94F4000
01F4AD0000
02FCF70000
00AE900000
ENDCHAR
STARTCHAR uni01CA
ENCODING 458
SWIDTH 1497 0
DWIDTH 21 0
BBX 22 15 0 -2
BITMAP
03BEB007DEA0006BDFEDA1
4FBEF29EAEF60BFDA9CFC1
E80AF6E207F95F80008F70
500BFC6007F87F40009F50
000CFD000AF64F7000BF30
000EF8000DF3061000DF10
001FF3001FF0000029FE00
003FE0004FC00007FFFB00
005FB0006F9000AF96F700
007F80008F7007F708F300
009F60008F803EC00CE000
00AF40004FEAEF703F8000
008E100007EECF91CE1000
0000000000001EFFF50000
0000000000000288300000
ENDCHAR
STARTCHAR uni01CB
ENCODING 459
SWIDTH 1138 0
DWIDTH 16 0
BBX 18 20 0 -7
BITMAP
02AEA006DEA0000000
1DCEF26EAEF6000000
AB0AF4D207F9000000
E20BFA6007F805E900
200CFC000AF608FA00
000EF8000DF3002000
001FF3001FF004F300
003FE0004FC008F300
005FB0006F900AF100
007F80008F700BE011
009F60008F802EC3D6
00AF40004FEAEFEEB1
008E100007EEAFF700
000000000001BF6000
00000000001CEF3000
0000000000ABAE0000
0000000004E1DA0000
000000000A94F50000
000000000BDDC00000
0000000005EC200000
ENDCHAR
STARTCHAR uni01CC
ENCODING 460
SWIDTH 750 0
DWIDTH 11 0
BBX 12 17 0 -7
BITMAP
00000000BE40
00000000EF40
000000001100
08D09E40AC00
0EB9FF60EC00
2FAEAF41FA00
3FE79F13F803
4FF1BE09F69E
4FB0CFBFFEE4
1D606ECBFC20
0000005FE000
000005EFB000
00003E6F7000
0000B95F3000
0002F3BD0000
0003FCF60000
0000AE800000
ENDCHAR
STARTCHAR Gcaron
ENCODING 486
SWIDTH 811 0
DWIDTH 11 0
BBX 13 24 0 -7
BITMAP
00000520350000
00000CA1E80000
000005FBD10000
000000BD300000
00005CEEA20000
001BFEABFC0000
009FA100CF1000
03FD0000BF3000
09F60000BD0000
0DF20000110000
0FF00000000000
1FF00029993000
0FF1005FFF8000
0CF600005F6020
06FE20006F49C0
009FFB9BFFDE40
0005BEFCEFB100
00000006FC0000
0000007EF90000
000005E6F50000
00000D67F10000
00004F1DB00000
00005FCF400000
00001CE7000000
ENDCHAR
STARTCHAR gcaron
ENCODING 487
SWIDTH 479 0
DWIDTH 7 0
BBX 9 20 0 -7
BITMAP
004D12E300
004F3AD100
001F7F6000
000DED0000
0007E40000
0000000000
006DB50000
06FDDF0000
1ED1CD0000
6F60FB0200
7F44F97F30
5FCDFEF800
0BEBFE4000
003EF20000
03EEE00000
1E8DA00000
8C2F600000
E68F100000
FCF9000000
7EB1000000
ENDCHAR
STARTCHAR uni01EA
ENCODING 490
SWIDTH 816 0
DWIDTH 11 0
BBX 12 17 0 -4
BITMAP
00006CEE9100
001BFDADFD10
00AF9000AF90
04FC00002FE0
09F600000FF2
0EF200000EF2
0FF000000FF1
1FF000003FD0
0FF200008F90
0CF70003EF20
05FF746EF700
008FFFFF7000
00038FA10000
00007E000000
00009F320000
00003EFF1000
000001420000
ENDCHAR
STARTCHAR uni01EB
ENCODING 491
SWIDTH 451 0
DWIDTH 6 0
BBX 9 11 0 -4
BITMAP
02BEB10000
0DFCF90000
5F76FE1400
7F42FFFF20
7F40AE8500
2FC7F70000
05EF800000
01E7000000
03F6100000
01DFF50000
0003300000
ENDCHAR
STARTCHAR Aringacute
ENCODING 506
SWIDTH 786 0
DWIDTH 11 0
BBX 14 20 0 0
BITMAP
00000000000042
000000000006F8
00000007EB4E81
0000001FBF6100
0000003F2D7000
0000001EFF3000
00000003840000
000006BEFEC600
0002CFFDBDF900
002DF910251000
00BF8000BF3000
05FC0000EF1000
0AF50002FC0000
0FF10006FA0000
2FE0000AF70000
3FD0001EF50000
2FE0006FF40030
0EF502EEF508B0
07FFCEC8FECF40
007DEA11BED400
ENDCHAR
STARTCHAR aringacute
ENCODING 507
SWIDTH 470 0
DWIDTH 7 0
BBX 10 14 0 0
BITMAP
0000000160
0003851CE2
001EFF6710
004F2E6000
003FBF4000
0009E90000
0000000000
006DB50000
06FDDF1000
1ED1CE0000
6F60FB0110
7F44F91C50
5FCDEDDC10
0BE94EB100
ENDCHAR
STARTCHAR AEacute
ENCODING 508
SWIDTH 1015 0
DWIDTH 14 0
BBX 16 17 0 0
BITMAP
0000000000006200
00000000001AF800
0000000001BFA100
0000000007C40000
000017CE37EFFFE1
0003DFFD4FE99970
003EFA205F900000
00CF80009F600000
05FD0000DF300000
0BF60001FF000000
0FF10005FFFFFE10
2FE00009FD999800
3FD0000EF8000000
2FE0005FF8000000
0EF401DDFD100049
06FEADE2BFEAADFB
006DEC3018DFEB60
ENDCHAR
STARTCHAR aeacute
ENCODING 509
SWIDTH 653 0
DWIDTH 9 0
BBX 11 13 0 0
BITMAP
000000053000
0000003FA000
0000009F3000
000001E70000
000004B00000
000000000000
005CE8DE7000
07FDCFDDF000
2FC1AF18E000
6F50ED9F6030
7F43FF9309E0
5FCDDFDAEF60
0AEB18EEB400
ENDCHAR
STARTCHAR Oslashacute
ENCODING 510
SWIDTH 816 0
DWIDTH 11 0
BBX 12 19 0 -2
BITMAP
000000026000
0000003EF300
000004EE7000
00000C9F7000
00006CEFB100
001BFDDFFD10
009F90CBAF90
03FD01F73FE0
09F604F40EF1
0DF307F00EF2
0FF00BB00EF1
1FF00E801FE0
1FF03F505FA0
0DF36F10CF40
08FBAD08FA00
01DFFDCFC100
001AFFC70000
0007F1000000
000250000000
ENDCHAR
STARTCHAR oslashacute
ENCODING 511
SWIDTH 459 0
DWIDTH 6 0
BBX 9 15 0 -2
BITMAP
0003500000
000DE00000
004F800000
00AC000000
00D6900000
0007800000
02CFD30000
0DEEFD0000
5F6E9F7820
7F5D7FFF30
7F9A9E4100
3FFDF90000
06EE910000
00C3000000
00D1000000
ENDCHAR
STARTCHAR uni0200
ENCODING 512
SWIDTH 786 0
DWIDTH 11 0
BBX 13 17 0 0
BITMAP
00000160430000
000006F3DB0000
000001E78F1000
000000791D2000
000006BEFEC600
0002CFFDBDF900
002DF910251000
00BF8000BF3000
05FC0000EF1000
0AF50002FC0000
0FF10006FA0000
2FE0000AF70000
3FD0001EF50000
2FE0006FF40030
0EF502EEF508B0
07FFCEC8FECF40
007DEA11BED400
ENDCHAR
STARTCHAR uni0201
ENCODING 513
SWIDTH 470 0
DWIDTH 7 0
BBX 9 13 0 0
BITMAP
0531600000
0FB7F50000
0AF3F90000
02E58D0000
00771D1000
0000000000
006DB50000
06FDDF1000
1ED1CE0000
6F60FB0110
7F44F91C50
5FCDEDDC10
0BE94EB100
ENDCHAR
STARTCHAR uni0202
ENCODING 514
SWIDTH 786 0
DWIDTH 11 0
BBX 13 16 0 0
BITMAP
00000005972000
000000AFFFE200
000003F815F700
000007FEFEF700
0002CFFDBDF900
002DF910251000
00BF8000BF3000
05FC0000EF1000
0AF50002FC0000
0FF10006FA0000
2FE0000AF70000
3FD0001EF50000
2FE0006FF40030
0EF502EEF508B0
07FFCEC8FECF40
007DEA11BED400
ENDCHAR
STARTCHAR uni0203
ENCODING 515
SWIDTH 470 0
DWIDTH 7 0
BBX 9 12 0 0
BITMAP
0005971000
00AFFFC000
03F919F400
04D101D300
0000000000
006DB50000
06FDDF1000
1ED1CE0000
6F60FB0110
7F44F91C50
5FCDEDDC10
0BE94EB100
ENDCHAR
STARTCHAR uni0204
ENCODING 516
SWIDTH 686 0
DWIDTH 10 0
BBX 12 17 0 0
BITMAP
000061340000
0003F7AE0000
0000CB4F4000
00004C0A6000
0003ADFD8100
005FFCADF900
00EF5001EE00
02FE0000EE00
01FF2000B700
006FEA500000
018EFF800000
0CF930000000
5FB000000000
8F8000000000
6FD2000004A3
0CFFBAABEFE2
006BEFEDB720
ENDCHAR
STARTCHAR uni0205
ENCODING 517
SWIDTH 393 0
DWIDTH 6 0
BBX 8 13 0 0
BITMAP
25052000
9F3FB000
3F7AE100
0AB2F400
02D08700
00000000
02BEB100
0DEBF500
5F63F400
7F9DB021
6FC504E4
2FEACFB0
04CED700
ENDCHAR
STARTCHAR uni0206
ENCODING 518
SWIDTH 686 0
DWIDTH 10 0
BBX 12 16 0 0
BITMAP
000004883000
00007FFFF500
0000EB23EB00
0003FEFDC400
005FFCADF900
00EF5001EE00
02FE0000EE00
01FF2000B700
006FEA500000
018EFF800000
0CF930000000
5FB000000000
8F8000000000
6FD2000004A3
0CFFBAABEFE2
006BEFEDB720
ENDCHAR
STARTCHAR uni0207
ENCODING 519
SWIDTH 393 0
DWIDTH 6 0
BBX 8 12 0 0
BITMAP
00388300
04FFFF40
0CD23FA0
0C500990
00000000
02BEB100
0DEBF500
5F63F400
7F9DB021
6FC504E4
2FEACFB0
04CED700
ENDCHAR
STARTCHAR uni0208
ENCODING 520
SWIDTH 495 0
DWIDTH 7 0
BBX 9 17 -1 0
BITMAP
0005216000
000FA7F300
0009E2E700
0001D17900
006EFFFF90
0049CFC940
0000AF5000
0000CF3000
0000EF1000
0001FD0000
0003FB0000
0005F90000
0007F70000
0009F50000
000BF40000
069EFA8100
2FFFFFD100
ENDCHAR
STARTCHAR uni0209
ENCODING 521
SWIDTH 246 0
DWIDTH 3 0
BBX 7 13 -1 0
BITMAP
53160000
EC6F5000
9F3E9000
1E67E000
0781D100
00000000
008D0000
00EC0000
02FA0000
04F70210
05F62E30
03FDEB00
00AE9100
ENDCHAR
STARTCHAR uni020A
ENCODING 522
SWIDTH 495 0
DWIDTH 7 0
BBX 9 16 -1 0
BITMAP
0000289500
0004FFFF80
000CD22CE0
006FFFFFE0
0049CFC940
0000AF5000
0000CF3000
0000EF1000
0001FD0000
0003FB0000
0005F90000
0007F70000
0009F50000
000BF40000
069EFA8100
2FFFFFD100
ENDCHAR
STARTCHAR uni020B
ENCODING 523
SWIDTH 246 0
DWIDTH 3 0
BBX 7 12 -1 0
BITMAP
00597100
09FFFC00
3F918F50
3D101D40
00000000
008D0000
00EC0000
02FA0000
04F70210
05F62E30
03FDEB00
00AE9100
ENDCHAR
STARTCHAR uni020C
ENCODING 524
SWIDTH 816 0
DWIDTH 11 0
BBX 12 17 0 0
BITMAP
000052160000
0000EA6F3000
00009E2E7000
00001D179000
00006CEE9100
001BFDADFD10
009F9000BF90
03FD00003FE0
09F600000FF1
0DF200000EF2
0FF000000FF1
1FF000002FE0
1FF100005FA0
0DF40000CF40
08FB1008FA00
01DFDADFC100
0019DEC70000
ENDCHAR
STARTCHAR uni020D
ENCODING 525
SWIDTH 451 0
DWIDTH 6 0
BBX 9 13 0 0
BITMAP
2506200000
9F3FA00000
4F6BE00000
0BB3F40000
02C0960000
0000000000
02BEC20000
0DFCFC0000
5F75FFAC10
7F40CFEB10
7F50CC0000
3FEBF50000
06EE700000
ENDCHAR
STARTCHAR uni020E
ENCODING 526
SWIDTH 816 0
DWIDTH 11 0
BBX 12 16 0 0
BITMAP
000002895000
00004FFFF800
0000BD32CE00
0000BEEEB600
001BFDADFD10
009F9000BF90
03FD00003FE0
09F600000FF1
0DF200000EF2
0FF000000FF1
1FF000002FE0
1FF100005FA0
0DF40000CF40
08FB1008FA00
01DFDADFC100
0019DEC70000
ENDCHAR
STARTCHAR uni020F
ENCODING 527
SWIDTH 451 0
DWIDTH 6 0
BBX 9 12 0 0
BITMAP
0038830000
05FFFF3000
0DD24FA000
0D400A8000
0000000000
02BEC20000
0DFCFC0000
5F75FFAC10
7F40CFEB10
7F50CC0000
3FEBF50000
06EE700000
ENDCHAR
STARTCHAR uni0210
ENCODING 528
SWIDTH 880 0
DWIDTH 12 0
BBX 15 17 0 0
BITMAP
0000250520000000
00008F2F90000000
00003F5AD0000000
00000972D1000000
00005BDFD8100000
000AFDAAFFB00000
009F60103FF30000
03F70CD00CF50000
09E02FC00EF20000
0EA05FA08FA00000
1F63CFCCFA100000
3F56FFFF90000000
3F50CF4DF5000000
2F60EF06FC000400
0DA1FD00DF503F10
07FCFA006FEAE900
008ED30008EE7000
ENDCHAR
STARTCHAR uni0211
ENCODING 529
SWIDTH 455 0
DWIDTH 6 0
BBX 9 13 0 0
BITMAP
0613500000
3F8AF10000
0DD5F60000
04F2BA0000
00A43C0000
0000000000
08D09E4000
0EB8FF6000
2FAEBF4420
3FE87FDF40
4FF12DE600
4FC0000000
1D60000000
ENDCHAR
STARTCHAR uni0212
ENCODING 530
SWIDTH 880 0
DWIDTH 12 0
BBX 15 16 0 0
BITMAP
0000006971000000
00000CFFFD100000
00005F617F500000
00006FDFDE200000
000AFDAAFFB00000
009F60103FF30000
03F70CD00CF50000
09E02FC00EF20000
0EA05FA08FA00000
1F63CFCCFA100000
3F56FFFF90000000
3F50CF4DF5000000
2F60EF06FC000400
0DA1FD00DF503F10
07FCFA006FEAE900
008ED30008EE7000
ENDCHAR
STARTCHAR uni0213
ENCODING 531
SWIDTH 455 0
DWIDTH 6 0
BBX 9 12 0 0
BITMAP
0017960000
01CFFF9000
06F61BF100
07A004D100
0000000000
08D09E4000
0EB8FF6000
2FAEBF4420
3FE87FDF40
4FF12DE600
4FC0000000
1D60000000
ENDCHAR
STARTCHAR uni0214
ENCODING 532
SWIDTH 890 0
DWIDTH 12 0
BBX 15 17 0 0
BITMAP
0000061340000000
00004F6BE0000000
00000DA5F3000000
000004B0B5000000
03BEC10002E70000
3ECDF70005FA0000
DA07F80007F80000
9108F70009F60000
000BF4000CF40000
000EF2001FF20000
002FD0005FF00000
005FA000AFD00000
008F7001EFB00000
00AF5009BF900310
00BF607E6FB04E30
008FFEF52FFEFA00
001BED5007EE8000
ENDCHAR
STARTCHAR uni0215
ENCODING 533
SWIDTH 462 0
DWIDTH 6 0
BBX 9 13 0 0
BITMAP
0613500000
3F8AF20000
0CD4F60000
04F2BA0000
00A43C0000
0000000000
07E04E1000
0DC0AE0000
2F90EC0000
4F75F90210
5F8DF72E30
4FFBFDEB00
0BD2BE9000
ENDCHAR
STARTCHAR uni0216
ENCODING 534
SWIDTH 890 0
DWIDTH 12 0
BBX 15 16 0 0
BITMAP
0000004883000000
000008FFFF400000
00001FA13FA00000
03BEC71006F70000
3ECDF70005FA0000
DA07F80007F80000
9108F70009F60000
000BF4000CF40000
000EF2001FF20000
002FD0005FF00000
005FA000AFD00000
008F7001EFB00000
00AF5009BF900310
00BF607E6FB04E30
008FFEF52FFEFA00
001BED5007EE8000
ENDCHAR
STARTCHAR uni0217
ENCODING 535
SWIDTH 462 0
DWIDTH 6 0
BBX 9 12 0 0
BITMAP
0016960000
01CFFF9000
06F61BF100
06A004D100
0000000000
07E04E1000
0DC0AE0000
2F90EC0000
4F75F90210
5F8DF72E30
4FFBFDEB00
0BD2BE9000
ENDCHAR
STARTCHAR uni0218
ENCODING 536
SWIDTH 693 0
DWIDTH 10 0
BBX 10 17 0 -4
BITMAP
0007CEEB40
00BFDAAFF4
04FB0004FA
07F70002FA
06FC1001C5
01EFD61000
003CFFE600
00005CFF90
2B20006FF1
7F50000CF2
7F70002EE0
2EFBABEF60
029DFDB400
0000000000
0004E20000
0007F20000
0006B00000
ENDCHAR
STARTCHAR uni0219
ENCODING 537
SWIDTH 427 0
DWIDTH 6 0
BBX 9 12 -1 -5
BITMAP
0004E40000
000CF00000
004FF40000
00CAEE1150
08D18F7BB0
1E5EFFFF40
011CFFD500
0000000000
0008C00000
000BD00000
000C900000
000A400000
ENDCHAR
STARTCHAR uni021A
ENCODING 538
SWIDTH 697 0
DWIDTH 10 0
BBX 13 17 0 -4
BITMAP
0049CEEFFFFD50
0AFDABFD99AA50
5F7006F9000000
7F3009F6000000
4F600CF4000000
05100EF2000000
00001FE0000000
00004FC0000000
00006FA0000000
00008F80000000
0000AF60000000
0000BF40000000
00009D20000000
00000000000000
0000AA00000000
0000DA00000000
0000C500000000
ENDCHAR
STARTCHAR uni021B
ENCODING 539
SWIDTH 393 0
DWIDTH 6 0
BBX 8 18 0 -5
BITMAP
0005E900
002FDF10
009D4F10
00E86D00
04F6D600
07FBB000
DFFFFF30
8DF99700
0BE00000
0BF00021
09F302D4
04FEAEC0
007EE910
00000000
006D0000
009F0000
00AB0000
00960000
ENDCHAR
STARTCHAR uni022A
ENCODING 554
SWIDTH 816 0
DWIDTH 11 0
BBX 12 19 0 0
BITMAP
000007999300
00000DFFF500
000000000000
000001001000
00005F87F600
00005E56E400
00006CEE9100
001BFDADFD10
009F9000BF90
03FD00003FE0
09F600000FF1
0DF200000EF2
0FF000000FF1
1FF000002FE0
1FF100005FA0
0DF40000CF40
08FB1008FA00
01DFDADFC100
0019DEC70000
ENDCHAR
STARTCHAR uni022B
ENCODING 555
SWIDTH 451 0
DWIDTH 6 0
BBX 9 13 0 0
BITMAP
0089992000
01EFFE3000
0010010000
08F59F3000
07E38E2000
0000000000
02BEC20000
0DFCFC0000
5F75FFAC10
7F40CFEB10
7F50CC0000
3FEBF50000
06EE700000
ENDCHAR
STARTCHAR uni022C
ENCODING 556
SWIDTH 816 0
DWIDTH 11 0
BBX 12 19 0 0
BITMAP
000006999400
00000BFFF600
000000000000
00003DB13E10
0000BEEDBD00
0000D42BE400
00006CEE9100
001BFDADFD10
009F9000BF90
03FD00003FE0
09F600000FF1
0DF200000EF2
0FF000000FF1
1FF000002FE0
1FF100005FA0
0DF40000CF40
08FB1008FA00
01DFDADFC100
0019DEC70000
ENDCHAR
STARTCHAR uni022D
ENCODING 557
SWIDTH 451 0
DWIDTH 6 0
BBX 9 14 0 0
BITMAP
0079992000
00EFFF4000
0000000000
0163015000
0AEF8BB000
1E35CD2000
0000000000
02BEC20000
0DFCFC0000
5F75FFAC10
7F40CFEB10
7F50CC0000
3FEBF50000
06EE700000
ENDCHAR
STARTCHAR uni0230
ENCODING 560
SWIDTH 816 0
DWIDTH 11 0
BBX 12 19 0 0
BITMAP
000006999300
00000DFFF500
000000000000
000000110000
000002EF2000
000002ED1000
00006CEE9100
001BFDADFD10
009F9000BF90
03FD00003FE0
09F600000FF1
0DF200000EF2
0FF000000FF1
1FF000002FE0
1FF100005FA0
0DF40000CF40
08FB1008FA00
01DFDADFC100
0019DEC70000
ENDCHAR
STARTCHAR uni0231
ENCODING 561
SWIDTH 451 0
DWIDTH 6 0
BBX 9 13 0 0
BITMAP
0089992000
01EFFE3000
0001000000
004FE00000
004EB00000
0000000000
02BEC20000
0DFCFC0000
5F75FFAC10
7F40CFEB10
7F50CC0000
3FEBF50000
06EE700000
ENDCHAR
STARTCHAR uni0232
ENCODING 562
SWIDTH 851 0
DWIDTH 12 0
BBX 14 20 0 -5
BITMAP
00000299980000
000005FFFC0000
03BEC10002E800
3ECDF70005FA00
DA07F80007F800
8009F7000AF600
000BF4000DF400
000EF2002FF200
002FD0008FF000
004FB001EFD000
004FB00BAFB000
001EFADD4FA583
0005DEA38FFFF4
0000018EFF9410
00003DFABF3000
0001ED30CE0000
0007F402FA0000
0009F42CF30000
0005FFFF600000
00004883000000
ENDCHAR
STARTCHAR uni0233
ENCODING 563
SWIDTH 479 0
DWIDTH 7 0
BBX 9 17 0 -7
BITMAP
0089992000
01EFFF3000
0000000000
07E04E1000
0DC0AF0000
2F90ED0000
4F75FA0300
5F8DF87F30
4FFDFEF700
0BD7FD3000
003EF20000
03EED00000
1D7DA00000
9B2F600000
E68E100000
FCF8000000
8EA1000000
ENDCHAR
STARTCHAR uni0237
ENCODING 567
SWIDTH 254 0
DWIDTH 4 0
BBX 9 14 -4 -7
BITMAP
00000AD000
00000ED000
00000FB000
00002F9020
00004F77F0
00005FEE60
00007FD300
0003EF1000
004EFC0000
02E6E90000
0AA4F40000
1F4AE00000
2FCF700000
0AE9000000
ENDCHAR
STARTCHAR uni0259
ENCODING 601
SWIDTH 458 0
DWIDTH 6 0
BBX 7 7 0 0
BITMAP
09EEA100
1CABFA00
0000BF00
3EFFFF10
6FA9EE00
3FCBF900
07DEA100
ENDCHAR
STARTCHAR uni02BC
ENCODING 700
SWIDTH 600 0
DWIDTH 8 0
BBX 3 4 3 8
BITMAP
1D50
3F60
4F20
3C00
ENDCHAR
STARTCHAR circumflex
ENCODING 710
SWIDTH 600 0
DWIDTH 8 0
BBX 6 5 1 8
BITMAP
002DA0
00BEF0
04F6F3
0CC1F7
1E40C6
ENDCHAR
STARTCHAR caron
ENCODING 711
SWIDTH 600 0
DWIDTH 8 0
BBX 6 5 2 8
BITMAP
5D04E2
6F2BC0
2F6F50
0EEC00
09D300
ENDCHAR
STARTCHAR uni02C9
ENCODING 713
SWIDTH 600 0
DWIDTH 8 0
BBX 5 2 2 8
BITMAP
699930
DFFF50
ENDCHAR
STARTCHAR breve
ENCODING 728
SWIDTH 600 0
DWIDTH 8 0
BBX 7 4 1 8
BITMAP
16000610
6F305F40
3FEAED00
05DFB200
ENDCHAR
STARTCHAR dotaccent
ENCODING 729
SWIDTH 600 0
DWIDTH 8 0
BBX 3 3 3 8
BITMAP
0100
BF70
AE50
ENDCHAR
STARTCHAR ring
ENCODING 730
SWIDTH 600 0
DWIDTH 8 0
BBX 5 5 2 8
BITMAP
038400
2FFF20
6E2F50
5FBF30
0AE700
ENDCHAR
STARTCHAR ogonek
ENCODING 731
SWIDTH 600 0
DWIDTH 8 0
BBX 5 5 1 -4
BITMAP
02B100
0BB000
1F6000
0FD950
06EE50
ENDCHAR
STARTCHAR tilde
ENCODING 732
SWIDTH 600 0
DWIDTH 8 0
BBX 7 3 1 8
BITMAP
03610520
3FED5F40
8B18E800
ENDCHAR
STARTCHAR hungarumlaut
ENCODING 733
SWIDTH 600 0
DWIDTH 8 0
BBX 6 5 2 8
BITMAP
026052
0AF3F9
0EB7F4
4F2BA0
680D20
ENDCHAR
STARTCHAR gravecomb
ENCODING 768
SWIDTH 0 0
DWIDTH 0 0
BBX 4 5 -7 8
BITMAP
3500
AF20
4F80
08E1
00B3
ENDCHAR
STARTCHAR acutecomb
ENCODING 769
SWIDTH 0 0
DWIDTH 0 0
BBX 4 5 -5 8
BITMAP
0061
07F5
0DD1
4F30
8700
ENDCHAR
STARTCHAR uni0302
ENCODING 770
SWIDTH 0 0
DWIDTH 0 0
BBX 6 5 -7 8
BITMAP
007E40
02FE90
0AD9C0
3F67F1
6C04E1
ENDCHAR
STARTCHAR tildecomb
ENCODING 771
SWIDTH 0 0
DWIDTH 0 0
BBX 6 3 -7 8
BITMAP
064016
8FF99D
D53CD3
ENDCHAR
STARTCHAR uni0304
ENCODING 772
SWIDTH 0 0
DWIDTH 0 0
BBX 5 2 -7 8
BITMAP
199980
4FFFD0
ENDCHAR
STARTCHAR uni0306
ENCODING 774
SWIDTH 0 0
DWIDTH 0 0
BBX 6 4 -7 8
BITMAP
430025
CC00BD
8FCBF7
19EE80
ENDCHAR
STARTCHAR uni0307
ENCODING 775
SWIDTH 0 0
DWIDTH 0 0
BBX 4 3 -6 8
BITMAP
0110
2EE2
2EC1
ENDCHAR
STARTCHAR uni0308
ENCODING 776
SWIDTH 0 0
DWIDTH 0 0
BBX 6 3 -7 8
BITMAP
010010
5F77F5
5E56E4
ENDCHAR
STARTCHAR hookabovecomb
ENCODING 777
SWIDTH 0 0
DWIDTH 0 0
BBX 4 5 -6 8
BITMAP
1881
5FFA
007D
07DB
0CD2
ENDCHAR
STARTCHAR uni030A
ENCODING 778
SWIDTH 0 0
DWIDTH 0 0
BBX 4 5 -6 8
BITMAP
0781
7FFA
C97E
BDDC
3DD3
ENDCHAR
STARTCHAR uni030B
ENCODING 779
SWIDTH 0 0
DWIDTH 0 0
BBX 6 5 -6 8
BITMAP
053160
1FA8F3
6F5DC0
AB2F40
C34A00
ENDCHAR
STARTCHAR uni030C
ENCODING 780
SWIDTH 0 0
DWIDTH 0 0
BBX 5 5 -6 8
BITMAP
B709A0
CB2F60
9C9D00
5EE600
1DA000
ENDCHAR
STARTCHAR uni030F
ENCODING 783
SWIDTH 0 0
DWIDTH 0 0
BBX 6 5 -8 8
BITMAP
260530
7F4EC0
2F89F1
08D1E6
01D178
ENDCHAR
STARTCHAR uni0311
ENCODING 785
SWIDTH 0 0
DWIDTH 0 0
BBX 6 4 -7 8
BITMAP
028830
3EFFF5
BE33EC
B6008A
ENDCHAR
STARTCHAR uni0312
ENCODING 786
SWIDTH 0 0
DWIDTH 0 0
BBX 2 4 -5 8
BITMAP
6D
9F
AB
96
ENDCHAR
STARTCHAR uni031B
ENCODING 795
SWIDTH 0 0
DWIDTH 0 0
BBX 4 4 -5 5
BITMAP
0160
06F1
3EC0
6C20
ENDCHAR
STARTCHAR dotbelowcomb
ENCODING 803
SWIDTH 0 0
DWIDTH 0 0
BBX 3 3 -7 -3
BITMAP
0100
6FC0
6E90
ENDCHAR
STARTCHAR uni0324
ENCODING 804
SWIDTH 0 0
DWIDTH 0 0
BBX 6 3 -8 -3
BITMAP
010010
AF2BF1
9D1AD1
ENDCHAR
STARTCHAR uni0326
ENCODING 806
SWIDTH 0 0
DWIDTH 0 0
BBX 3 4 -7 -5
BITMAP
0D60
2F70
2F30
2D00
ENDCHAR
STARTCHAR uni0327
ENCODING 807
SWIDTH 0 0
DWIDTH 0 0
BBX 5 5 -8 -4
BITMAP
059400
0AFF30
002F60
49BF30
6FE600
ENDCHAR
STARTCHAR uni0328
ENCODING 808
SWIDTH 0 0
DWIDTH 0 0
BBX 5 5 -7 -4
BITMAP
069000
2F5000
7F0000
6FB910
1BFC10
ENDCHAR
STARTCHAR uni032E
ENCODING 814
SWIDTH 0 0
DWIDTH 0 0
BBX 7 4 -9 -4
BITMAP
06000520
4F603F60
1EEAEE10
04CFC300
ENDCHAR
STARTCHAR uni0331
ENCODING 817
SWIDTH 0 0
DWIDTH 0 0
BBX 5 2 -8 -2
BITMAP
299970
6FFFC0
ENDCHAR
STARTCHAR uni0394
ENCODING 916
SWIDTH 700 0
DWIDTH 10 0
BBX 9 12 0 0
BITMAP
00000C9000
00005FD000
0000CFF100
0003FAF400
000AE2F700
002F90DA00
008F20BD00
01EB008F10
06F5006F40
0DD0004F70
4FD999AFA0
6FFFFFFF90
ENDCHAR
STARTCHAR uni03A9
ENCODING 937
SWIDTH 816 0
DWIDTH 11 0
BBX 13 12 -1 0
BITMAP
000017CEEA2000
0001CFECEFE200
000BF9101BFA00
005FC00002FF00
00BF500000EF20
00EF100000EF20
01FF000000FF00
01FF000004FB00
00EF20000BF600
008F90006FB000
19BFF506FFC910
3FFFF80AFFFE10
ENDCHAR
STARTCHAR uni03BC
ENCODING 956
SWIDTH 462 0
DWIDTH 6 0
BBX 9 11 0 -4
BITMAP
0270171000
0BE08F1000
1FA0DD0000
3F74FA0000
5F7CF71B30
6FFCFCDC10
7FD2BEA100
8F20000000
9F10000000
9F10000000
7D10000000
ENDCHAR
STARTCHAR pi
ENCODING 960
SWIDTH 496 0
DWIDTH 7 0
BBX 9 7 0 0
BITMAP
8FFFFFF900
4EE7AF9200
1FC08F3000
3F90BF0010
5F70CD07B0
7F50BFAF40
6E204ED400
ENDCHAR
STARTCHAR uni0400
ENCODING 1024
SWIDTH 686 0
DWIDTH 10 0
BBX 12 17 0 0
BITMAP
000620000000
002FE3000000
0006EE400000
000018D00000
0003ADFD8100
005FFCADF900
00EF5001EE00
02FE0000EE00
01FF2000B700
006FEA500000
018EFF800000
0CF930000000
5FB000000000
8F8000000000
6FD2000004A3
0CFFBAABEFE2
006BEFEDB720
ENDCHAR
STARTCHAR uni0401
ENCODING 1025
SWIDTH 686 0
DWIDTH 10 0
BBX 12 16 0 0
BITMAP
000001001000
00009F4AF300
00008E39E200
0003ADFD8100
005FFCADF900
00EF5001EE00
02FE0000EE00
01FF2000B700
006FEA500000
018EFF800000
0CF930000000
5FB000000000
8F8000000000
6FD2000004A3
0CFFBAABEFE2
006BEFEDB720
ENDCHAR
STARTCHAR uni0402
ENCODING 1026
SWIDTH 974 0
DWIDTH 14 0
BBX 16 20 0 -7
BITMAP
0038BDEFFFFD6000
08FDABFD889A4000
4F8006F900000000
7F3009F600000000
6F500CF400000000
1C300EF200000000
00001FE19EEA1000
00004FDDD9DF8000
00006FF8004FB000
00008FB0004FB191
0000AF60006FBDF1
0000BF40008FFE50
00009D2000BFC200
000000001BFF2000
00000000BFFD0000
00000009F8F90000
0000002F87F40000
0000007F2CD00000
0000007FBF600000
0000002CE7000000
ENDCHAR
STARTCHAR uni0403
ENCODING 1027
SWIDTH 635 0
DWIDTH 9 0
BBX 12 17 0 0
BITMAP
000000006200
0000001BF700
000001CFA100
000008B30010
006ADEFFFFFE
0BFEEFB88874
5F80AF500000
7F30DF200000
5F60FF000000
0413FC000000
0005FA000000
0007F8000000
0009F6000000
000CF4000000
000EF2000000
000FF1000000
000CB0000000
ENDCHAR
STARTCHAR uni0404
ENCODING 1028
SWIDTH 687 0
DWIDTH 10 0
BBX 12 13 0 0
BITMAP
00006CED8000
001BFD9CF700
009FA001FB00
03FE1002FB00
09F80001C500
0DF400000000
0FFFFFF70000
1FF888840000
0FF100000000
0CF500000000
05FD30000383
009FFB9ADFE3
0005BEFDB720
ENDCHAR
STARTCHAR uni0405
ENCODING 1029
SWIDTH 693 0
DWIDTH 10 0
BBX 10 13 0 0
BITMAP
0007CEEB40
00BFDAAFF4
04FB0004FA
07F70002FA
06FC1001C5
01EFD61000
003CFFE600
00005CFF90
2B20006FF1
7F50000CF2
7F70002EE0
2EFBABEF60
029DFDB400
ENDCHAR
STARTCHAR uni0406
ENCODING 1030
SWIDTH 495 0
DWIDTH 7 0
BBX 9 13 -1 0
BITMAP
006EFFFF90
0049CFC940
0000AF5000
0000CF3000
0000EF1000
0001FD0000
0003FB0000
0005F90000
0007F70000
0009F50000
000BF40000
069EFA8100
2FFFFFD100
ENDCHAR
STARTCHAR uni0407
ENCODING 1031
SWIDTH 495 0
DWIDTH 7 0
BBX 9 16 -1 0
BITMAP
0000100100
0005F77F60
0005E56E40
006EFFFF90
0049CFC940
0000AF5000
0000CF3000
0000EF1000
0001FD0000
0003FB0000
0005F90000
0007F70000
0009F50000
000BF40000
069EFA8100
2FFFFFD100
ENDCHAR
STARTCHAR uni0408
ENCODING 1032
SWIDTH 743 0
DWIDTH 10 0
BBX 10 14 1 -1
BITMAP
028CEFFEB4
4FFCA9AFF8
DE20001FE0
FB00003FC0
CE00005FA0
2300007F70
00003AFF50
0008FDEF20
00AF81ED00
06F803F900
0CF108F300
0EE02EC000
0BFAEE3000
02CEC30000
ENDCHAR
STARTCHAR uni0409
ENCODING 1033
SWIDTH 1158 0
DWIDTH 16 0
BBX 16 13 0 0
BITMAP
00000002DC000000
00000008FF000000
0000000CFE000000
0000002FFD000000
0000006FFD000000
000000BDFD8CED81
000001F9FFEA9EF9
000007F5FD0004FE
00000DE1FD0001FF
43006F80EE0003FD
CC02EE10BF500AF8
9FADF5004FEACFC1
1AED600005DFD810
ENDCHAR
STARTCHAR uni040A
ENCODING 1034
SWIDTH 1182 0
DWIDTH 17 0
BBX 18 13 -1 0
BITMAP
003BEA00008D000000
05FADF4000EF100000
1E707F7002FC000000
2B007F7005F9000000
00008F6008F5000000
0000AF400AFBDFEA30
0038DFA9BFFD87BFD1
008FFFFEBFD0000CF4
0003FC001FD0000AF5
0006F8000FD0000DF3
000AF5000DF2007FC0
000DF20006FD9CFE30
000BB000008DFD9200
ENDCHAR
STARTCHAR uni040B
ENCODING 1035
SWIDTH 979 0
DWIDTH 14 0
BBX 16 13 0 0
BITMAP
0038BDEFFFFD6000
08FDABFD889A4000
4F8006F900000000
7F3009F600000000
6F500CF400000000
1C300EF200000000
00001FE19EEA1000
00004FDDD9DF8000
00006FF8004FB000
00008FC0005FB012
0000AF70007F80B7
0000BF50008FCCD1
00009E20003DEA10
ENDCHAR
STARTCHAR uni040C
ENCODING 1036
SWIDTH 937 0
DWIDTH 13 0
BBX 15 17 0 0
BITMAP
0000000000053000
00000000008FB000
000000000AFC2000
000000004D500000
004BEFDA1004E500
05FEABFF300BF500
0DD106F8002FE100
1F9008F7008F8000
0EC00AF502FE1000
07900BF32DF40000
00007EFCFD400000
0000DFFFE4000000
00002FC5FE200000
22005F90AF900030
9D10AF503FF307D0
6FDBFD100AFECF60
07DEB20001AED500
ENDCHAR
STARTCHAR uni040D
ENCODING 1037
SWIDTH 890 0
DWIDTH 12 0
BBX 15 17 0 0
BITMAP
0001610000000000
0004FD2000000000
00008FE300000000
000002AB00000000
03BEC10002E70000
3ECDF70005FA0000
DA07F80007F80000
9108F70009F60000
000BF4000CF40000
000EF2001FF20000
002FD0005FF00000
005FA000AFD00000
008F7001EFB00000
00AF5009BF900310
00BF607E6FB04E30
008FFEF52FFEFA00
001BED5007EE8000
ENDCHAR
STARTCHAR uni040E
ENCODING 1038
SWIDTH 824 0
DWIDTH 12 0
BBX 14 20 0 -4
BITMAP
00000310093000
00000DB16F2000
000007FFE60000
03BEB10202E700
3FBDF50006F900
5808F70009F700
000AF5000DF500
000EF1004FF300
002FD000CFF000
002FD008DFD000
000EFABE5FB000
0004DEB33FA682
000000029FFFF3
000002AFFF9410
00005EFBCF2000
0003FD30DD0000
0009F303F90000
000AF42CE20000
0005FFFE500000
00004872000000
ENDCHAR
STARTCHAR uni040F
ENCODING 1039
SWIDTH 890 0
DWIDTH 12 0
BBX 15 16 0 -3
BITMAP
03BEC10002E70000
3ECDF70005FA0000
D907F80007F80000
8008F70009F60000
000BF4000CF40000
000EF1001FF20000
002FD0005FF00000
005FA000AFD00000
008F7001EFB00000
00AF5009BF900310
00BF707E6FB04E30
008FFEF62FFEFA00
001BFE6007EE8000
0004F90000000000
0006F70000000000
0006E30000000000
ENDCHAR
STARTCHAR uni0410
ENCODING 1040
SWIDTH 786 0
DWIDTH 11 0
BBX 13 13 0 0
BITMAP
000006BEFEC600
0002CFFDBDF900
002DF910251000
00BF8000BF3000
05FC0000EF1000
0AF50002FC0000
0FF10006FA0000
2FE0000AF70000
3FD0001EF50000
2FE0006FF40030
0EF502EEF508B0
07FFCEC8FECF40
007DEA11BED400
ENDCHAR
STARTCHAR uni0411
ENCODING 1041
SWIDTH 917 0
DWIDTH 13 0
BBX 13 15 0 -1
BITMAP
00000000001000
004ADEFFFFFE00
09FC9FF8887400
4F702FD0000000
7F305FB0000000
7F507F80000000
3E50AF60000000
0003DFDEFDA300
001FFFC99CFE20
0008FE0000BF70
0003FC00008F80
0005FA0000CF60
0007F9002AFD00
0008F73CFFB200
00027228620000
ENDCHAR
STARTCHAR uni0412
ENCODING 1042
SWIDTH 827 0
DWIDTH 12 0
BBX 13 14 0 -1
BITMAP
0027BDEFEB4000
1AFFEBAADFF700
AF93000006FF10
3309A00000FF20
002FC00003FE00
005F90016EF500
008F62EFFB4000
00BF31ADFB1000
00EF1000BF7000
01FE00008F8000
03FC0003EF4000
04FEAACFF80000
06FFFED9400000
04E50000000000
ENDCHAR
STARTCHAR uni0413
ENCODING 1043
SWIDTH 635 0
DWIDTH 9 0
BBX 12 14 0 0
BITMAP
000000000010
006ADEFFFFFE
0BFEEFB88874
5F80AF500000
7F30DF200000
5F60FF000000
0413FC000000
0005FA000000
0007F8000000
0009F6000000
000CF4000000
000EF2000000
000FF1000000
000CB0000000
ENDCHAR
STARTCHAR uni0414
ENCODING 1044
SWIDTH 964 0
DWIDTH 14 0
BBX 14 13 0 0
BITMAP
00017BEFEB5000
004EFDA9AEFA00
008B400002DF60
00000CB0005FC0
00005F80001FF1
0000AF30000EF2
0000FE00000EF2
0003FB00000FF1
0005F800003FC0
2CEEF500008F80
AE9EFB1003EE10
BE9ECDEAAFF500
4DEB218DEC4000
ENDCHAR
STARTCHAR uni0415
ENCODING 1045
SWIDTH 686 0
DWIDTH 10 0
BBX 12 13 0 0
BITMAP
0003ADFD8100
005FFCADF900
00EF5001EE00
02FE0000EE00
01FF2000B700
006FEA500000
018EFF800000
0CF930000000
5FB000000000
8F8000000000
6FD2000004A3
0CFFBAABEFE2
006BEFEDB720
ENDCHAR
STARTCHAR uni0416
ENCODING 1046
SWIDTH 1234 0
DWIDTH 17 0
BBX 19 13 0 0
BITMAP
003BEB1006E3004DEA00
00CBBF900AF501EDBF40
00300CF10BF307F41500
000007F50DF11ED00000
000003F80EE08F700000
000000DE3FD8FC000000
0000003FFFFF81000000
000004EECFCFD1000000
00003EE29F57F9000000
0000AF60BF31EF100020
5B03FC00DF109F900A80
8FBDF300FE001EFACE20
1BFD4000D90004DEB200
ENDCHAR
STARTCHAR uni0417
ENCODING 1047
SWIDTH 725 0
DWIDTH 10 0
BBX 10 13 0 0
BITMAP
0005BEEB20
007FEABFD0
00ED100DF1
01FA000CF1
00B7001FC0
000000AF30
0003DFFE70
0002862BF6
07400006FA
2FB00009F8
2FE1003FF3
0BFC9AFF70
018DFEA400
ENDCHAR
STARTCHAR uni0418
ENCODING 1048
SWIDTH 890 0
DWIDTH 12 0
BBX 15 13 0 0
BITMAP
03BEC10002E70000
3ECDF70005FA0000
DA07F80007F80000
9108F70009F60000
000BF4000CF40000
000EF2001FF20000
002FD0005FF00000
005FA000AFD00000
008F7001EFB00000
00AF5009BF900310
00BF607E6FB04E30
008FFEF52FFEFA00
001BED5007EE8000
ENDCHAR
STARTCHAR uni0419
ENCODING 1049
SWIDTH 890 0
DWIDTH 12 0
BBX 15 16 0 0
BITMAP
0000022007500000
00000BD14F500000
000005EFF8000000
03BEC10212E70000
3ECDF70005FA0000
DA07F80007F80000
9108F70009F60000
000BF4000CF40000
000EF2001FF20000
002FD0005FF00000
005FA000AFD00000
008F7001EFB00000
00AF5009BF900310
00BF607E6FB04E30
008FFEF52FFEFA00
001BED5007EE8000
ENDCHAR
STARTCHAR uni041A
ENCODING 1050
SWIDTH 937 0
DWIDTH 13 0
BBX 15 13 0 0
BITMAP
004BEFDA1004E500
05FEABFF300BF500
0DD106F8002FE100
1F9008F7008F8000
0EC00AF502FE1000
07900BF32DF40000
00007EFCFD400000
0000DFFFE4000000
00002FC5FE200000
22005F90AF900030
9D10AF503FF307D0
6FDBFD100AFECF60
07DEB20001AED500
ENDCHAR
STARTCHAR uni041B
ENCODING 1051
SWIDTH 861 0
DWIDTH 12 0
BBX 14 13 0 0
BITMAP
00000002DD0000
00000008FF0000
0000000CFE0000
0000002FFD0000
0000006FFD0000
000000BDFC0000
000001F9FC0000
000007F5FD0000
00000DE1FD0000
43006F80EF0004
CC02EE10BF407C
9FADF6005FDAF5
1AED600008ED50
ENDCHAR
STARTCHAR uni041C
ENCODING 1052
SWIDTH 1133 0
DWIDTH 16 0
BBX 18 13 0 0
BITMAP
0000009E5001DD1000
000001FF8007FF2000
000003FF800DFF1000
000006FF804FFE0000
000009FF809EDD0000
00000CCF81EAED0000
00001F9F95F5FC0000
00004F6EA9F1FC0000
00008F2DBDB0FD0000
4300DD0CEF60EE0013
CC05F80AFF10CF30B9
AFCFE107FC007FDDE2
1BFC3002E6000AFC30
ENDCHAR
STARTCHAR uni041D
ENCODING 1053
SWIDTH 873 0
DWIDTH 12 0
BBX 15 14 -1 0
BITMAP
0000000000028500
004CEA00001DFF20
06FBDF40009F4E40
1F607F7001EA0E30
18007F7005F63F10
00008F6009F3BA00
0000AF400CFDD100
0049EFA9AFFA1000
008FFFEDBFC00000
0003FB002FB00000
0006F8001FC00020
000AF5000EF104E0
000DF20008FDAF80
000BA00001AED600
ENDCHAR
STARTCHAR uni041E
ENCODING 1054
SWIDTH 816 0
DWIDTH 11 0
BBX 12 13 0 0
BITMAP
00006CEE9100
001BFDADFD10
009F9000BF90
03FD00003FE0
09F600000FF1
0DF200000EF2
0FF000000FF1
1FF000002FE0
1FF100005FA0
0DF40000CF40
08FB1008FA00
01DFDADFC100
0019DEC70000
ENDCHAR
STARTCHAR uni041F
ENCODING 1055
SWIDTH 892 0
DWIDTH 12 0
BBX 15 13 0 0
BITMAP
0038BDEFFEECB810
09FEDFC889FEDE30
4F908F7003FB0000
7F30BF5006F90000
5F60DF2008F70000
0611FF000BF40000
0003FC000EF10000
0005FA001FE00000
0007F8004FB00000
0009F6006F900210
000BF4005F901D40
000DF3002FE9DB00
000AD10006DE9100
ENDCHAR
STARTCHAR uni0420
ENCODING 1056
SWIDTH 805 0
DWIDTH 11 0
BBX 12 14 0 -1
BITMAP
00003AEFD800
0008FEAAEFB0
007F81002EF4
02FA09D00AF7
08F20FF009F7
0DB02FD00DF4
2F704FA08FC0
3F56CFDDFD20
5F49FFFD8100
5F40BF300000
4F50EF100000
1FA3FD000000
09FEF9000000
009ED2000000
ENDCHAR
STARTCHAR uni0421
ENCODING 1057
SWIDTH 686 0
DWIDTH 10 0
BBX 12 13 0 0
BITMAP
00006CED7000
001BFDADF600
00AFA002FB00
03FD0001FC00
09F60002F800
0DF200001000
0FF000000000
1FF000000000
0FF200000000
0CF600000000
06FE30000393
009FFB9BDFE2
0005BEFDB720
ENDCHAR
STARTCHAR uni0422
ENCODING 1058
SWIDTH 697 0
DWIDTH 10 0
BBX 13 13 0 0
BITMAP
0049CEEFFFFD50
0AFDABFD99AA50
5F7006F9000000
7F3009F6000000
4F600CF4000000
05100EF2000000
00001FE0000000
00004FC0000000
00006FA0000000
00008F80000000
0000AF60000000
0000BF40000000
00009D20000000
ENDCHAR
STARTCHAR uni0423
ENCODING 1059
SWIDTH 824 0
DWIDTH 12 0
BBX 14 17 0 -4
BITMAP
03BEB10002E700
3FBDF50006F900
5808F70009F700
000AF5000DF500
000EF1004FF300
002FD000CFF000
002FD008DFD000
000EFABE5FB000
0004DEB33FA682
000000029FFFF3
000002AFFF9410
00005EFBCF2000
0003FD30DD0000
0009F303F90000
000AF42CE20000
0005FFFE500000
00004872000000
ENDCHAR
STARTCHAR uni0424
ENCODING 1060
SWIDTH 977 0
DWIDTH 14 0
BBX 14 18 0 -4
BITMAP
008DA988840000
004BEFFFF90000
0000000DC00000
0004883F917820
007FFFFF8DFFE1
03FD23DFEB2AF5
0AF5008FD108F6
0EF100AF4009F5
2FE000DE000BF4
3FC006FC000EF0
2FC04FFC107F90
0EFBFBFFDBFE20
04DE76F9CEB200
000008F3000000
02800CE0000000
06F42F80000000
02FDCF20000000
005DE500000000
ENDCHAR
STARTCHAR uni0425
ENCODING 1061
SWIDTH 712 0
DWIDTH 10 0
BBX 13 13 -1 0
BITMAP
006DE90003DA00
07FAEF701DF500
0C404FD0BF8000
00000DFAFB0000
000009FFD10000
000005FE300000
00000BFE000000
00009FFF200000
0006FDAF600000
003FE35FA00020
01DF601FE108B0
0BF9000AFCBF40
1EB10001BEC400
ENDCHAR
STARTCHAR uni0426
ENCODING 1062
SWIDTH 890 0
DWIDTH 12 0
BBX 15 18 0 -5
BITMAP
03BEC10002E70000
3ECDF60005FA0000
CA07F80007F90000
9108F70009F70000
000BF5000CF50000
000EF2000FF20000
002FE0004FF00000
005FB0009FD00000
008F8000DFB00000
00AF5006BFA00000
00BF503E6FB10400
008FDAE61CFFBF20
001BED6003DFD400
000000008FFD0000
00000009F8EA0000
0000002FA3F60000
0000003FDDE10000
00000009ED400000
ENDCHAR
STARTCHAR uni0427
ENCODING 1063
SWIDTH 773 0
DWIDTH 11 0
BBX 10 13 1 0
BITMAP
09D10005E3
0DF30009F4
0DF2000BF3
1FF0000EF2
3FC0004FF0
6F9000BFD0
6FB019EFB0
2FFEFF7F90
05DFD54F80
0000007F60
0000009F40
000000AF30
0000008E10
ENDCHAR
STARTCHAR uni0428
ENCODING 1064
SWIDTH 1272 0
DWIDTH 18 0
BBX 20 13 0 0
BITMAP
03BEC10005E3000AC000
3ECDF70009F6000FF000
D907F8000BF4002FE000
8008F7000EF1004FC000
000BF4001FD0007FA000
000EF1005F9000AF8000
002FD0009F6000EF5000
005FA000EF3004FF3000
008F7005FF100AEF1000
00AF500CDE003CDF0013
00BF709D9F12D6EF21C8
008FFEF38FEFB0CFEFE2
001BEC402CEA103CEB20
ENDCHAR
STARTCHAR uni0429
ENCODING 1065
SWIDTH 1272 0
DWIDTH 18 0
BBX 20 18 0 -5
BITMAP
03BEC10005E3000AC000
3ECDF70009F6000FF000
D907F8000BF4002FE000
8008F7000EF1004FC000
000BF4001FD0007F9000
000EF1005F9000AF7000
002FD0009F6000EF5000
005FA000EF3004FF3000
008F7005FF100AEF1000
00AF500CDE003CDF0000
00BF709CAF12D6EF7255
008FFEF39FEFB08EFEF5
001BEC402CEA101AFD40
00000000000004EFF300
0000000000004FCBF000
000000000000CF1DB000
000000000000DFBF5000
0000000000005EE80000
ENDCHAR
STARTCHAR uni042A
ENCODING 1066
SWIDTH 863 0
DWIDTH 12 0
BBX 11 13 1 0
BITMAP
010136300000
5FFFFF900000
2789FE200000
0006F8000000
000CF3000000
001FFBEED700
05EFEB9AEF80
07EF70005FD0
007F60002FD0
007F60005FB0
005F9001CF50
000DFAAEF900
0002BEEB5000
ENDCHAR
STARTCHAR uni042B
ENCODING 1067
SWIDTH 1078 0
DWIDTH 15 0
BBX 15 13 0 0
BITMAP
002D600000003E70
006F900000006F90
009F600000008F70
00CF200000009F50
00EE00000000BF30
02FEBEED7000EF10
4EFEB9AEF801FD00
7EF70005FD03FB00
07F60002FE06F900
07F70005FB08F700
05FA001CF50AF500
00DFAAEF900CF400
002BEEB50009D100
ENDCHAR
STARTCHAR uni042C
ENCODING 1068
SWIDTH 721 0
DWIDTH 10 0
BBX 10 13 0 0
BITMAP
002D600000
006F900000
009F600000
00CF200000
00EE000000
02FEBEED70
4EFEB9AEF8
7EF70005FD
07F60002FE
07F70005FB
05FA001CF5
00DFAAEF90
002BEEB500
ENDCHAR
STARTCHAR uni042D
ENCODING 1069
SWIDTH 755 0
DWIDTH 11 0
BBX 11 13 0 0
BITMAP
0018DFE92000
02DFB9CFE200
08E4000AFA00
04300002FF10
00000000DF30
00000000CF40
001DFFFFFF30
00088888FF10
03100002FD00
4F700008F700
5F80005FD100
1EFA9CFE3000
03AEED810000
ENDCHAR
STARTCHAR uni042E
ENCODING 1070
SWIDTH 1246 0
DWIDTH 17 0
BBX 19 13 -1 0
BITMAP
004CEA00000006EB2000
04FDEF50008E64CFE200
0DA07F7008FDA009F900
2D107F702FAD8002FE00
00008F508FEF2000EF10
0000AF43DFF60000DF20
005BEFFFFF400000EF10
008FFFA7FF000001FE00
0003FB00FF100005FA00
0006F800DF40000CF400
000AF5008FC101AFB000
000DF2001DFECEFC1000
000BA000029EEC700000
ENDCHAR
STARTCHAR uni042F
ENCODING 1071
SWIDTH 850 0
DWIDTH 12 0
BBX 14 13 0 0
BITMAP
00006DFEBBD000
0008FD9ACFF100
001FE1001FF000
005F90004FD000
006F80008FA000
004FC000EF8000
000CFC9AFF6000
0001AEFFFF4000
0000009FBF2000
410005F89F1003
D9005FB0AF109A
AFABFC107FBBE3
1AEE81001BEC30
ENDCHAR
STARTCHAR uni0430
ENCODING 1072
SWIDTH 470 0
DWIDTH 7 0
BBX 9 7 0 0
BITMAP
006DB50000
06FDDF1000
1ED1CE0000
6F60FB0110
7F44F91C50
5FCDEDDC10
0BE94EB100
ENDCHAR
STARTCHAR uni0431
ENCODING 1073
SWIDTH 473 0
DWIDTH 7 0
BBX 9 14 0 0
BITMAP
0000043000
004AEF8000
03FD961000
05F6000000
01DE200000
003FC10000
0005F80000
02BEFE1000
0CFAFF3000
4F91FFBB50
6F60BFEC30
6F51EC0000
3FCCF50000
07EE700000
ENDCHAR
STARTCHAR uni0432
ENCODING 1074
SWIDTH 473 0
DWIDTH 7 0
BBX 9 14 0 0
BITMAP
0009E70000
006FDE0000
00DA6E0000
04F57C0000
08F1C80000
0CE3E10000
0EBA600000
2FDFF70000
3FF7FF2000
3FA0FFBC60
3F807FFD40
1FA07F1000
0BFAFA0000
02CEA10000
ENDCHAR
STARTCHAR uni0433
ENCODING 1075
SWIDTH 380 0
DWIDTH 5 0
BBX 8 7 0 0
BITMAP
0AEE9000
2EADF200
002CD000
07EA2020
4F7005E1
6FC9CF90
1AEEC600
ENDCHAR
STARTCHAR uni0434
ENCODING 1076
SWIDTH 479 0
DWIDTH 7 0
BBX 9 14 0 -7
BITMAP
006DB50000
06FDDF0000
1ED1CD0000
6F60FB0200
7F44F97F30
5FCDFEF800
0BEBFE4000
003EF20000
03EEE00000
1E8DA00000
8C2F600000
E68F100000
FCF9000000
7EB1000000
ENDCHAR
STARTCHAR uni0435
ENCODING 1077
SWIDTH 393 0
DWIDTH 6 0
BBX 8 7 0 0
BITMAP
02BEB100
0DEBF500
5F63F400
7F9DB021
6FC504E4
2FEACFB0
04CED700
ENDCHAR
STARTCHAR uni0436
ENCODING 1078
SWIDTH 717 0
DWIDTH 10 0
BBX 12 7 0 0
BITMAP
06EB1D66ED20
0CDEAF7FBE80
042BFFBE0E60
150BEFEB0204
9E1EBFFC008C
BFBE6F8FBBF5
4ED44D06ED50
ENDCHAR
STARTCHAR uni0437
ENCODING 1079
SWIDTH 435 0
DWIDTH 6 0
BBX 9 14 -1 -7
BITMAP
004CEC2000
00EC9F8000
00200E7000
00019E2000
019FC31A80
02FD24ED30
005EEF9100
001BF80000
01CDF70000
0AD4F60000
3F37F20000
7D1DC00000
8ECF400000
3DD5000000
ENDCHAR
STARTCHAR uni0438
ENCODING 1080
SWIDTH 462 0
DWIDTH 6 0
BBX 9 7 0 0
BITMAP
07E04E1000
0DC0AE0000
2F90EC0000
4F75F90210
5F8DF72E30
4FFBFDEB00
0BD2BE9000
ENDCHAR
STARTCHAR uni0439
ENCODING 1081
SWIDTH 462 0
DWIDTH 6 0
BBX 9 12 0 0
BITMAP
0000014000
05D0099000
06FBBF3000
00AFD50000
0000000000
07E04E1000
0DC0AE0000
2F90EC0000
4F75F90210
5F8DF72E30
4FFBFDEB00
0BD2BE9000
ENDCHAR
STARTCHAR uni043A
ENCODING 1082
SWIDTH 465 0
DWIDTH 7 0
BBX 9 7 0 0
BITMAP
08D2BE8000
0EBCECF000
2FBF67D000
3FEF312210
4FFF502E40
4FCEEAEC00
1D63CEA100
ENDCHAR
STARTCHAR uni043B
ENCODING 1083
SWIDTH 549 0
DWIDTH 8 0
BBX 10 7 0 0
BITMAP
00009E4000
0002FF6000
0008FF6000
461ECF5042
DA7F6F62E4
EEEA2FDDB0
7EB10AE910
ENDCHAR
STARTCHAR uni043C
ENCODING 1084
SWIDTH 734 0
DWIDTH 10 0
BBX 13 7 0 0
BITMAP
0001DA06E50000
0007FC2FF70000
000CEC8DF60000
572FBDE8F60300
EB7F6FF3F62E10
EEE94FB1FDE800
7EB11D40AE8000
ENDCHAR
STARTCHAR uni043D
ENCODING 1085
SWIDTH 475 0
DWIDTH 7 0
BBX 9 7 0 0
BITMAP
08D02E4000
0EB07F2000
2FC8CE0000
3FFFFC0220
4F50E91D60
4F50EDCC10
1D309EA100
ENDCHAR
STARTCHAR uni043E
ENCODING 1086
SWIDTH 451 0
DWIDTH 6 0
BBX 9 7 0 0
BITMAP
02BEC20000
0DFCFC0000
5F75FFAC10
7F40CFEB10
7F50CC0000
3FEBF50000
06EE700000
ENDCHAR
STARTCHAR uni043F
ENCODING 1087
SWIDTH 496 0
DWIDTH 7 0
BBX 9 7 0 0
BITMAP
08D09E4000
0EB9FF6000
2FAEAF4000
3FE79F1030
4FF1BE09B0
4FB0CFBF40
1D606EC400
ENDCHAR
STARTCHAR uni0440
ENCODING 1088
SWIDTH 481 0
DWIDTH 7 0
BBX 11 14 -2 -7
BITMAP
001C8AE70000
002FFCEF1000
001FC09F3000
001F90BF1120
006F93FB0B80
00DFCDFCDE20
05EFFCAEB200
0B9F70000000
1F5F60000000
5D5F40000000
8A6F10000000
A99C00000000
9EE700000000
3EB100000000
ENDCHAR
STARTCHAR uni0441
ENCODING 1089
SWIDTH 368 0
DWIDTH 5 0
BBX 7 7 0 0
BITMAP
02BEA000
0CFBF200
5F84E100
8F402030
7F5007E0
3FEADF60
05DEC400
ENDCHAR
STARTCHAR uni0442
ENCODING 1090
SWIDTH 744 0
DWIDTH 10 0
BBX 13 7 0 0
BITMAP
08D1AE23DB0000
0EBAFF5EFD0000
2FBEBFB9FB0000
3FE69FE2F80300
4FF1BF84F62E30
4FB0BF35FCEA00
1D607C01DE8000
ENDCHAR
STARTCHAR uni0443
ENCODING 1091
SWIDTH 479 0
DWIDTH 7 0
BBX 9 14 0 -7
BITMAP
07E04E1000
0DC0AF0000
2F90ED0000
4F75FA0300
5F8DF87F30
4FFDFEF700
0BD7FD3000
003EF20000
03EED00000
1D7DA00000
9B2F600000
E68E100000
FCF8000000
8EA1000000
ENDCHAR
STARTCHAR uni0444
ENCODING 1092
SWIDTH 721 0
DWIDTH 10 0
BBX 12 17 0 -5
BITMAP
000007D00000
00000CD00000
00000FA00000
00003F700000
00005F400000
006DFF6EB100
06FDDFDCF600
1ED1CF44F800
6F60FF15F602
7F44FD0BF16D
5FCDFCAFEAF6
0BE7EFD9ED50
0001F7000000
0002F7000000
0002F7000000
0003F7000000
0001E4000000
ENDCHAR
STARTCHAR uni0445
ENCODING 1093
SWIDTH 529 0
DWIDTH 7 0
BBX 10 7 0 0
BITMAP
06EC3BE600
0CDEFDE800
053BF55200
140BF20030
9E0EF303E3
BFBFFD9EA0
4ED48EE800
ENDCHAR
STARTCHAR uni0446
ENCODING 1094
SWIDTH 501 0
DWIDTH 7 0
BBX 9 12 0 -5
BITMAP
08E04E1000
0DC0AE0000
2F90EC0000
4F65F80000
5F8DF60640
4FFBFEBF40
0BD2AFD300
0008FE0000
009CAB0000
02F4E60000
03FFC00000
0067100000
ENDCHAR
STARTCHAR uni0447
ENCODING 1095
SWIDTH 555 0
DWIDTH 8 0
BBX 11 8 -1 0
BITMAP
0002E9000000
0009DFFFD000
000D75DF9000
005F28F80000
00D95F800130
09D1AF102D80
1E30AFBAFD10
00002CED8100
ENDCHAR
STARTCHAR uni0448
ENCODING 1096
SWIDTH 693 0
DWIDTH 10 0
BBX 12 7 0 0
BITMAP
07E05E01D500
0DC0BE06F300
2F91FC0BF100
4F66FA2FC012
5F8DFAAFA0C7
4FFCEFDDECD1
0BD39E47EB20
ENDCHAR
STARTCHAR uni0449
ENCODING 1097
SWIDTH 732 0
DWIDTH 10 0
BBX 12 12 0 -5
BITMAP
07E05E01D500
0DC0BE06F300
2F91FC0BF000
4F66FA2FC000
5F8DFAAFA036
4FFCEFDDFAF7
0BD39E46FE60
0000006EF300
000006E9E000
00000E7CA000
00000EFE2000
000004820000
ENDCHAR
STARTCHAR uni044A
ENCODING 1098
SWIDTH 542 0
DWIDTH 8 0
BBX 10 7 0 0
BITMAP
4FFF800000
06FB200000
09FADD3000
0CFDBFB011
0DF11FB1C5
0AFBCFDDD1
02BEECEA10
ENDCHAR
STARTCHAR uni044B
ENCODING 1099
SWIDTH 702 0
DWIDTH 10 0
BBX 12 7 0 0
BITMAP
07E10003E400
0EE0000AF300
2FCAE93FF100
3FFBDFDFD001
3FA06FDFB099
1EEAEE3DFBE3
04CEB305EC30
ENDCHAR
STARTCHAR uni044C
ENCODING 1100
SWIDTH 517 0
DWIDTH 7 0
BBX 9 7 0 0
BITMAP
07E1000000
0EE0000000
2FCAEB0000
3FFBDF5010
3FA06F64E0
1EEAEFBF90
04CFCEE700
ENDCHAR
STARTCHAR uni044D
ENCODING 1101
SWIDTH 466 0
DWIDTH 7 0
BBX 9 7 0 0
BITMAP
07DFC40000
09AAEE1000
0028CFBB40
275FFFFD30
7E009F3000
5FBAFB0000
09EEA10000
ENDCHAR
STARTCHAR uni044E
ENCODING 1102
SWIDTH 676 0
DWIDTH 9 0
BBX 12 7 0 0
BITMAP
08D02BED4000
0EA0CFBFE000
2FDAF93FFBC3
3FFFF60AFFC2
4F54F70AE000
4F51EEAF7000
1D304DE90000
ENDCHAR
STARTCHAR uni044F
ENCODING 1103
SWIDTH 543 0
DWIDTH 8 0
BBX 10 7 0 0
BITMAP
002CFCE200
00AEACF100
00CB1CD000
8A9FFFA075
EB18FE82E4
DF9DABCDA0
5EE807E900
ENDCHAR
STARTCHAR uni0450
ENCODING 1104
SWIDTH 393 0
DWIDTH 6 0
BBX 8 13 0 0
BITMAP
03400000
0BF10000
05F70000
009D0000
001C2000
00000000
02BEB100
0DEBF500
5F63F400
7F9DB021
6FC504E4
2FEACFB0
04CED700
ENDCHAR
STARTCHAR uni0451
ENCODING 1105
SWIDTH 393 0
DWIDTH 6 0
BBX 8 11 0 0
BITMAP
00100100
07F58F40
06E47E20
00000000
02BEB100
0DEBF500
5F63F400
7F9DB021
6FC504E4
2FEACFB0
04CED700
ENDCHAR
STARTCHAR uni0452
ENCODING 1106
SWIDTH 514 0
DWIDTH 7 0
BBX 9 20 0 -7
BITMAP
007E100000
00CF100000
00FD000000
2FFFFF2000
0AFB870000
09F3000000
0CF18E5000
0EC7FF7000
1FBEAF6000
2FE97F4020
3FF29F4CA0
3FD0AFEC20
0D70CF9000
0008FA0000
009EF70000
07E7F30000
1E49E00000
6D1E800000
7FCF200000
2DE5000000
ENDCHAR
STARTCHAR uni0453
ENCODING 1107
SWIDTH 380 0
DWIDTH 5 0
BBX 8 13 0 0
BITMAP
00006200
0004F800
000AE200
002F6000
005A0000
00000000
0AEE9000
2EADF200
002CD000
07EA2020
4F7005E1
6FC9CF90
1AEEC600
ENDCHAR
STARTCHAR uni0454
ENCODING 1108
SWIDTH 379 0
DWIDTH 5 0
BBX 8 7 0 0
BITMAP
03CEC200
1DEAE800
5FC85200
7FFF3050
7F6006F1
2FE9BF70
04CEC500
ENDCHAR
STARTCHAR uni0455
ENCODING 1109
SWIDTH 427 0
DWIDTH 6 0
BBX 9 7 -1 0
BITMAP
0004E40000
000CF00000
004FF40000
00CAEE1150
08D18F7BB0
1E5EFFFF40
011CFFD500
ENDCHAR
STARTCHAR uni0456
ENCODING 1110
SWIDTH 246 0
DWIDTH 3 0
BBX 6 11 0 0
BITMAP
001000
07FB00
07F800
000000
08D000
0EC000
2FA000
4F7021
5F62E3
3FDEB0
0AE910
ENDCHAR
STARTCHAR uni0457
ENCODING 1111
SWIDTH 246 0
DWIDTH 3 0
BBX 6 11 0 0
BITMAP
110110
DE1ED0
BC0CB0
000000
08D000
0EC000
2FA000
4F7021
5F62E3
3FDEB0
0AE910
ENDCHAR
STARTCHAR uni0458
ENCODING 1112
SWIDTH 254 0
DWIDTH 4 0
BBX 9 17 -4 -7
BITMAP
00000AE500
00000DF500
0000011000
00000AD000
00000ED000
00000FB000
00002F9020
00004F77F0
00005FEE60
00007FD300
0003EF1000
004EFC0000
02E6E90000
0AA4F40000
1F4AE00000
2FCF700000
0AE9000000
ENDCHAR
STARTCHAR uni0459
ENCODING 1113
SWIDTH 794 0
DWIDTH 11 0
BBX 13 7 0 0
BITMAP
00009E40000000
0002FF60000000
0008FF8BE90000
341ECFFADF3040
DA7F6F808F47D0
EEEA1EEAEFBF50
7EB105DFCED500
ENDCHAR
STARTCHAR uni045A
ENCODING 1114
SWIDTH 751 0
DWIDTH 11 0
BBX 13 7 0 0
BITMAP
08D03E50000000
0EB08F20000000
2FC8DFAED20000
3FFFFFBBF90210
4F50CD02FA2D40
4F509FACFCDB00
1D301AEDDE9100
ENDCHAR
STARTCHAR uni045B
ENCODING 1115
SWIDTH 502 0
DWIDTH 7 0
BBX 9 13 0 0
BITMAP
007E100000
00CF100000
00FD000000
2FFFFF2000
0AFB870000
09F3000000
0CF08E5000
0EC7FF7000
1FBEAF5000
2FE87F2030
3FF2AF07C0
3FD0BFBF50
0D705ED400
ENDCHAR
STARTCHAR uni045C
ENCODING 1116
SWIDTH 465 0
DWIDTH 7 0
BBX 9 13 0 0
BITMAP
0000052000
00003F9000
00009F3000
0001F70000
0004A00000
0000000000
08D2BE8000
0EBCECF000
2FBF67D000
3FEF312210
4FFF502E40
4FCEEAEC00
1D63CEA100
ENDCHAR
STARTCHAR uni045D
ENCODING 1117
SWIDTH 462 0
DWIDTH 6 0
BBX 9 13 0 0
BITMAP
0160000000
05F7000000
01DD000000
003F400000
0007800000
0000000000
07E04E1000
0DC0AE0000
2F90EC0000
4F75F90210
5F8DF72E30
4FFBFDEB00
0BD2BE9000
ENDCHAR
STARTCHAR uni045E
ENCODING 1118
SWIDTH 479 0
DWIDTH 7 0
BBX 9 19 0 -7
BITMAP
0000014000
05D0099000
06FBBF3000
00AFD50000
0000000000
07E04E1000
0DC0AF0000
2F90ED0000
4F75FA0300
5F8DF87F30
4FFDFEF700
0BD7FD3000
003EF20000
03EED00000
1D7DA00000
9B2F600000
E68E100000
FCF8000000
8EA1000000
ENDCHAR
STARTCHAR uni045F
ENCODING 1119
SWIDTH 600 0
DWIDTH 8 0
BBX 9 9 0 -2
BITMAP
08E04E1000
0DC0AE0000
2F90EC0000
4F65F90210
5F8DF72E30
3FFBFDEB00
0CF2BE9100
09C0000000
0780000000
ENDCHAR
STARTCHAR uni0462
ENCODING 1122
SWIDTH 721 0
DWIDTH 10 0
BBX 10 13 0 0
BITMAP
002E600000
006F900000
1EFFFE3000
18DFA81000
00EF000000
02FEBEED70
3CFEB9AEF8
7EF70005FD
07F60002FE
07F70005FB
05FA001CF5
00DFAAEF90
002BEEB500
ENDCHAR
STARTCHAR uni0463
ENCODING 1123
SWIDTH 517 0
DWIDTH 7 0
BBX 9 10 0 0
BITMAP
0063000000
05F8000000
5CFA600000
8FFFC00000
1FB0000000
3FBAEB0000
4FFACF5020
3FA06F64E0
1EE9DFBF80
04CFCEE700
ENDCHAR
STARTCHAR uni046A
ENCODING 1130
SWIDTH 1234 0
DWIDTH 17 0
BBX 19 13 0 0
BITMAP
002EFFFFFFFFFFFFF600
0018AFF888888BFD8200
00000BF300000AF40000
000006F600001FD00000
000003F90000AF700000
000000CE2028FB000000
0000003EFFFF80000000
000004EECFCFD1000000
00003EE29F57F9000000
0000AF60BF31EF100020
5B03FC00DF109F900A80
8FBDF300FE001EFACE20
1BFD4000D90004DEB200
ENDCHAR
STARTCHAR uni046B
ENCODING 1131
SWIDTH 788 0
DWIDTH 11 0
BBX 13 13 0 0
BITMAP
0000001CD00000
0000005FF00000
0000009EE00000
000000DDD00000
000002FBC00000
000006F9B00000
000ADDBACCD100
0007DF6BFC7000
00008F2BD10000
1401EF4EC00030
9E09FFAFF107C0
BFBF7FF7FDAF50
4ED60CC06EE600
ENDCHAR
STARTCHAR uni0472
ENCODING 1138
SWIDTH 816 0
DWIDTH 11 0
BBX 12 13 0 0
BITMAP
00006CEE9100
001BFC9CFD10
009F9000BF90
03FD10003FE0
09F700000FF1
0DF986201EF2
0FFFFFFFFFF1
1FF202789FE0
1FF100006FA0
0DF40000CF40
08FB0008FA00
01DFD9CFC100
0019DEC70000
ENDCHAR
STARTCHAR uni0473
ENCODING 1139
SWIDTH 451 0
DWIDTH 6 0
BBX 9 7 0 0
BITMAP
02BEB10000
0DEAFA0000
5F709E5810
7FFFFFFF20
7FB8EE8400
3FDAF80000
06EE900000
ENDCHAR
STARTCHAR uni0474
ENCODING 1140
SWIDTH 797 0
DWIDTH 11 0
BBX 13 13 1 0
BITMAP
09D100007FFD60
0EF10000CFCEB0
1FF00000FF1000
3FD00003FD0000
3FC00007F90000
4FB0000BF50000
4FB0001EE00000
3FC0005F900000
2FD000BF300000
0EF104FB000000
0BF72DF2000000
05FFFF60000000
008ED500000000
ENDCHAR
STARTCHAR uni0475
ENCODING 1141
SWIDTH 420 0
DWIDTH 6 0
BBX 8 7 0 0
BITMAP
3E404EE7
4F60AF74
4F62F900
3F78F300
2F9EA000
1FFF2000
0AE60000
ENDCHAR
STARTCHAR uni048A
ENCODING 1162
SWIDTH 890 0
DWIDTH 12 0
BBX 15 20 0 -3
BITMAP
000009A00B700000
00000AFACF400000
000002CFD5000000
0000000000000000
03BEC10002E70000
3ECDF70005FA0000
D907F80007F80000
8008F70009F60000
000BF4000CF40000
000EF1001FF20000
002FD0005FF00000
005FA000AFD00000
008F7001EFB00000
00AF5009BF900310
00BF707E6FB04E30
008FFEF53FFEFA00
001BED5008EFB000
0000000000DD1000
0000000008F50000
000000000BA00000
ENDCHAR
STARTCHAR uni048B
ENCODING 1163
SWIDTH 462 0
DWIDTH 6 0
BBX 9 15 0 -3
BITMAP
0000014000
05D009A000
06FBBF3000
00AFD50000
0000000000
07E04E1000
0DC0AE0000
2F90EC0000
4F65F90210
5F8DF72E30
4FFBFDEA00
0BD2BFB000
0000AE1000
0004F50000
0002500000
ENDCHAR
STARTCHAR uni048C
ENCODING 1164
SWIDTH 721 0
DWIDTH 10 0
BBX 10 13 0 0
BITMAP
002E600000
006F900000
1EFFFE3000
18DFA81000
00EF000000
02FEBEED70
3CFEB9AEF8
7EF70005FD
07F60002FE
07F70005FB
05FA001CF5
00DFAAEF90
002BEEB500
ENDCHAR
STARTCHAR uni048D
ENCODING 1165
SWIDTH 517 0
DWIDTH 7 0
BBX 9 10 0 0
BITMAP
0063000000
05F8000000
5CFA600000
8FFFC00000
1FB0000000
3FBAEB0000
4FFACF5020
3FA06F64E0
1EE9DFBF80
04CFCEE700
ENDCHAR
STARTCHAR uni048E
ENCODING 1166
SWIDTH 805 0
DWIDTH 11 0
BBX 13 14 0 -1
BITMAP
00003AEFD80000
0008FDAAEFB000
007F80002EF400
02F909D00AF700
08F20FF19BF700
0DB02FD0BFF600
2F704FB07FEF50
3F56CFDDFD2310
5F49FFFD810000
5F40BF30000000
4F60EF10000000
1FB3FD00000000
09FEF900000000
009ED200000000
ENDCHAR
STARTCHAR uni048F
ENCODING 1167
SWIDTH 481 0
DWIDTH 7 0
BBX 11 14 -2 -7
BITMAP
001D9AE70000
002FFBEF1000
002FC09F3000
001F90AF1000
004F9CEB0870
00BFCEFBCE30
04EFFCAEB200
0AAF70000000
1F5F60000000
5D5F40000000
8A6F10000000
A99C00000000
9DE700000000
3EB100000000
ENDCHAR
STARTCHAR uni0490
ENCODING 1168
SWIDTH 645 0
DWIDTH 9 0
BBX 13 16 0 0
BITMAP
00000000001E50
00000000003F60
00000000006F40
006ADEFFFFFF10
0BFEDFB8887300
5F80AF50000000
7F30DF20000000
5F60FF00000000
0413FC00000000
0005FA00000000
0007F800000000
0009F600000000
000CF400000000
000EF200000000
000FF100000000
000CB000000000
ENDCHAR
STARTCHAR uni0491
ENCODING 1169
SWIDTH 394 0
DWIDTH 6 0
BBX 6 9 0 0
BITMAP
00005C
00019D
08FFFA
0ED871
2F8000
3F6000
4F5000
4F5000
1D3000
ENDCHAR
STARTCHAR uni0492
ENCODING 1170
SWIDTH 635 0
DWIDTH 9 0
BBX 12 14 0 0
BITMAP
000000000010
005ADEFFFFFE
0BFEDFB88874
5F90AF500000
7F30CF300000
6F60FF000000
1822FD000000
00BFFFF70000
006CFC820000
0009F7000000
000BF4000000
000DF2000000
000FF1000000
000DC0000000
ENDCHAR
STARTCHAR uni0493
ENCODING 1171
SWIDTH 380 0
DWIDTH 5 0
BBX 8 7 0 0
BITMAP
0AEE9000
2EADF200
102DE000
9EFE3020
5FA935E1
6FC9CF90
1AEEC600
ENDCHAR
STARTCHAR uni0494
ENCODING 1172
SWIDTH 884 0
DWIDTH 12 0
BBX 14 21 0 -7
BITMAP
00000000001000
005ADEFFFFFE00
0AFEEFB8887400
4F91AF50000000
7F30DF30000000
6F50FF00000000
2B43FD00000000
0005FB3BEE8000
0007FBEB9EF400
0009FF5008F700
000BF80008F728
000EF2000AFAEC
000FF0000CFFD3
000CB0001EFA10
00000002DFD000
0000002EFF9000
000000CE9F5000
000006F5BF1000
00000BD2FA0000
00000BECF20000
000004ED400000
ENDCHAR
STARTCHAR uni0495
ENCODING 1173
SWIDTH 441 0
DWIDTH 6 0
BBX 8 12 0 -5
BITMAP
0AEE9000
2EADF200
002CD000
06EA2000
4F700045
6FC9CBF7
1CEEFE50
007FF200
08D9D000
1F6C9000
1FFE2000
04720000
ENDCHAR
STARTCHAR uni0496
ENCODING 1174
SWIDTH 1234 0
DWIDTH 17 0
BBX 19 18 0 -5
BITMAP
003BEB1006E3004DEA00
00CBBF900AF501EDBF40
00300CF10BF307F41500
000007F50DF11ED00000
000003F80EE08F700000
000000DE3FD8FC000000
0000003FFFFF81000000
000004EECFCFD1000000
00003EE29F57F9000000
0000AF60BF31EF200000
6C03FC00DF109FA10170
8FBDF300FE001EFFDED0
1BFD4000D90002CFF910
00000000000007FFA000
000000000000AF8F8000
000000000004F86F4000
000000000006FCEC0000
000000000001BFC20000
ENDCHAR
STARTCHAR uni0497
ENCODING 1175
SWIDTH 803 0
DWIDTH 11 0
BBX 13 12 0 -5
BITMAP
06EB1D66ED2000
0CDEAF7FBE8000
042BFFBE0E6000
150BEFEB020000
9E1EBFFC000460
BFBE6F8FBBAF70
4ED44D09FFE600
00000005EF3000
0000006D8E0000
000000E6CA0000
000000EFE20000
00000048200000
ENDCHAR
STARTCHAR uni0498
ENCODING 1176
SWIDTH 725 0
DWIDTH 10 0
BBX 10 18 0 -5
BITMAP
0005BEEB20
007FEABFD0
00ED100DF1
01FA000CF1
00B7001FC0
000000AF30
0003DFFE70
0002862BF6
07400006FA
2FB00009F9
1FE1003FF3
0BFC9AFF80
018DFFF800
0003DEF400
003EB7F100
00AF2CC000
00BFBF6000
004DE90000
ENDCHAR
STARTCHAR uni0499
ENCODING 1177
SWIDTH 445 0
DWIDTH 6 0
BBX 8 12 0 -5
BITMAP
05DFC300
2FCAFB00
1912F700
008FB100
3515F768
8F9BFDF7
2CFEFD40
006EF100
06DAC000
0D7C8000
0DFE2000
03830000
ENDCHAR
STARTCHAR uni049A
ENCODING 1178
SWIDTH 937 0
DWIDTH 13 0
BBX 15 18 0 -5
BITMAP
004BEFDA1004E500
05FD9BFF200BF500
0DD106F8001FE000
1F9008F7007F8000
0EC00AF502EE1000
08900BF32CF40000
00006EFBFD400000
0000DFFFE3000000
00002FC5FE200000
23005F90AF900000
9D10AF503FE31480
6FCAFD100AFFEF90
07DEB20001CFE600
000000001AFF8000
00000001DE8F5000
00000007F58F1000
00000008FBFA0000
00000002CFB10000
ENDCHAR
STARTCHAR uni049B
ENCODING 1179
SWIDTH 531 0
DWIDTH 7 0
BBX 9 12 0 -5
BITMAP
08D1BE8000
0EBCEBF000
2FBF67D000
3FEF312000
4FFF400270
4FCED9AEA0
1D64CFF800
0003DF6000
003E7F2000
00B99D0000
00CFF40000
0028400000
ENDCHAR
STARTCHAR uni049C
ENCODING 1180
SWIDTH 937 0
DWIDTH 13 0
BBX 15 13 0 0
BITMAP
004BEFDA1004E500
05FD9BFF200BF500
0DD106F8001FE000
1F9008F7208F8000
0EC00AF7E2EE1000
08900BF7FDF40000
00006EFCFD400000
0000DFFFE3000000
00002FCBFE200000
22005F9CEF900030
9D10AF6C7FF307D0
6FCAFD110AFECF60
07DEB20001AED500
ENDCHAR
STARTCHAR uni049D
ENCODING 1181
SWIDTH 485 0
DWIDTH 7 0
BBX 9 7 0 0
BITMAP
08D08EB000
0EB3FAF400
2FCBB2F200
3FEE801130
4FFF900B80
4FDDFACE20
1D32CFC300
ENDCHAR
STARTCHAR uni049E
ENCODING 1182
SWIDTH 937 0
DWIDTH 13 0
BBX 15 13 0 0
BITMAP
004BEFDA1004E500
05FD9BFF300BF500
0DD106F9001FE000
1F918CFC507F8000
0EC4FFFFA2EE1000
09A00BF32CF40000
00006EFBFD400000
0000DFFFE3000000
00002FC5FE200000
22005F90AF900030
9D10AF503FF307D0
6FCAFD100AFECF60
07DEB20001AED500
ENDCHAR
STARTCHAR uni049F
ENCODING 1183
SWIDTH 473 0
DWIDTH 7 0
BBX 9 13 0 0
BITMAP
007E100000
00CF100000
00FE000000
2FFFFF2000
0AFB870000
09F3000000
0CE1AE9000
0ECAEBF100
1FBF85E100
2FEF412110
3FFF601D60
2FDDE9DD10
0C82CFB100
ENDCHAR
STARTCHAR uni04A0
ENCODING 1184
SWIDTH 937 0
DWIDTH 13 0
BBX 15 13 0 0
BITMAP
001012450004E400
09FFFFFF300BF600
05ABBCFA001FF100
000008F7007F9000
000009F502EE2000
00000BF32CF40000
00006EFBFD400000
0000DFFFE3000000
00002FC5FE200000
22005F90AF900030
9D10AF503FF307D0
6FCAFD100AFECF60
07DEB20001AED500
ENDCHAR
STARTCHAR uni04A1
ENCODING 1185
SWIDTH 555 0
DWIDTH 8 0
BBX 10 7 0 0
BITMAP
4FFF28EB00
17DE8FBF30
00DCEA3F20
00FEF70302
00FFF800B8
00FFBFACE2
00BA1AFC30
ENDCHAR
STARTCHAR uni04A2
ENCODING 1186
SWIDTH 907 0
DWIDTH 13 0
BBX 16 19 -1 -5
BITMAP
0000000000017400
004CEA00001DFF20
06FADF40008F4E40
1F607F7001EA0E30
18007F7005F62F10
00008F6009F3B900
0000AF400CFCC100
0038DFA99FF81000
008FFFEDCFC00000
0003FB002FB00000
0006F8002FD00000
000AF5000EF40064
000DF20009FFFDF4
000BA000019FFC30
0000000004DFF200
000000005FBBE000
00000000DE1EA000
00000000EEBF4000
000000007EE60000
ENDCHAR
STARTCHAR uni04A3
ENCODING 1187
SWIDTH 515 0
DWIDTH 7 0
BBX 9 12 0 -5
BITMAP
08D02E4000
0EB07F2000
2FC8DE0000
3FFFFB0000
4F50F90570
4F50EFBF60
1D307FD400
0006FF2000
007D9E0000
00E6C90000
00EFE20000
0047200000
ENDCHAR
STARTCHAR uni04A4
ENCODING 1188
SWIDTH 873 0
DWIDTH 12 0
BBX 17 13 -1 0
BITMAP
004BEA000007EFEC40
05FADF40005FC88830
1E707F7000DF200000
29007F7004FA000000
00008F6009F5000000
0000AF400CF2000000
0038DFA99FE0000000
008FFFEDCFD0000000
0003FB002FC0000000
0006F8001FC0002000
000AF5000EF104E000
000DF20008FCAF8000
000BA00001AED60000
ENDCHAR
STARTCHAR uni04A5
ENCODING 1189
SWIDTH 475 0
DWIDTH 7 0
BBX 9 8 0 0
BITMAP
0000005200
08D02EF600
0EB07F3000
2FC8CE0000
3FFFFC0220
4F50E91D60
4F50EDCC10
1D309EA100
ENDCHAR
STARTCHAR uni04A8
ENCODING 1192
SWIDTH 997 0
DWIDTH 14 0
BBX 16 13 0 0
BITMAP
00018DD000000000
001CFFA04AB81000
00AFB109FFFFD100
03FD106FD21BF900
09F700DF3003FE00
0DF202FD0000FF10
0FF004FB0000FF00
1FF004FB0002FD00
0FF102FD0008F800
0CF500DF404FD100
06FD205FE9FE3398
00AFFDCFFFFEEFF6
0006CEFDAAEFD930
ENDCHAR
STARTCHAR uni04A9
ENCODING 1193
SWIDTH 574 0
DWIDTH 8 0
BBX 10 7 0 0
BITMAP
02BE111000
0DE77FF400
5F72F8DA00
7F46F1AA03
7F46F4F49C
2FDAFFEDF5
05DECDEB30
ENDCHAR
STARTCHAR uni04AA
ENCODING 1194
SWIDTH 781 0
DWIDTH 11 0
BBX 13 20 0 -7
BITMAP
00006CED800000
001BFD9DF60000
009F9002FB0000
03FD0001FC0000
09F70001F80000
0DF20000100000
0FF10000000000
1FF00000000000
0FF10000000000
0DF40000040220
07FB1001BC4E60
00CFD9AEFDE800
0018DFDAFE4000
0000001BF50000
000001CEF20000
00000AB9E00000
00005E1D900000
0000AA4F400000
0000BDDC000000
00005EC2000000
ENDCHAR
STARTCHAR uni04AB
ENCODING 1195
SWIDTH 431 0
DWIDTH 6 0
BBX 8 12 0 -5
BITMAP
02BEA000
0CEBF200
5F84F100
7F412000
8F500054
4FE9CBF4
07EFFD30
007FE100
09CAB000
2F4E7000
3FFD1000
05710000
ENDCHAR
STARTCHAR uni04AC
ENCODING 1196
SWIDTH 697 0
DWIDTH 10 0
BBX 13 18 0 -5
BITMAP
0049CEEFFFFD60
0BFC9BFD889A40
5F6006F9000000
7F3009F6000000
3F600CF4000000
02000EF1000000
00002FE0000000
00004FB0000000
00006F90000000
00008F70000000
0000AF60000000
0000CFF7000000
00008FF6000000
0007FBF4000000
005F87F1000000
00AF3DB0000000
008FFF30000000
00068300000000
ENDCHAR
STARTCHAR uni04AD
ENCODING 1197
SWIDTH 784 0
DWIDTH 11 0
BBX 13 12 0 -5
BITMAP
08D1AE23DB0000
0EBAFF6EFD0000
2FBEBFBAFB0000
3FE69FE2F80000
4FF1BF84F60630
4FB0BF34FEAF40
1D607C00BFD300
00000009FE0000
000000ABBA0000
000003F4E60000
000003FFC00000
00000067100000
ENDCHAR
STARTCHAR uni04AE
ENCODING 1198
SWIDTH 677 0
DWIDTH 9 0
BBX 9 13 2 0
BITMAP
DB00007E40
DF4003FE10
8F900BF600
2FE14FC000
0BF6CF4000
06FEFA0000
01EFE20000
009F800000
007F500000
008F400000
009F300000
00AF300000
008E100000
ENDCHAR
STARTCHAR uni04AF
ENCODING 1199
SWIDTH 472 0
DWIDTH 7 0
BBX 9 12 0 -5
BITMAP
3E405E4000
3F70EF7000
1F90FF5320
0EB0EFFF60
0DC5F88600
0BDDA00000
0AFD100000
09F4000000
08F4000000
07F5000000
06F6000000
03E4000000
ENDCHAR
STARTCHAR uni04B0
ENCODING 1200
SWIDTH 677 0
DWIDTH 9 0
BBX 9 13 2 0
BITMAP
DB00008E40
DF4003FE10
7FA00BF600
2FE15FC000
0BF6DF3000
05FEF90000
00EFE10000
18DFC70000
4FFFFE1000
008F400000
009F400000
00AF300000
008E100000
ENDCHAR
STARTCHAR uni04B1
ENCODING 1201
SWIDTH 472 0
DWIDTH 7 0
BBX 9 12 0 -5
BITMAP
3E405E4000
3F70EF7000
1F90FF5320
0FB0EFFF60
0DC5F88600
0CDDA00000
0AFE100000
AFFFD00000
4BF9500000
07F5000000
06F5000000
03E4000000
ENDCHAR
STARTCHAR uni04B2
ENCODING 1202
SWIDTH 716 0
DWIDTH 10 0
BBX 13 18 -1 -5
BITMAP
006DE90003DA00
08FAEF701DF500
0B303FD0BF8000
00000DFAFB0000
000009FFD10000
000005FE200000
00000CFE000000
00009FFF300000
0006FC9F700000
003FE25FB00000
01EF501FF20480
0CF9000AFFDF80
1EB10001DFE500
0000001AFF6000
000001DE9F4000
000008F4AE0000
000009FBF80000
000003DEA10000
ENDCHAR
STARTCHAR uni04B3
ENCODING 1203
SWIDTH 601 0
DWIDTH 8 0
BBX 10 12 0 -5
BITMAP
06EC3BE600
0CDEFDE800
053BF56200
140BF20000
9E0EF30016
BFAFFC99EA
4ED5CFFF80
00003DF600
0003E8F200
000B99C000
000CFF4000
0003830000
ENDCHAR
STARTCHAR uni04B4
ENCODING 1204
SWIDTH 1040 0
DWIDTH 15 0
BBX 17 18 0 -5
BITMAP
0049CEFFEC41D80000
0AFDA9FF8833FB0000
5F7003FC0005FA0000
7F3007F80008F80000
5F600AF5000AF60000
07100DF2000EF30000
00001FE0002FF10000
00004FC0007FE00000
00006F9000CFD00000
00008F7005CFB00000
00009F702E6FC20410
00006FEAE81BFFBF30
00000AED7003CFD400
00000000007FFE1000
0000000008FADB0000
000000001FC2F80000
000000001FDCF20000
0000000008ED500000
ENDCHAR
STARTCHAR uni04B5
ENCODING 1205
SWIDTH 501 0
DWIDTH 7 0
BBX 9 15 0 -5
BITMAP
00BFFF7000
0068883000
0000000000
08E04E1000
0DC0AE0000
2F90EC0000
4F65F80000
5F8DF60640
4FFBFEBF40
0BD2AFD300
0008FE0000
009CAB0000
02F4E60000
03FFC00000
0067100000
ENDCHAR
STARTCHAR uni04B6
ENCODING 1206
SWIDTH 804 0
DWIDTH 11 0
BBX 12 18 1 -5
BITMAP
09D10005E300
0DF30009F500
0DF2000BF300
1FF0000EF200
3FC0004FF000
6F9000BFD000
6FB019EFB000
2FFEFF7F9000
05DFD55F7000
0000007F6000
0000008FE85D
0000003DFFF9
00000005EE50
000001AFF900
00000CE7F600
00005F77F200
00006FCEB000
00001BFB2000
ENDCHAR
STARTCHAR uni04B7
ENCODING 1207
SWIDTH 631 0
DWIDTH 9 0
BBX 12 13 -1 -5
BITMAP
0002E9000000
0009DFFFD000
000D75DF9000
005F28F80000
00CA5F800000
09D1AF100082
1E30AFA9DCE2
01003DEFFB20
000001BFC000
00000CAC8000
00005F4F3000
00005FFA0000
000007600000
ENDCHAR
STARTCHAR uni04B8
ENCODING 1208
SWIDTH 773 0
DWIDTH 11 0
BBX 10 13 1 0
BITMAP
09D10005E3
0DF30009F4
0DF2000BF3
1FF0500EF2
3FC0F34FF0
6F92F1BFD0
6FB4E8EFB0
2FFEFF8F90
05DFE74F80
000A807F60
0007509F40
000000AF30
0000008E10
ENDCHAR
STARTCHAR uni04B9
ENCODING 1209
SWIDTH 575 0
DWIDTH 8 0
BBX 11 9 -1 0
BITMAP
000000400000
0002D7E00000
0009EFEBE200
000D8CAFC000
005F35FA1000
01DA1EB00170
0AD16F501BC0
1E305FDAEE30
00000AEEA200
ENDCHAR
STARTCHAR uni04BA
ENCODING 1210
SWIDTH 755 0
DWIDTH 11 0
BBX 12 13 1 0
BITMAP
04E500000000
08F800000000
09F600000000
0BF400000000
0DF100000000
0FE000000000
2FC3AEE90000
5FDEC9EF6000
7FF6006F9000
9F90007F9011
BF40009F61C5
DF2000AFCDB1
AC00004EE900
ENDCHAR
STARTCHAR uni04BB
ENCODING 1211
SWIDTH 502 0
DWIDTH 7 0
BBX 9 14 0 0
BITMAP
0008E70000
005FDE0000
00CA6E0000
03F57C0000
07F2C70000
0BE4E10000
0DCD600000
0FFA8E5000
2FC8FF7000
3F9EAF5000
3FE87F2030
4FF2AF07C0
4FD0BFBF40
2E605ED400
ENDCHAR
STARTCHAR uni04BC
ENCODING 1212
SWIDTH 808 0
DWIDTH 11 0
BBX 13 13 0 0
BITMAP
0000029DFC3000
00003EFBAFE100
0001DF5008F500
0007F90006F700
010DF30006F700
2F7FE00008F500
2FFFFFFFFFF200
04BFD888884000
005FC000000000
002FE100000000
000BFB10000480
0002DFEA9BEFD0
000017CEEDA610
ENDCHAR
STARTCHAR uni04BD
ENCODING 1213
SWIDTH 483 0
DWIDTH 7 0
BBX 9 7 0 0
BITMAP
0009ED3000
009FAF9000
11FA0E8000
CBFACE2120
6DFE712C80
00DFAAFD20
002BEE9100
ENDCHAR
STARTCHAR uni04BE
ENCODING 1214
SWIDTH 808 0
DWIDTH 11 0
BBX 13 17 0 -4
BITMAP
0000029DFC3000
00003EFBAFE100
0001DF5008F500
0007F90006F700
010DF30006F700
2F7FE00008F500
2FFFFFFFFFF200
04BFD888884000
005FC000000000
002FE100000000
000BFB10000480
0002EFEA9BEFD0
00001CFFEDA610
00002F50000000
00006F10000000
00006FB8100000
00000AED100000
ENDCHAR
STARTCHAR uni04BF
ENCODING 1215
SWIDTH 483 0
DWIDTH 7 0
BBX 9 12 0 -5
BITMAP
0008ED2000
008FAF9000
01EA0D9000
A8F89F4000
AFFFD50880
03FE33AF40
007FFFE600
0005F91000
0007E00000
0008E31000
0003EFE000
0000141000
ENDCHAR
STARTCHAR uni04C0
ENCODING 1216
SWIDTH 495 0
DWIDTH 7 0
BBX 9 13 -1 0
BITMAP
006EFFFF90
0049CFC940
0000AF5000
0000CF3000
0000EF1000
0001FD0000
0003FB0000
0005F90000
0007F70000
0009F50000
000BF40000
069EFA8100
2FFFFFD100
ENDCHAR
STARTCHAR uni04C1
ENCODING 1217
SWIDTH 1234 0
DWIDTH 17 0
BBX 19 16 0 0
BITMAP
00000000220075000000
00000000BD14F5000000
000000005EFF80000000
003BEB1006F3004DEA00
00CBBF900AF501EDBF40
00300CF10BF307F41500
000007F50DF11ED00000
000003F80EE08F700000
000000DE3FD8FC000000
0000003FFFFF81000000
000004EECFCFD1000000
00003EE29F57F9000000
0000AF60BF31EF100020
5B03FC00DF109F900A80
8FBDF300FE001EFACE20
1BFD4000D90004DEB200
ENDCHAR
STARTCHAR uni04C2
ENCODING 1218
SWIDTH 717 0
DWIDTH 10 0
BBX 12 12 0 0
BITMAP
000000014000
0006D00A9000
0007FBBF3000
0000AFD50000
000000000000
06EB1D66ED20
0CDEAF7FBE80
042BFFBE0E60
150BEFEB0204
9E1EBFFC008C
BFBE6F8FBBF5
4ED44D06ED50
ENDCHAR
STARTCHAR uni04C3
ENCODING 1219
SWIDTH 937 0
DWIDTH 13 0
BBX 15 18 0 -5
BITMAP
004BEFDA1004E500
05FD9BFF200BF500
0DD106F8001FE000
1F9008F7007F8000
0EC00AF502EE1000
08900BF32CF40000
00006EFBFD400000
0000DFFFE3000000
00002FC5FE200000
23005F90AF900000
9D10AF503FE31480
6FCAFD100AFFEF90
07DEB20001CFE600
000000001AFF8000
00000001DE8F5000
00000007F58F1000
00000008FBFA0000
00000002CFB10000
ENDCHAR
STARTCHAR uni04C4
ENCODING 1220
SWIDTH 531 0
DWIDTH 7 0
BBX 9 12 0 -5
BITMAP
08D1BE8000
0EBCEBF000
2FBF67D000
3FEF312000
4FFF400270
4FCED9AEA0
1D64CFF800
0003DF6000
003E7F2000
00B99D0000
00CFF40000
0028400000
ENDCHAR
STARTCHAR uni04C5
ENCODING 1221
SWIDTH 861 0
DWIDTH 12 0
BBX 14 16 0 -3
BITMAP
00000002DD0000
00000008FF0000
0000000CFE0000
0000002FFD0000
0000006FFD0000
000000BDFC0000
000001F9FC0000
000007F5FD0000
00000DE0FD0000
43006F80EF0004
CC02EE10AF407C
9FADF5005FDAE4
1AED600008FF50
0000000004F800
000000001DD100
000000002E5000
ENDCHAR
STARTCHAR uni04C6
ENCODING 1222
SWIDTH 549 0
DWIDTH 8 0
BBX 10 10 0 -3
BITMAP
00009E4000
0002FF6000
0008FF6000
461ECF5042
DA7F6F62E4
EEEA2FDDC0
7EB10AFD10
000008F400
00002FA000
00004D2000
ENDCHAR
STARTCHAR uni04C7
ENCODING 1223
SWIDTH 907 0
DWIDTH 13 0
BBX 16 19 -1 -5
BITMAP
0000000000017400
004CEA00001DFF20
06FADF40008F4E40
1F607F7001EA0E30
18007F7005F62F10
00008F6009F3B900
0000AF400CFCC100
0038DFA99FF81000
008FFFEDCFC00000
0003FB002FB00000
0006F8002FD00000
000AF5000EF40064
000DF20009FFFDF4
000BA000019FFC30
0000000004DFF200
000000005FBBE000
00000000DE1EA000
00000000EEBF4000
000000007EE60000
ENDCHAR
STARTCHAR uni04C8
ENCODING 1224
SWIDTH 515 0
DWIDTH 7 0
BBX 9 12 0 -5
BITMAP
08D02E4000
0EB07F2000
2FC8DE0000
3FFFFB0000
4F50F90570
4F50EFBF60
1D307FD400
0006FF2000
007D9E0000
00E6C90000
00EFE20000
0047200000
ENDCHAR
STARTCHAR uni04C9
ENCODING 1225
SWIDTH 873 0
DWIDTH 12 0
BBX 15 17 -1 -3
BITMAP
0000000000017400
004CEA00001DFF20
06FADF40008F4E40
1F607F7001EA0E30
18007F7005F62F10
00008F6009F3B900
0000AF400CFCC100
0038DFA99FF81000
008FFFEDCFC00000
0003FB002FC00000
0006F8001FD00030
000AF5000EF206E0
000DF20008FEDF60
000BA000009FF800
00000000002FB000
0000000000CE2000
0000000001D60000
ENDCHAR
STARTCHAR uni04CA
ENCODING 1226
SWIDTH 475 0
DWIDTH 7 0
BBX 9 10 0 -3
BITMAP
08D02E4000
0EB07F2000
2FC8CE0000
3FFFFC0220
4F50E91D60
4F50FEDC10
1D30AFD100
00008F2000
0002F80000
0001600000
ENDCHAR
STARTCHAR uni04CB
ENCODING 1227
SWIDTH 773 0
DWIDTH 11 0
BBX 10 18 1 -5
BITMAP
09D10005E3
0DF30009F4
0DF2000BF3
1FF0000EF2
3FC0004FF0
6F9000BFD0
6FB019EFB0
2FFEFF7F90
05DFD55F80
0000007F60
0000009F40
000009EF30
00006FFE10
001BEF9000
00CE4F6000
04F86F2000
05FCEB0000
01BFC20000
ENDCHAR
STARTCHAR uni04CC
ENCODING 1228
SWIDTH 555 0
DWIDTH 8 0
BBX 11 10 -1 -2
BITMAP
0002E9000000
0009DFFFD000
000D75DF9000
005F28F80000
00D95F800130
09D1AF102D80
1E30AFBAFC10
00002CFFD100
0000000B9000
000000032000
ENDCHAR
STARTCHAR uni04CD
ENCODING 1229
SWIDTH 1133 0
DWIDTH 16 0
BBX 18 16 0 -3
BITMAP
0000009E5001DD1000
000001FF8007FF2000
000003FF800DFF1000
000006FF803FFF0000
000009FF809EDE0000
00000CCF80EAED0000
00001F9F94F5FC0000
00004F6EA9F1FC0000
00008F3DBDB0FD0000
3200CD0CEF60EE0002
CB04F80AFF10BF2099
AFAEE107FC006FCBE3
1BFC3002E60009FF40
00000000000008F600
0000000000002FB000
0000000000005D2000
ENDCHAR
STARTCHAR uni04CE
ENCODING 1230
SWIDTH 734 0
DWIDTH 10 0
BBX 13 10 0 -3
BITMAP
0001DA06E50000
0007FC2FF70000
000CEC8DF60000
572FBDE8F60300
EB7F6FF3F62E10
EEE94FB1FDEA00
7EB11D40BFC100
00000000CE2000
00000005F70000
00000007B00000
ENDCHAR
STARTCHAR uni04CF
ENCODING 1231
SWIDTH 222 0
DWIDTH 3 0
BBX 4 12 0 0
BITMAP
00AC
01FB
03F9
06F6
09F3
0BF1
0EE0
1FB0
3F90
5F70
7F50
6E20
ENDCHAR
STARTCHAR uni04D0
ENCODING 1232
SWIDTH 786 0
DWIDTH 11 0
BBX 13 16 0 0
BITMAP
00000022009400
000000CC15F300
0000006FFE7000
000006BEFFC600
0002CFFDBDF900
002DF910251000
00BF8000BF3000
05FC0000EF1000
0AF50002FC0000
0FF10006FA0000
2FE0000AF70000
3FD0001EF50000
2FE0006FF40030
0EF502EEF508B0
07FFCEC8FECF40
007DEA11BED400
ENDCHAR
STARTCHAR uni04D1
ENCODING 1233
SWIDTH 470 0
DWIDTH 7 0
BBX 9 12 0 0
BITMAP
0000005000
03E206D000
03FCAF6000
007EE70000
0000000000
006DB50000
06FDDF1000
1ED1CE0000
6F60FB0110
7F44F91C50
5FCDEDDC10
0BE94EB100
ENDCHAR
STARTCHAR uni04D2
ENCODING 1234
SWIDTH 786 0
DWIDTH 11 0
BBX 13 16 0 0
BITMAP
00000001011000
000000CF1DE000
000000BD1CC000
000006BEFEC600
0002CFFDBDF900
002DF910251000
00BF8000BF3000
05FC0000EF1000
0AF50002FC0000
0FF10006FA0000
2FE0000AF70000
3FD0001EF50000
2FE0006FF40030
0EF502EEF508B0
07FFCEC8FECF40
007DEA11BED400
ENDCHAR
STARTCHAR uni04D3
ENCODING 1235
SWIDTH 470 0
DWIDTH 7 0
BBX 9 11 0 0
BITMAP
0011011000
00DE1ED000
00CC0DA000
0000000000
006DB50000
06FDDF1000
1ED1CE0000
6F60FB0110
7F44F91C50
5FCDEDDC10
0BE94EB100
ENDCHAR
STARTCHAR uni04D4
ENCODING 1236
SWIDTH 1015 0
DWIDTH 14 0
BBX 16 13 0 0
BITMAP
000017CE37EFFFE1
0003DFFD4FE99970
003EFA205F900000
00CF80009F600000
05FD0000DF300000
0BF60001FF000000
0FF10005FFFFFE10
2FE00009FD999800
3FD0000EF8000000
2FE0005FF8000000
0EF401DDFD100049
06FEADE2BFEAADFB
006DEC3018DFEB60
ENDCHAR
STARTCHAR uni04D5
ENCODING 1237
SWIDTH 653 0
DWIDTH 9 0
BBX 11 7 0 0
BITMAP
005CE8DE7000
07FDCFDDF000
2FC1AF18E000
6F50ED9F6030
7F43FF9309E0
5FCDDFDAEF60
0AEB18EEB400
ENDCHAR
STARTCHAR uni04D6
ENCODING 1238
SWIDTH 686 0
DWIDTH 10 0
BBX 12 16 0 0
BITMAP
000013006700
00009E23E700
00003EFF9000
0003AEFE8100
005FFCADF900
00EF5001EE00
02FE0000EE00
01FF2000B700
006FEA500000
018EFF800000
0CF930000000
5FB000000000
8F8000000000
6FD2000004A3
0CFFBAABEFE2
006BEFEDB720
ENDCHAR
STARTCHAR uni04D7
ENCODING 1239
SWIDTH 393 0
DWIDTH 6 0
BBX 8 12 0 0
BITMAP
00000410
0B801E40
0CE9DC00
03DEB200
00000000
02BEB100
0DEBF500
5F63F400
7F9DB021
6FC504E4
2FEACFB0
04CED700
ENDCHAR
STARTCHAR uni04D8
ENCODING 1240
SWIDTH 792 0
DWIDTH 11 0
BBX 11 13 0 0
BITMAP
0005BEEC6000
008FEABFF800
01F91003FF30
005000009F90
000000005FB0
000000004FC0
06999999BFB0
1FFFFFFFFF90
2FE00000AF50
0FF10002EE10
0AF8001BF600
02EFCADF9000
002AEEC50000
ENDCHAR
STARTCHAR uni04D9
ENCODING 1241
SWIDTH 455 0
DWIDTH 6 0
BBX 9 7 0 0
BITMAP
09EEC30000
0B9AFD0000
1888DFAC20
7FFFFFFD10
9D00BF1000
7FABF90000
1AED910000
ENDCHAR
STARTCHAR uni04DA
ENCODING 1242
SWIDTH 792 0
DWIDTH 11 0
BBX 11 16 0 0
BITMAP
000011011000
0000DE1EE000
0000BD1DC000
0005BEEC6000
008FEABFF800
01F91003FF30
005000009F90
000000005FB0
000000004FC0
06999999BFB0
1FFFFFFFFF90
2FE00000AF50
0FF10002EE10
0AF8001BF600
02EFCADF9000
002AEEC50000
ENDCHAR
STARTCHAR uni04DB
ENCODING 1243
SWIDTH 455 0
DWIDTH 6 0
BBX 9 11 0 0
BITMAP
0010010000
07F59F4000
06E37E2000
0000000000
09EEC30000
0B9AFD0000
1888DFAC20
7FFFFFFD10
9D00BF1000
7FABF90000
1AED910000
ENDCHAR
STARTCHAR uni04DC
ENCODING 1244
SWIDTH 1234 0
DWIDTH 17 0
BBX 19 16 0 0
BITMAP
00000000010010000000
00000000BF2CF1000000
00000000AD1BD1000000
003BEB1006E3004DEA00
00CBBF900AF501EDBF40
00300CF10BF307F41500
000007F50DF11ED00000
000003F80EE08F700000
000000DE3FD8FC000000
0000003FFFFF81000000
000004EECFCFD1000000
00003EE29F57F9000000
0000AF60BF31EF100020
5B03FC00DF109F900A80
8FBDF300FE001EFACE20
1BFD4000D90004DEB200
ENDCHAR
STARTCHAR uni04DD
ENCODING 1245
SWIDTH 717 0
DWIDTH 10 0
BBX 12 11 0 0
BITMAP
000010010000
0002FB3F9000
0001E82E7000
000000000000
06EB1D66ED20
0CDEAF7FBE80
042BFFBE0E60
150BEFEB0204
9E1EBFFC008C
BFBE6F8FBBF5
4ED44D06ED50
ENDCHAR
STARTCHAR uni04DE
ENCODING 1246
SWIDTH 725 0
DWIDTH 10 0
BBX 10 16 0 0
BITMAP
0000110110
0000DE1ED0
0000CC1DB0
0005BEEB20
007FEABFD0
00ED100DF1
01FA000CF1
00B7001FC0
000000AF30
0003DFFE70
0002862BF6
07400006FA
2FB00009F8
2FE1003FF3
0BFC9AFF70
018DFEA400
ENDCHAR
STARTCHAR uni04DF
ENCODING 1247
SWIDTH 435 0
DWIDTH 6 0
BBX 9 18 -1 -7
BITMAP
0011010000
00ED1EC000
00DB1D9000
0000000000
004CEC2000
00EC9F8000
00200E7000
00019E2000
019FC31A80
02FD24ED30
005EEF9100
001BF80000
01CDF70000
0AD4F60000
3F37F20000
7D1DC00000
8ECF400000
3DD5000000
ENDCHAR
STARTCHAR uni04E0
ENCODING 1248
SWIDTH 744 0
DWIDTH 10 0
BBX 11 13 0 0
BITMAP
0017DEEDB830
00BFB99BFFA0
02FA0004FC10
01FA000BF500
0088004FD000
000002DF3000
0003DFFE7000
0002862BF600
07400006FA00
2FB00009F800
2FE1003FF300
0BFC9AFF7000
018DFEA40000
ENDCHAR
STARTCHAR uni04E1
ENCODING 1249
SWIDTH 435 0
DWIDTH 6 0
BBX 9 14 -1 -7
BITMAP
02FFFFF600
0188CFF400
0008FA2000
008F700130
02F9005E80
01EE69FA10
002BFE5000
002DF70000
02DCF70000
0BC4F50000
4F28F20000
7D1EB00000
8ECF300000
3DD5000000
ENDCHAR
STARTCHAR uni04E2
ENCODING 1250
SWIDTH 890 0
DWIDTH 12 0
BBX 15 15 0 0
BITMAP
0000049995000000
000009FFF9000000
03BEC10002E70000
3ECDF70005FA0000
DA07F80007F80000
9108F70009F60000
000BF4000CF40000
000EF2001FF20000
002FD0005FF00000
005FA000AFD00000
008F7001EFB00000
00AF5009BF900310
00BF607E6FB04E30
008FFEF52FFEFA00
001BED5007EE8000
ENDCHAR
STARTCHAR uni04E3
ENCODING 1251
SWIDTH 462 0
DWIDTH 6 0
BBX 9 10 0 0
BITMAP
0089992000
01EFFF3000
0000000000
07E04E1000
0DC0AE0000
2F90EC0000
4F75F90210
5F8DF72E30
4FFBFDEB00
0BD2BE9000
ENDCHAR
STARTCHAR uni04E4
ENCODING 1252
SWIDTH 890 0
DWIDTH 12 0
BBX 15 16 0 0
BITMAP
0000001001000000
00000BF2CF100000
00000AD1BD100000
03BEC10002E70000
3ECDF70005FA0000
DA07F80007F80000
9108F70009F60000
000BF4000CF40000
000EF2001FF20000
002FD0005FF00000
005FA000AFD00000
008F7001EFB00000
00AF5009BF900310
00BF607E6FB04E30
008FFEF52FFEFA00
001BED5007EE8000
ENDCHAR
STARTCHAR uni04E5
ENCODING 1253
SWIDTH 462 0
DWIDTH 6 0
BBX 9 11 0 0
BITMAP
0010010000
02EB2FA000
01E92E7000
0000000000
07E04E1000
0DC0AE0000
2F90EC0000
4F75F90210
5F8DF72E30
4FFBFDEB00
0BD2BE9000
ENDCHAR
STARTCHAR uni04E6
ENCODING 1254
SWIDTH 816 0
DWIDTH 11 0
BBX 12 16 0 0
BITMAP
000001001000
00005F87F600
00005E56E400
00006CEE9100
001BFDADFD10
009F9000BF90
03FD00003FE0
09F600000FF1
0DF200000EF2
0FF000000FF1
1FF000002FE0
1FF100005FA0
0DF40000CF40
08FB1008FA00
01DFDADFC100
0019DEC70000
ENDCHAR
STARTCHAR uni04E7
ENCODING 1255
SWIDTH 451 0
DWIDTH 6 0
BBX 9 11 0 0
BITMAP
0010010000
08F59F3000
07E38E2000
0000000000
02BEC20000
0DFCFC0000
5F75FFAC10
7F40CFEB10
7F50CC0000
3FEBF50000
06EE700000
ENDCHAR
STARTCHAR uni04E8
ENCODING 1256
SWIDTH 816 0
DWIDTH 11 0
BBX 12 13 0 0
BITMAP
00006CEE9100
001BFD9CFD10
009F9000BF90
03FE10003FE0
09F800000FF1
0DF400000EF2
0FFFFFFFFFF1
1FF888889FE0
1FF000005FA0
0DF30000BF40
08FB0007FA00
01DFC9CFC100
0019DEC70000
ENDCHAR
STARTCHAR uni04E9
ENCODING 1257
SWIDTH 451 0
DWIDTH 6 0
BBX 9 7 0 0
BITMAP
02BEB10000
0DEAFA0000
5F70AE3600
7FFFFFFF20
7FB8EE8400
3FDAF80000
06EE900000
ENDCHAR
STARTCHAR uni04EA
ENCODING 1258
SWIDTH 816 0
DWIDTH 11 0
BBX 12 16 0 0
BITMAP
000001001000
00005F87F600
00005E56E400
00006CEE9100
001BFD9CFD10
009F9000BF90
03FE10003FE0
09F800000FF1
0DF400000EF2
0FFFFFFFFFF1
1FF888889FE0
1FF000005FA0
0DF30000BF40
08FB0007FA00
01DFC9CFC100
0019DEC70000
ENDCHAR
STARTCHAR uni04EB
ENCODING 1259
SWIDTH 451 0
DWIDTH 6 0
BBX 9 11 0 0
BITMAP
0010010000
08F49F3000
07E38E2000
0000000000
02BEB10000
0DEAFA0000
5F70AE3600
7FFFFFFF20
7FB8EE8400
3FDAF80000
06EE900000
ENDCHAR
STARTCHAR uni04EC
ENCODING 1260
SWIDTH 755 0
DWIDTH 11 0
BBX 11 16 0 0
BITMAP
000011010000
0000EE1ED000
0000CC1DA000
0018DFE92000
02DFB9CFE200
08E4000AFA00
04300002FF10
00000000DF30
00000000CF40
001DFFFFFF30
00088888FF10
03100002FD00
4F700008F700
5F80005FD100
1EFA9CFE3000
03AEED810000
ENDCHAR
STARTCHAR uni04ED
ENCODING 1261
SWIDTH 466 0
DWIDTH 7 0
BBX 9 11 0 0
BITMAP
0010010000
04F85F6000
04E65E4000
0000000000
07DFC40000
09AAEE1000
0028CFBB40
275FFFFD30
7E009F3000
5FBAFB0000
09EEA10000
ENDCHAR
STARTCHAR uni04EE
ENCODING 1262
SWIDTH 824 0
DWIDTH 12 0
BBX 14 19 0 -4
BITMAP
00000699940000
00000BFFF70000
03BEB10002E700
3FBDF50006F900
5808F70009F700
000AF5000DF500
000EF1004FF300
002FD000CFF000
002FD008DFD000
000EFABE5FB000
0004DEB33FA682
000000029FFFF3
000002AFFF9410
00005EFBCF2000
0003FD30DD0000
0009F303F90000
000AF42CE20000
0005FFFE500000
00004872000000
ENDCHAR
STARTCHAR uni04EF
ENCODING 1263
SWIDTH 479 0
DWIDTH 7 0
BBX 9 17 0 -7
BITMAP
0089992000
01EFFF3000
0000000000
07E04E1000
0DC0AF0000
2F90ED0000
4F75FA0300
5F8DF87F30
4FFDFEF700
0BD7FD3000
003EF20000
03EED00000
1D7DA00000
9B2F600000
E68E100000
FCF8000000
8EA1000000
ENDCHAR
STARTCHAR uni04F0
ENCODING 1264
SWIDTH 824 0
DWIDTH 12 0
BBX 14 20 0 -4
BITMAP
00000110110000
00000DE1ED0000
00000CC1DB0000
03BEB10002E700
3FBDF50006F900
5808F70009F700
000AF5000DF500
000EF1004FF300
002FD000CFF000
002FD008DFD000
000EFABE5FB000
0004DEB33FA682
000000029FFFF3
000002AFFF9410
00005EFBCF2000
0003FD30DD0000
0009F303F90000
000AF42CE20000
0005FFFE500000
00004872000000
ENDCHAR
STARTCHAR uni04F1
ENCODING 1265
SWIDTH 479 0
DWIDTH 7 0
BBX 9 18 0 -7
BITMAP
0010010000
02EB2FA000
01E92E7000
0000000000
07E04E1000
0DC0AF0000
2F90ED0000
4F75FA0300
5F8DF87F30
4FFDFEF700
0BD7FD3000
003EF20000
03EED00000
1D7DA00000
9B2F600000
E68E100000
FCF8000000
8EA1000000
ENDCHAR
STARTCHAR uni04F2
ENCODING 1266
SWIDTH 824 0
DWIDTH 12 0
BBX 14 21 0 -4
BITMAP
00000043160000
000000EB6F4000
000003F5AD0000
000005B0C40000
03BEB10002E700
3FBDF50006F900
5808F70009F700
000AF5000DF500
000EF1004FF300
002FD000CFF000
002FD008DFD000
000EFABE5FB000
0004DEB33FA682
000000029FFFF3
000002AFFF9410
00005EFBCF2000
0003FD30DD0000
0009F303F90000
000AF42CE20000
0005FFFE500000
00004872000000
ENDCHAR
STARTCHAR uni04F3
ENCODING 1267
SWIDTH 479 0
DWIDTH 7 0
BBX 9 20 0 -7
BITMAP
0003506200
000CE4F700
001F98F200
006E1D9000
00870D1000
0000000000
07E04E1000
0DC0AF0000
2F90ED0000
4F75FA0300
5F8DF87F30
4FFDFEF700
0BD7FD3000
003EF20000
03EED00000
1D7DA00000
9B2F600000
E68E100000
FCF8000000
8EA1000000
ENDCHAR
STARTCHAR uni04F4
ENCODING 1268
SWIDTH 773 0
DWIDTH 11 0
BBX 10 16 1 0
BITMAP
0001101100
000DE1EE00
000CC1DB00
09D10005E3
0DF30009F4
0DF2000BF3
1FF0000EF2
3FC0004FF0
6F9000BFD0
6FB019EFB0
2FFEFF7F90
05DFD54F80
0000007F60
0000009F40
000000AF30
0000008E10
ENDCHAR
STARTCHAR uni04F5
ENCODING 1269
SWIDTH 555 0
DWIDTH 8 0
BBX 11 11 -1 0
BITMAP
000001001000
00003FA4F800
00002E73E600
0002E9000000
0009DFFFD000
000D75DF9000
005F28F80000
00D95F800130
09D1AF102D80
1E30AFBAFD10
00002CED8100
ENDCHAR
STARTCHAR uni04F6
ENCODING 1270
SWIDTH 600 0
DWIDTH 8 0
BBX 12 19 0 -5
BITMAP
000000000010
006ADEFFFFFE
0CFEDFB88874
5F80AF500000
7F30DF200000
4F61FE000000
0203FC000000
0005F9000000
0008F7000000
000AF5000000
000CF3000000
000EF2000000
001FFF300000
000CFF300000
00AEBF100000
09F4BC000000
0DE3F7000000
0CFFD1000000
017710000000
ENDCHAR
STARTCHAR uni04F7
ENCODING 1271
SWIDTH 441 0
DWIDTH 6 0
BBX 8 12 0 -5
BITMAP
0AEE9000
2EADF200
002CD000
06EA2000
4F700045
6FC9CBF7
1CEEFE50
007FF200
08D9D000
1F6C9000
1FFE2000
04720000
ENDCHAR
STARTCHAR uni04F8
ENCODING 1272
SWIDTH 1078 0
DWIDTH 15 0
BBX 15 16 0 0
BITMAP
0000000100100000
0000004F95F80000
0000003E75E60000
002D600000003E70
006F900000006F90
009F600000008F70
00CF200000009F50
00EE00000000BF30
02FEBEED7000EF10
4EFEB9AEF801FD00
7EF70005FD03FB00
07F60002FE06F900
07F70005FB08F700
05FA001CF50AF500
00DFAAEF900CF400
002BEEB50009D100
ENDCHAR
STARTCHAR uni04F9
ENCODING 1273
SWIDTH 702 0
DWIDTH 10 0
BBX 12 11 0 0
BITMAP
000010010000
0005F76F6000
0004E55E4000
000000000000
07E10003E400
0EE0000AF300
2FCAE93FF100
3FFBDFDFD001
3FA06FDFB099
1EEAEE3DFBE3
04CEB305EC30
ENDCHAR
STARTCHAR uni04FA
ENCODING 1274
SWIDTH 635 0
DWIDTH 9 0
BBX 13 19 -1 -5
BITMAP
00000000000100
0005ADEFFFFFE0
00BFEDFB888740
05F90AF5000000
07F30CF3000000
06F60FF0000000
01822FD0000000
000BFFFF700000
0006CFC8200000
00009F70000000
0000BF40000000
0000DF20000000
0000FF00000000
0003FC00000000
0006F900000000
000AF500000000
781EE100000000
DFCF7000000000
5EE80000000000
ENDCHAR
STARTCHAR uni04FB
ENCODING 1275
SWIDTH 441 0
DWIDTH 6 0
BBX 8 12 0 -5
BITMAP
0AEE9000
2EADF200
102DE000
9EFE3000
5FA93045
6FC9CBF6
1CEEFE50
007FF200
08D9D000
1F6C9000
1FFE2000
04720000
ENDCHAR
STARTCHAR uni04FC
ENCODING 1276
SWIDTH 716 0
DWIDTH 10 0
BBX 13 18 -1 -5
BITMAP
006DE90003DA00
08FAEF701DF500
0B303FD0BF8000
00000DFAFB0000
000009FFD10000
000005FE200000
00000CFE000000
00009FFF300000
0006FC9F700000
003FE25FB00000
01EF501FF20480
0CF9000AFFDF80
1EB10001DFE500
0000001AFF6000
000001DE9F4000
000008F4AE0000
000009FBF80000
000003DEA10000
ENDCHAR
STARTCHAR uni04FD
ENCODING 1277
SWIDTH 601 0
DWIDTH 8 0
BBX 10 12 0 -5
BITMAP
06EC3BE600
0CDEFDE800
053BF56200
140BF20000
9E0EF30016
BFAFFC99EA
4ED5CFFF80
00003DF600
0003E8F200
000B99C000
000CFF4000
0003830000
ENDCHAR
STARTCHAR uni04FE
ENCODING 1278
SWIDTH 712 0
DWIDTH 10 0
BBX 13 13 -1 0
BITMAP
006DE90003DA00
06FAEF601DF700
0D505FC09FB000
01000EF6FE2000
00000AFFF50000
000007FF900000
000BFFFFFE1000
0006AFFF970000
0001CFEF400000
000BF77F800000
00AF902FD005A0
09FB000BFBAF60
1EC10002BED500
ENDCHAR
STARTCHAR uni04FF
ENCODING 1279
SWIDTH 529 0
DWIDTH 7 0
BBX 10 7 0 0
BITMAP
06EC3BE600
0CDEFDE800
056DFA7200
387FFE3061
AE1EF304F2
BFBFFDAF90
4ED48EE700
ENDCHAR
STARTCHAR uni0510
ENCODING 1296
SWIDTH 706 0
DWIDTH 10 0
BBX 10 13 0 0
BITMAP
0005CEEA20
004FE9BFD1
00BF3009F4
00DF0007F4
00CF100490
005F900000
019FFFC000
0CF5377000
3FD0000182
4FD00007F6
1FF5000CF4
08FFA9DFA0
006CEEC700
ENDCHAR
STARTCHAR uni0511
ENCODING 1297
SWIDTH 392 0
DWIDTH 5 0
BBX 8 7 0 0
BITMAP
05DE9000
0FC9D200
0DC60000
1BFC0040
9F4007F1
9FB9DF80
2BEEB400
ENDCHAR
STARTCHAR uni0512
ENCODING 1298
SWIDTH 884 0
DWIDTH 12 0
BBX 15 18 0 -5
BITMAP
00000002DD000000
00000008FF000000
0000000CFE000000
0000002FFD000000
0000006FFD000000
000000BDFC000000
000001F9FC000000
000007F5FD000000
00000DE0FE000000
43006F80EF000000
CC02EE10BF401810
9FADF6007FFDDE10
1AED60000AFFA200
000000006EFD0000
00000008F8DA0000
0000001FB2F60000
0000002FDDE10000
00000009ED400000
ENDCHAR
STARTCHAR uni0513
ENCODING 1299
SWIDTH 631 0
DWIDTH 9 0
BBX 11 12 0 -5
BITMAP
00009E400000
0002FF600000
0007FF500000
350ECF400000
DA6F7F400510
EDEA4FCAAF20
7EB10DFFC300
000008FC0000
0000B9D80000
0005D5F40000
0005FFB00000
000076000000
ENDCHAR
STARTCHAR uni051A
ENCODING 1306
SWIDTH 816 0
DWIDTH 11 0
BBX 13 18 0 -5
BITMAP
00006CEE910000
001BFDADFD1000
00AF9000BF9000
03FD00003FE000
09F600000FF100
0DF200000EF200
0FF000000FF100
1FF000002FE000
0FF100007FA000
0DF50001DF4000
07FD302BFA0000
00AFFEFFB10000
0005CFF7000000
000009FB000000
000002FF300430
000000AFB14E20
0000002EFFF800
00000002884000
ENDCHAR
STARTCHAR uni051B
ENCODING 1307
SWIDTH 500 0
DWIDTH 7 0
BBX 9 14 0 -6
BITMAP
0000064000
005DEF9000
06FDDF5000
1ED1BF1000
6F60EC0000
7F45F9DFB0
5FCEF7F950
0BECF4F100
000AF1F100
000CF1F000
000CE3E000
000CF6A000
0009FE6000
0002DB1000
ENDCHAR
STARTCHAR uni051C
ENCODING 1308
SWIDTH 1217 0
DWIDTH 17 0
BBX 18 13 1 0
BITMAP
09D10002E7001BEA00
0EF10007F900AECF40
1FF0000AF700F74F60
3FD0000DF501F55F50
4FC0001FF500F88F30
4FB0005FF400BEDE00
5FA0009FF4002EFEA8
4FB000DFF40008FDED
3FB004FBF5001EC000
1FE00BE5F6009F4000
0DF47F71FC17F90000
07FFFC00BFFFC00000
00AEA1003DE9100000
ENDCHAR
STARTCHAR uni051D
ENCODING 1309
SWIDTH 700 0
DWIDTH 10 0
BBX 12 7 0 0
BITMAP
3E408C04E600
4F61EE0CF900
4F66FE0BFCB8
3F7CFF1EEED5
2FBFAFAF2000
1FFC6FF80000
0AE32EA00000
ENDCHAR
STARTCHAR uni0524
ENCODING 1316
SWIDTH 892 0
DWIDTH 12 0
BBX 15 18 0 -5
BITMAP
0038BDEFFEECB810
09FEDFC889FEDE30
4F908F7003FB0000
7F30BF5006F90000
4F60DF2008F70000
0511FF000BF40000
0003FC000EF10000
0005FA001FD00000
0007F8004FA00000
0009F6006F900000
000BF4005FD81920
000DF3001DFFEE20
000AD10002CFA100
000000005EFD0000
00000007F9DB0000
0000001FC2F70000
0000002FDCE10000
00000009ED400000
ENDCHAR
STARTCHAR uni0525
ENCODING 1317
SWIDTH 536 0
DWIDTH 8 0
BBX 9 12 0 -5
BITMAP
08D09E4000
0EB9FF6000
2FAEBF4000
3FE89F1000
4FF1BE0170
4FB0BFBEB0
1D604FF800
0003DF7000
003E7F3000
00AA8D0000
00AFF50000
0028400000
ENDCHAR
STARTCHAR uni0526
ENCODING 1318
SWIDTH 818 0
DWIDTH 11 0
BBX 13 18 1 -5
BITMAP
01D90000000000
04FB0000000000
07F80000000000
0AF60000000000
0DF30000000000
0FF10000000000
2FD2AEEA100000
5FCDC9EF700000
7FF7006FA00000
9FB0006F900000
BF50007FB40610
DF30008FFFBE10
AD10005EFFB200
0000003CFC0000
000005F8EA0000
00001FA3F60000
00003FDDE10000
00000AED400000
ENDCHAR
STARTCHAR uni0527
ENCODING 1319
SWIDTH 542 0
DWIDTH 8 0
BBX 9 19 0 -5
BITMAP
0008E70000
005FCE0000
00CA6E0000
03F57C0000
07F2C70000
0BE4E10000
0DCD600000
0FFA8E5000
2FC8FF7000
3F9EAF5000
3FE97F2000
4FF2AF0180
4FD0AFBDC0
2E603EF910
0002DF8000
002E7F5000
009B7E1000
009FF70000
0018500000
ENDCHAR
STARTCHAR uni0528
ENCODING 1320
SWIDTH 873 0
DWIDTH 12 0
BBX 16 19 -2 -5
BITMAP
0000000000001740
0004CEA00001DFF2
006FADF40008F4E4
01F607F7001EA0E3
018007F7005F62F1
000008F6009F3BA0
00000AF400CFCD20
00038DFA99FFA200
0008FFFEDCFC0000
00003FC002FB0000
00005F9001FC0002
00008F7000EF104E
0000BF40008FCAF8
0000EF10001AED60
0002FD0000000000
0006F80000000000
4A1BF30000000000
8FCFB00000000000
2CEB100000000000
ENDCHAR
STARTCHAR uni0529
ENCODING 1321
SWIDTH 475 0
DWIDTH 7 0
BBX 11 12 -2 -5
BITMAP
0008D02E4000
000EB07F2000
002FC8CE0000
003FFFFC0220
004F50E91D60
004F50EDCC10
003F609EA100
002F70000000
003F60000000
5D5F40000000
5FFE10000000
068200000000
ENDCHAR
STARTCHAR uni052E
ENCODING 1326
SWIDTH 884 0
DWIDTH 12 0
BBX 15 18 0 -5
BITMAP
00000002DD000000
00000008FF000000
0000000CFE000000
0000002FFD000000
0000006FFD000000
000000BDFC000000
000001F9FC000000
000007F5FD000000
00000DE0FE000000
43006F80EF000000
CC02EE10BF401810
9FADF6007FFDDE10
1AED60000AFFA200
000000006EFD0000
00000008F8DA0000
0000001FB2F60000
0000002FDDE10000
00000009ED400000
ENDCHAR
STARTCHAR uni052F
ENCODING 1327
SWIDTH 631 0
DWIDTH 9 0
BBX 11 12 0 -5
BITMAP
00009E400000
0002FF600000
0007FF500000
350ECF400000
DA6F7F400510
EDEA4FCAAF20
7EB10DFFC300
000008FC0000
0000B9D80000
0005D5F40000
0005FFB00000
000076000000
ENDCHAR
STARTCHAR Wgrave
ENCODING 7808
SWIDTH 1217 0
DWIDTH 17 0
BBX 18 17 1 0
BITMAP
000004400000000000
00000DF60000000000
000004DF7000000000
00000006D200000000
09D10002E7001BEA00
0EF10007F900AECF40
1FF0000AF700F74F60
3FD0000DF501F55F50
4FC0001FF500F88F30
4FB0005FF400BEDE00
5FA0009FF4002EFEA8
4FB000DFF40008FDED
3FB004FBF5001EC000
1FE00BE5F6009F4000
0DF47F71FC17F90000
07FFFC00BFFFC00000
00AEA1003DE9100000
ENDCHAR
STARTCHAR wgrave
ENCODING 7809
SWIDTH 700 0
DWIDTH 10 0
BBX 12 13 0 0
BITMAP
000610000000
003F90000000
000BF1000000
0002E7000000
00004A000000
000000000000
3E408C04E600
4F61EE0CF900
4F66FE0BFCB8
3F7CFF1EEED5
2FBFAFAF2000
1FFC6FF80000
0AE32EA00000
ENDCHAR
STARTCHAR Wacute
ENCODING 7810
SWIDTH 1217 0
DWIDTH 17 0
BBX 18 17 1 0
BITMAP
000000000006200000
0000000001BF700000
000000001CFA100000
000000008B30000000
09D10002E7001BEA00
0EF10007F900AECF40
1FF0000AF700F74F60
3FD0000DF501F55F50
4FC0001FF500F88F30
4FB0005FF400BEDE00
5FA0009FF4002EFEA8
4FB000DFF40008FDED
3FB004FBF5001EC000
1FE00BE5F6009F4000
0DF47F71FC17F90000
07FFFC00BFFFC00000
00AEA1003DE9100000
ENDCHAR
STARTCHAR wacute
ENCODING 7811
SWIDTH 700 0
DWIDTH 10 0
BBX 12 13 0 0
BITMAP
000000440000
000001ED0000
000006F60000
00000CA00000
00001D100000
000000000000
3E408C04E600
4F61EE0CF900
4F66FE0BFCB8
3F7CFF1EEED5
2FBFAFAF2000
1FFC6FF80000
0AE32EA00000
ENDCHAR
STARTCHAR Wdieresis
ENCODING 7812
SWIDTH 1217 0
DWIDTH 17 0
BBX 18 16 1 0
BITMAP
000000010010000000
0000005F86F7000000
0000004E66E5000000
09D10002E7001BEA00
0EF10007F900AECF40
1FF0000AF700F74F60
3FD0000DF501F55F50
4FC0001FF500F88F30
4FB0005FF400BEDE00
5FA0009FF4002EFEA8
4FB000DFF40008FDED
3FB004FBF5001EC000
1FE00BE5F6009F4000
0DF47F71FC17F90000
07FFFC00BFFFC00000
00AEA1003DE9100000
ENDCHAR
STARTCHAR wdieresis
ENCODING 7813
SWIDTH 700 0
DWIDTH 10 0
BBX 12 11 0 0
BITMAP
000110100000
000DE1ED0000
000CC0DA0000
000000000000
3E408C04E600
4F61EE0CF900
4F66FE0BFCB8
3F7CFF1EEED5
2FBFAFAF2000
1FFC6FF80000
0AE32EA00000
ENDCHAR
STARTCHAR uni1E9E
ENCODING 7838
SWIDTH 843 0
DWIDTH 12 0
BBX 11 14 1 -1
BITMAP
02D705CFD500
08F77FBBFF20
0BF7F500CF50
0DFC8000EF20
1FEE101AF800
3FF80AFD6000
5FF32FFE9100
6FE0013BFA00
8FA00001FF10
9F800001FF10
BF500007FB00
CF30018FE300
AD009FFC3000
000036300000
ENDCHAR
STARTCHAR uni1EA0
ENCODING 7840
SWIDTH 786 0
DWIDTH 11 0
BBX 13 16 0 -3
BITMAP
000006BEFEC600
0002CFFDBDF900
002DF910251000
00BF8000BF3000
05FC0000EF1000
0AF50002FC0000
0FF10006FA0000
2FE0000AF70000
3FD0001EF50000
2FE0006FF40030
0EF502EEF508B0
07FFCEC8FECF40
007DEA11BED400
00001100000000
0001EF40000000
0001DD20000000
ENDCHAR
STARTCHAR uni1EA1
ENCODING 7841
SWIDTH 470 0
DWIDTH 7 0
BBX 9 10 0 -3
BITMAP
006DB50000
06FDDF1000
1ED1CE0000
6F60FB0110
7F44F91C50
5FCDEDDC10
0BE94EB100
0010000000
06FC000000
06E9000000
ENDCHAR
STARTCHAR uni1EA2
ENCODING 7842
SWIDTH 786 0
DWIDTH 11 0
BBX 13 17 0 0
BITMAP
00000009FC2000
00000007AF7000
000000019F6000
00000004EA0000
000006BEFEC600
0002CFFDBDF900
002DF910251000
00BF8000BF3000
05FC0000EF1000
0AF50002FC0000
0FF10006FA0000
2FE0000AF70000
3FD0001EF50000
2FE0006FF40030
0EF502EEF508B0
07FFCEC8FECF40
007DEA11BED400
ENDCHAR
STARTCHAR uni1EA3
ENCODING 7843
SWIDTH 470 0
DWIDTH 7 0
BBX 9 13 0 0
BITMAP
0005950000
000CFF3000
00001E6000
0002AF3000
0005F70000
0000000000
006DB50000
06FDDF1000
1ED1CE0000
6F60FB0110
7F44F91C50
5FCDEDDC10
0BE94EB100
ENDCHAR
STARTCHAR uni1EA4
ENCODING 7844
SWIDTH 786 0
DWIDTH 11 0
BBX 13 22 0 0
BITMAP
00000000000620
0000000001AF80
000000001BFA10
000000007C4000
00000000000000
00000004DB0000
0000001EDF4000
0000009F3EA000
000000D809A000
000006BEFEC600
0002CFFDBDF900
002DF910251000
00BF8000BF3000
05FC0000EF1000
0AF50002FC0000
0FF10006FA0000
2FE0000AF70000
3FD0001EF50000
2FE0006FF40030
0EF502EEF508B0
07FFCEC8FECF40
007DEA11BED400
ENDCHAR
STARTCHAR uni1EA5
ENCODING 7845
SWIDTH 470 0
DWIDTH 7 0
BBX 9 13 0 0
BITMAP
0000001C80
000000BA30
0006EB0000
005F7F5000
00D80B8000
0000000000
006DB50000
06FDDF1000
1ED1CE0000
6F60FB0110
7F44F91C50
5FCDEDDC10
0BE94EB100
ENDCHAR
STARTCHAR uni1EA6
ENCODING 7846
SWIDTH 786 0
DWIDTH 11 0
BBX 13 22 0 0
BITMAP
00000440000000
00000CF7000000
000003CF800000
00000006D30000
00000000000000
00000004DB0000
0000001EDF4000
0000009F3EA000
000000D809A000
000006BEFEC600
0002CFFDBDF900
002DF910251000
00BF8000BF3000
05FC0000EF1000
0AF50002FC0000
0FF10006FA0000
2FE0000AF70000
3FD0001EF50000
2FE0006FF40030
0EF502EEF508B0
07FFCEC8FECF40
007DEA11BED400
ENDCHAR
STARTCHAR uni1EA7
ENCODING 7847
SWIDTH 470 0
DWIDTH 7 0
BBX 9 13 0 0
BITMAP
2E50000000
08D3000000
0006EB0000
005F7F5000
00D80B8000
0000000000
006DB50000
06FDDF1000
1ED1CE0000
6F60FB0110
7F44F91C50
5FCDEDDC10
0BE94EB100
ENDCHAR
STARTCHAR uni1EA8
ENCODING 7848
SWIDTH 786 0
DWIDTH 11 0
BBX 13 22 0 0
BITMAP
00000002DE8000
000000029CF000
000000005CE000
00000000AE5000
00000000000000
00000004DB0000
0000001EDF4000
0000009F3EA000
000000D809A000
000006BEFEC600
0002CFFDBDF900
002DF910251000
00BF8000BF3000
05FC0000EF1000
0AF50002FC0000
0FF10006FA0000
2FE0000AF70000
3FD0001EF50000
2FE0006FF40030
0EF502EEF508B0
07FFCEC8FECF40
007DEA11BED400
ENDCHAR
STARTCHAR uni1EA9
ENCODING 7849
SWIDTH 470 0
DWIDTH 7 0
BBX 9 13 0 0
BITMAP
000000CE60
0000008CC0
0002854CB0
001DFFAE40
00BF6F8000
0084064000
006DB50000
06FDDF1000
1ED1CE0000
6F60FB0110
7F44F91C50
5FCDEDDC10
0BE94EB100
ENDCHAR
STARTCHAR uni1EAA
ENCODING 7850
SWIDTH 786 0
DWIDTH 11 0
BBX 13 21 0 0
BITMAP
0000002DC22D20
000000AEEEBE00
000000C61AE500
00000000000000
00000004DB0000
0000001EDF4000
0000009F3EA000
000000D809A000
000006BEFEC600
0002CFFDBDF900
002DF910251000
00BF8000BF3000
05FC0000EF1000
0AF50002FC0000
0FF10006FA0000
2FE0000AF70000
3FD0001EF50000
2FE0006FF40030
0EF502EEF508B0
07FFCEC8FECF40
007DEA11BED400
ENDCHAR
STARTCHAR uni1EAB
ENCODING 7851
SWIDTH 470 0
DWIDTH 7 0
BBX 9 14 0 0
BITMAP
002DA1A600
00ABBEE200
0041463000
000AFE1000
007F7F6000
00D80B8000
0000000000
006DB50000
06FDDF1000
1ED1CE0000
6F60FB0110
7F44F91C50
5FCDEDDC10
0BE94EB100
ENDCHAR
STARTCHAR uni1EAC
ENCODING 7852
SWIDTH 786 0
DWIDTH 11 0
BBX 13 20 0 -3
BITMAP
00000004DB0000
0000001EDF4000
0000009F3EA000
000000D809A000
000006BEFEC600
0002CFFDBDF900
002DF910251000
00BF8000BF3000
05FC0000EF1000
0AF50002FC0000
0FF10006FA0000
2FE0000AF70000
3FD0001EF50000
2FE0006FF40030
0EF502EEF508B0
07FFCEC8FECF40
007DEA11BED400
00001100000000
0001EF40000000
0001DD20000000
ENDCHAR
STARTCHAR uni1EAD
ENCODING 7853
SWIDTH 470 0
DWIDTH 7 0
BBX 9 16 0 -3
BITMAP
0001CB0000
0009EF1000
003F6F5000
00AD0F8000
00E60B7000
0000000000
006DB50000
06FDDF1000
1ED1CE0000
6F60FB0110
7F44F91C50
5FCDEDDC10
0BE94EB100
0010000000
06FC000000
06E9000000
ENDCHAR
STARTCHAR uni1EAE
ENCODING 7854
SWIDTH 786 0
DWIDTH 11 0
BBX 13 18 0 0
BITMAP
000000000AA000
000000008E6000
000002D322B500
000002FEADF400
0000005DFD5000
000006BEFEC600
0002CFFDBDF900
002DF910251000
00BF8000BF3000
05FC0000EF1000
0AF50002FC0000
0FF10006FA0000
2FE0000AF70000
3FD0001EF50000
2FE0006FF40030
0EF502EEF508B0
07FFCEC8FECF40
007DEA11BED400
ENDCHAR
STARTCHAR uni1EAF
ENCODING 7855
SWIDTH 470 0
DWIDTH 7 0
BBX 9 13 0 0
BITMAP
00000A9000
00009E5000
03D222C400
03FDADF300
006DFC4000
0000000000
006DB50000
06FDDF1000
1ED1CE0000
6F60FB0110
7F44F91C50
5FCDEDDC10
0BE94EB100
ENDCHAR
STARTCHAR uni1EB0
ENCODING 7856
SWIDTH 786 0
DWIDTH 11 0
BBX 13 18 0 0
BITMAP
0000003E300000
0000002ED10000
00000182726300
000003F937F600
000000AFFFA000
000006BFFFC600
0002CFFDBDF900
002DF910251000
00BF8000BF3000
05FC0000EF1000
0AF50002FC0000
0FF10006FA0000
2FE0000AF70000
3FD0001EF50000
2FE0006FF40030
0EF502EEF508B0
07FFCEC8FECF40
007DEA11BED400
ENDCHAR
STARTCHAR uni1EB1
ENCODING 7857
SWIDTH 470 0
DWIDTH 7 0
BBX 9 13 0 0
BITMAP
004D200000
003ED00000
0282717200
05F838F400
00AFFF9000
0003420000
006DB50000
06FDDF1000
1ED1CE0000
6F60FB0110
7F44F91C50
5FCDEDDC10
0BE94EB100
ENDCHAR
STARTCHAR uni1EB2
ENCODING 7858
SWIDTH 786 0
DWIDTH 11 0
BBX 13 19 0 0
BITMAP
00000007EA0000
00000005AF2000
00000001AF1000
00000164E85200
000003FDACF500
0000006DFD7000
000006BEFEC600
0002CFFDBDF900
002DF910251000
00BF8000BF3000
05FC0000EF1000
0AF50002FC0000
0FF10006FA0000
2FE0000AF70000
3FD0001EF50000
2FE0006FF40030
0EF502EEF508B0
07FFCEC8FECF40
007DEA11BED400
ENDCHAR
STARTCHAR uni1EB3
ENCODING 7859
SWIDTH 470 0
DWIDTH 7 0
BBX 9 14 0 0
BITMAP
0008E90000
0006AF1000
0001AE0000
0164E76200
04FDADF400
007DFD6000
0000000000
006DB50000
06FDDF1000
1ED1CE0000
6F60FB0110
7F44F91C50
5FCDEDDC10
0BE94EB100
ENDCHAR
STARTCHAR uni1EB4
ENCODING 7860
SWIDTH 786 0
DWIDTH 11 0
BBX 13 19 0 0
BITMAP
00000001000100
0000004FD3A900
000000C99FE300
000001C2039400
000003FA38F500
0000009FFF9000
000006BFFFC600
0002CFFDBDF900
002DF910251000
00BF8000BF3000
05FC0000EF1000
0AF50002FC0000
0FF10006FA0000
2FE0000AF70000
3FD0001EF50000
2FE0006FF40030
0EF502EEF508B0
07FFCEC8FECF40
007DEA11BED400
ENDCHAR
STARTCHAR uni1EB5
ENCODING 7861
SWIDTH 470 0
DWIDTH 7 0
BBX 9 14 0 0
BITMAP
0001001100
005FC2B800
00D9AFE200
02C103A300
04F939F400
00AFFF8000
0003420000
006DB50000
06FDDF1000
1ED1CE0000
6F60FB0110
7F44F91C50
5FCDEDDC10
0BE94EB100
ENDCHAR
STARTCHAR uni1EB6
ENCODING 7862
SWIDTH 786 0
DWIDTH 11 0
BBX 13 19 0 -3
BITMAP
000003E301C600
000002FEADF300
0000005DFC5000
000006BEFEC600
0002CFFDBDF900
002DF910251000
00BF8000BF3000
05FC0000EF1000
0AF50002FC0000
0FF10006FA0000
2FE0000AF70000
3FD0001EF50000
2FE0006FF40030
0EF502EEF508B0
07FFCEC8FECF40
007DEA11BED400
00001100000000
0001EF40000000
0001DD20000000
ENDCHAR
STARTCHAR uni1EB7
ENCODING 7863
SWIDTH 470 0
DWIDTH 7 0
BBX 9 15 0 -3
BITMAP
0160005100
05F504F500
01EEAEE100
004DFC3000
0000000000
006DB50000
06FDDF1000
1ED1CE0000
6F60FB0110
7F44F91C50
5FCDEDDC10
0BE94EB100
0010000000
06FC000000
06E9000000
ENDCHAR
STARTCHAR uni1EB8
ENCODING 7864
SWIDTH 686 0
DWIDTH 10 0
BBX 12 16 0 -3
BITMAP
0003ADFD8100
005FFCADF900
00EF5001EE00
02FE0000EE00
01FF2000B700
006FEA500000
018EFF800000
0CF930000000
5FB000000000
8F8000000000
6FD2000004A3
0CFFBAABEFE2
006BEFEDB720
000011000000
0003FE200000
0003EC100000
ENDCHAR
STARTCHAR uni1EB9
ENCODING 7865
SWIDTH 393 0
DWIDTH 6 0
BBX 8 10 0 -3
BITMAP
02BEB100
0DEBF500
5F63F400
7F9DB021
6FC504E4
2FEACFB0
04CED700
00110000
01EF2000
01ED1000
ENDCHAR
STARTCHAR uni1EBA
ENCODING 7866
SWIDTH 686 0
DWIDTH 10 0
BBX 12 17 0 0
BITMAP
000006ED4000
0000049EA000
0000008E9000
000001EC2000
0003ADFD8100
005FFCADF900
00EF5001EE00
02FE0000EE00
01FF2000B700
006FEA500000
018EFF800000
0CF930000000
5FB000000000
8F8000000000
6FD2000004A3
0CFFBAABEFE2
006BEFEDB720
ENDCHAR
STARTCHAR uni1EBB
ENCODING 7867
SWIDTH 393 0
DWIDTH 6 0
BBX 8 13 0 0
BITMAP
00287100
006FF900
00009C00
0008E900
000EC100
00000000
02BEB100
0DEBF500
5F63F400
7F9DB021
6FC504E4
2FEACFB0
04CED700
ENDCHAR
STARTCHAR uni1EBC
ENCODING 7868
SWIDTH 686 0
DWIDTH 10 0
BBX 12 16 0 0
BITMAP
00005E905C00
0001EDFBD900
0002E23CC200
0003ADFD8100
005FFCADF900
00EF5001EE00
02FE0000EE00
01FF2000B700
006FEA500000
018EFF800000
0CF930000000
5FB000000000
8F8000000000
6FD2000004A3
0CFFBAABEFE2
006BEFEDB720
ENDCHAR
STARTCHAR uni1EBD
ENCODING 7869
SWIDTH 393 0
DWIDTH 6 0
BBX 8 11 0 0
BITMAP
00630160
0AEF8AC0
1E44CD20
00000000
02BEB100
0DEBF500
5F63F400
7F9DB021
6FC504E4
2FEACFB0
04CED700
ENDCHAR
STARTCHAR uni1EBE
ENCODING 7870
SWIDTH 686 0
DWIDTH 10 0
BBX 12 18 0 0
BITMAP
0000000008C0
000000006C50
000003DD2000
00002E9DA000
00009C17D000
0003ADFD8100
005FFCADF900
00EF5001EE00
02FE0000EE00
01FF2000B700
006FEA500000
018EFF800000
0CF930000000
5FB000000000
8F8000000000
6FD2000004A3
0CFFBAABEFE2
006BEFEDB720
ENDCHAR
STARTCHAR uni1EBF
ENCODING 7871
SWIDTH 393 0
DWIDTH 6 0
BBX 8 13 0 0
BITMAP
0000007D
000005D6
002CE300
01DACB00
07D15E00
00000000
02BEB100
0DEBF500
5F63F400
7F9DB021
6FC504E4
2FEACFB0
04CED700
ENDCHAR
STARTCHAR uni1EC0
ENCODING 7872
SWIDTH 686 0
DWIDTH 10 0
BBX 12 18 0 0
BITMAP
000C90000000
0005C7000000
000003DD2000
00002E9DA000
00009C17D000
0003ADFD8100
005FFCADF900
00EF5001EE00
02FE0000EE00
01FF2000B700
006FEA500000
018EFF800000
0CF930000000
5FB000000000
8F8000000000
6FD2000004A3
0CFFBAABEFE2
006BEFEDB720
ENDCHAR
STARTCHAR uni1EC1
ENCODING 7873
SWIDTH 393 0
DWIDTH 6 0
BBX 8 13 0 0
BITMAP
AA000000
4B800000
002CE300
01DACB00
07D15E00
00000000
02BEB100
0DEBF500
5F63F400
7F9DB021
6FC504E4
2FEACFB0
04CED700
ENDCHAR
STARTCHAR uni1EC2
ENCODING 7874
SWIDTH 686 0
DWIDTH 10 0
BBX 12 18 0 0
BITMAP
000000007EA0
000000006AF1
000000771AF1
000009FFAE70
00006F8DD000
0003FFFFF100
005FFCADF900
00EF5001EE00
02FE0000EE00
01FF2000B700
006FEA500000
018EFF800000
0CF930000000
5FB000000000
8F8000000000
6FD2000004A3
0CFFBAABEFE2
006BEFEDB720
ENDCHAR
STARTCHAR uni1EC3
ENCODING 7875
SWIDTH 393 0
DWIDTH 6 0
BBX 9 13 0 0
BITMAP
000006EB00
000005AF30
0006819F20
008FFAE900
05F9BE0000
0470370000
02BEB10000
0DEBF50000
5F63F40000
7F9DB02100
6FC504E400
2FEACFB000
04CED70000
ENDCHAR
STARTCHAR uni1EC4
ENCODING 7876
SWIDTH 686 0
DWIDTH 10 0
BBX 12 19 0 0
BITMAP
00000AD35A00
00005E9EE500
000023264000
000006FF4000
00003F9DB000
00009C17C000
0003ADFD8100
005FFCADF900
00EF5001EE00
02FE0000EE00
01FF2000B700
006FEA500000
018EFF800000
0CF930000000
5FB000000000
8F8000000000
6FD2000004A3
0CFFBAABEFE2
006BEFEDB720
ENDCHAR
STARTCHAR uni1EC5
ENCODING 7877
SWIDTH 393 0
DWIDTH 6 0
BBX 8 14 0 0
BITMAP
009D44B0
04E8EE70
01426500
004FF600
02EACC00
07D15D00
00000000
02BEB100
0DEBF500
5F63F400
7F9DB021
6FC504E4
2FEACFB0
04CED700
ENDCHAR
STARTCHAR uni1EC6
ENCODING 7878
SWIDTH 686 0
DWIDTH 10 0
BBX 12 20 0 -3
BITMAP
000002CD1000
00000BEF8000
00006F6BD000
00009B06D000
0003ADFD8100
005FFCADF900
00EF5001EE00
02FE0000EE00
01FF2000B700
006FEA500000
018EFF800000
0CF930000000
5FB000000000
8F8000000000
6FD2000004A3
0CFFBAABEFE2
006BEFEDB720
000011000000
0003FE200000
0003EC100000
ENDCHAR
STARTCHAR uni1EC7
ENCODING 7879
SWIDTH 393 0
DWIDTH 6 0
BBX 8 16 0 -3
BITMAP
0008E200
003FE700
00BBAB00
04F49E00
08B05D00
00000000
02BEB100
0DEBF500
5F63F400
7F9DB021
6FC504E4
2FEACFB0
04CED700
00110000
01EF2000
01ED1000
ENDCHAR
STARTCHAR uni1EC8
ENCODING 7880
SWIDTH 495 0
DWIDTH 7 0
BBX 9 17 -1 0
BITMAP
00003EE600
000039CE00
000006DC00
00000CD400
006EFFFF90
0049CFC940
0000AF5000
0000CF3000
0000EF1000
0001FD0000
0003FB0000
0005F90000
0007F70000
0009F50000
000BF40000
069EFA8100
2FFFFFD100
ENDCHAR
STARTCHAR uni1EC9
ENCODING 7881
SWIDTH 246 0
DWIDTH 3 0
BBX 6 13 0 0
BITMAP
059500
0CFF30
001E60
02AF40
04F800
000000
08D000
0EC000
2FA000
4F7021
5F62E3
3FDEB0
0AE910
ENDCHAR
STARTCHAR uni1ECA
ENCODING 7882
SWIDTH 495 0
DWIDTH 7 0
BBX 9 16 -1 -3
BITMAP
006EFFFF90
0049CFC940
0000AF5000
0000CF3000
0000EF1000
0001FD0000
0003FB0000
0005F90000
0007F70000
0009F50000
000BF40000
069EFA8100
2FFFFFD100
0001000000
004FE00000
004EB00000
ENDCHAR
STARTCHAR uni1ECB
ENCODING 7883
SWIDTH 246 0
DWIDTH 3 0
BBX 6 14 0 -3
BITMAP
001000
07FB00
07F800
000000
08D000
0EC000
2FA000
4F7021
5F62E3
3FDEB0
0AE910
010000
BF7000
AE4000
ENDCHAR
STARTCHAR uni1ECC
ENCODING 7884
SWIDTH 816 0
DWIDTH 11 0
BBX 12 16 0 -3
BITMAP
00006CEE9100
001BFDADFD10
009F9000BF90
03FD00003FE0
09F600000FF1
0DF200000EF2
0FF000000FF1
1FF000002FE0
1FF100005FA0
0DF40000CF40
08FB1008FA00
01DFDADFC100
0019DEC70000
000011000000
0002EF300000
0002ED200000
ENDCHAR
STARTCHAR uni1ECD
ENCODING 7885
SWIDTH 451 0
DWIDTH 6 0
BBX 9 10 0 -3
BITMAP
02BEC20000
0DFCFC0000
5F75FFAC10
7F40CFEB10
7F50CC0000
3FEBF50000
06EE700000
0010000000
03FE100000
03EB000000
ENDCHAR
STARTCHAR uni1ECE
ENCODING 7886
SWIDTH 816 0
DWIDTH 11 0
BBX 12 17 0 0
BITMAP
000003EE6000
0000029CE000
0000006DD000
000000CD4000
00006CEE9100
001BFDADFD10
009F9000BF90
03FD00003FE0
09F600000FF1
0DF200000EF2
0FF000000FF1
1FF000002FE0
1FF100005FA0
0DF40000CF40
08FB1008FA00
01DFDADFC100
0019DEC70000
ENDCHAR
STARTCHAR uni1ECF
ENCODING 7887
SWIDTH 451 0
DWIDTH 6 0
BBX 9 13 0 0
BITMAP
0028700000
007FF80000
0000AB0000
0008E80000
000EB10000
0000000000
02BEC20000
0DFCFC0000
5F75FFAC10
7F40CFEB10
7F50CC0000
3FEBF50000
06EE700000
ENDCHAR
STARTCHAR uni1ED0
ENCODING 7888
SWIDTH 816 0
DWIDTH 11 0
BBX 12 18 0 0
BITMAP
0000000006D2
000000003D70
000001BE5000
00000CCAD000
00005D23E200
00006CEE9100
001BFDADFD10
009F9000BF90
03FD00003FE0
09F600000FF1
0DF200000EF2
0FF000000FF1
1FF000002FE0
1FF100005FA0
0DF40000CF40
08FB1008FA00
01DFDADFC100
0019DEC70000
ENDCHAR
STARTCHAR uni1ED1
ENCODING 7889
SWIDTH 451 0
DWIDTH 6 0
BBX 9 13 0 0
BITMAP
0000008D00
000006C600
002CE30000
01DADB0000
08C16D0000
0000000000
02BEC20000
0DFCFC0000
5F75FFAC10
7F40CFEB10
7F50CC0000
3FEBF50000
06EE700000
ENDCHAR
STARTCHAR uni1ED2
ENCODING 7890
SWIDTH 816 0
DWIDTH 11 0
BBX 12 18 0 0
BITMAP
0009B1000000
0003BA000000
000001BE5000
00000CCAD000
00005D23E200
00006CEE9100
001BFDADFD10
009F9000BF90
03FD00003FE0
09F600000FF1
0DF200000EF2
0FF000000FF1
1FF000002FE0
1FF100005FA0
0DF40000CF40
08FB1008FA00
01DFDADFC100
0019DEC70000
ENDCHAR
STARTCHAR uni1ED3
ENCODING 7891
SWIDTH 451 0
DWIDTH 6 0
BBX 9 13 0 0
BITMAP
BA00000000
5C80000000
002CE30000
01DADB0000
08C16D0000
0000000000
02BEC20000
0DFCFC0000
5F75FFAC10
7F40CFEB10
7F50CC0000
3FEBF50000
06EE700000
ENDCHAR
STARTCHAR uni1ED4
ENCODING 7892
SWIDTH 816 0
DWIDTH 11 0
BBX 12 18 0 0
BITMAP
000000004EC1
0000000049E5
0000005818F4
000006FFAEA0
00003FBAF100
00009FFFF200
001BFDADFD10
009F9000BF90
03FD00003FE0
09F600000FF1
0DF200000EF2
0FF000000FF1
1FF000002FE0
1FF100005FA0
0DF40000CF40
08FB1008FA00
01DFDADFC100
0019DEC70000
ENDCHAR
STARTCHAR uni1ED5
ENCODING 7893
SWIDTH 451 0
DWIDTH 6 0
BBX 9 13 0 0
BITMAP
000007EA00
000005AF20
000681AF10
009FFAE800
05F9CE0000
0570370000
02BEC20000
0DFCFC0000
5F75FFAC10
7F40CFEB10
7F50CC0000
3FEBF50000
06EE700000
ENDCHAR
STARTCHAR uni1ED6
ENCODING 7894
SWIDTH 816 0
DWIDTH 11 0
BBX 12 19 0 0
BITMAP
000008E53D00
00002F8EE900
000014155000
000003EF7000
00001DCAE000
00006D23E200
00006CEE9100
001BFDADFD10
009F9000BF90
03FD00003FE0
09F600000FF1
0DF200000EF2
0FF000000FF1
1FF000002FE0
1FF100005FA0
0DF40000CF40
08FB1008FA00
01DFDADFC100
0019DEC70000
ENDCHAR
STARTCHAR uni1ED7
ENCODING 7895
SWIDTH 451 0
DWIDTH 6 0
BBX 9 14 0 0
BITMAP
00AD45B000
05E8FE6000
0232650000
005FF50000
02E9DC0000
08C16D0000
0000000000
02BEC20000
0DFCFC0000
5F75FFAC10
7F40CFEB10
7F50CC0000
3FEBF50000
06EE700000
ENDCHAR
STARTCHAR uni1ED8
ENCODING 7896
SWIDTH 816 0
DWIDTH 11 0
BBX 12 20 0 -3
BITMAP
000000AE4000
000008FDB000
00003F98F100
00006D13E200
00006CEE9100
001BFDADFD10
009F9000BF90
03FD00003FE0
09F600000FF1
0DF200000EF2
0FF000000FF1
1FF000002FE0
1FF100005FA0
0DF40000CF40
08FB1008FA00
01DFDADFC100
0019DEC70000
000011000000
0002EF300000
0002ED200000
ENDCHAR
STARTCHAR uni1ED9
ENCODING 7897
SWIDTH 451 0
DWIDTH 6 0
BBX 9 16 0 -3
BITMAP
0009E20000
004FE70000
00CABA0000
05F49D0000
09B06D0000
0000000000
02BEC20000
0DFCFC0000
5F75FFAC10
7F40CFEB10
7F50CC0000
3FEBF50000
06EE700000
0010000000
03FE100000
03EB000000
ENDCHAR
STARTCHAR uni1EDA
ENCODING 7898
SWIDTH 816 0
DWIDTH 11 0
BBX 12 17 0 0
BITMAP
000000000610
00000001BF70
0000001CF98D
0000008B32DE
00006CEFFFF7
001BFDADFF80
009F9000BF90
03FD00003FE0
09F600000FF1
0DF200000EF2
0FF000000FF1
1FF000002FE0
1FF100005F90
0DF40000CF40
08FB1008FA00
01DFDADFC100
0019DEC70000
ENDCHAR
STARTCHAR uni1EDB
ENCODING 7899
SWIDTH 451 0
DWIDTH 6 0
BBX 9 13 0 0
BITMAP
0000350000
0000DE0000
0004F70000
000BB00000
000D24D000
00000AE000
02BFFF7000
0DFCFC0000
5F75FFAC10
7F40CFEB10
7F50CC0000
3FEBF50000
06EE700000
ENDCHAR
STARTCHAR uni1EDC
ENCODING 7900
SWIDTH 816 0
DWIDTH 11 0
BBX 12 17 0 0
BITMAP
000530000000
000EF6000000
0004DF70007D
000006D202DE
00006CEFFFF7
001BFDADFF80
009F9000BF90
03FD00003FE0
09F600000FF1
0DF200000EF2
0FF000000FF1
1FF000002FE0
1FF100005F90
0DF40000CF40
08FB1008FA00
01DFDADFC100
0019DEC70000
ENDCHAR
STARTCHAR uni1EDD
ENCODING 7901
SWIDTH 451 0
DWIDTH 6 0
BBX 9 13 0 0
BITMAP
0620000000
1FB0000000
0AF2000000
01D9000000
003B04D000
00000AE000
02BFFF7000
0DFCFC0000
5F75FFAC10
7F40CFEB10
7F50CC0000
3FEBF50000
06EE700000
ENDCHAR
STARTCHAR uni1EDE
ENCODING 7902
SWIDTH 816 0
DWIDTH 11 0
BBX 12 17 0 0
BITMAP
000003EE7000
0000029CE000
0000006DD07D
000000BD42DE
00006CEFFFF7
001BFDADFF80
009F9000BF90
03FD00003FE0
09F600000FF1
0DF200000EF2
0FF000000FF1
1FF000002FE0
1FF100005F90
0DF40000CF40
08FB1008FA00
01DFDADFC100
0019DEC70000
ENDCHAR
STARTCHAR uni1EDF
ENCODING 7903
SWIDTH 451 0
DWIDTH 6 0
BBX 9 13 0 0
BITMAP
0049500000
00BFF40000
0001D70000
002AF40000
004F84D000
00000AE000
02BFFF7000
0DFCFC0000
5F75FFAC10
7F40CFEB10
7F50CC0000
3FEBF50000
06EE700000
ENDCHAR
STARTCHAR uni1EE0
ENCODING 7904
SWIDTH 816 0
DWIDTH 11 0
BBX 12 16 0 0
BITMAP
00002DB12E10
0000BEEDBD7D
0000D52BE6DE
00006CEFFFF7
001BFDADFF80
009F9000BF90
03FD00003FE0
09F600000FF1
0DF200000EF2
0FF000000FF1
1FF000002FE0
1FF100005F90
0DF40000CF40
08FB1008FA00
01DFDADFC100
0019DEC70000
ENDCHAR
STARTCHAR uni1EE1
ENCODING 7905
SWIDTH 451 0
DWIDTH 6 0
BBX 9 11 0 0
BITMAP
04E61D1000
0DAECB0000
060165D000
00000AE000
02BFFF7000
0DECFB0000
5F75FF9B10
7F40CFEB10
7F50CC0000
3FDAF50000
06EE700000
ENDCHAR
STARTCHAR uni1EE2
ENCODING 7906
SWIDTH 816 0
DWIDTH 11 0
BBX 12 18 0 -3
BITMAP
00000000007D
0000000002DE
00006CEFFFF7
001BFDADFF80
009F9000BF90
03FD00003FE0
09F600000FF1
0DF200000EF2
0FF000000FF1
1FF000002FE0
1FF100005F90
0DF40000CF40
08FB1008FA00
01DFDADFC100
0019DEC70000
000011000000
0001EF300000
0001DD200000
ENDCHAR
STARTCHAR uni1EE3
ENCODING 7907
SWIDTH 451 0
DWIDTH 6 0
BBX 9 12 0 -3
BITMAP
000004D000
00000AE000
02BFFF7000
0DFCFC0000
5F75FFAC10
7F40CFEB10
7F50CC0000
3FEBF50000
06EE700000
0010000000
03FE100000
03EB000000
ENDCHAR
STARTCHAR uni1EE4
ENCODING 7908
SWIDTH 890 0
DWIDTH 12 0
BBX 15 16 0 -3
BITMAP
03BEC10002E70000
3ECDF70005FA0000
DA07F80007F80000
9108F70009F60000
000BF4000CF40000
000EF2001FF20000
002FD0005FF00000
005FA000AFD00000
008F7001EFB00000
00AF5009BF900310
00BF607E6FB04E30
008FFEF52FFEFA00
001BED5007EE8000
0000010000000000
00004FE100000000
00004EC000000000
ENDCHAR
STARTCHAR uni1EE5
ENCODING 7909
SWIDTH 462 0
DWIDTH 6 0
BBX 9 10 0 -3
BITMAP
07E04E1000
0DC0AE0000
2F90EC0000
4F75F90210
5F8DF72E30
4FFBFDEB00
0BD2BE9000
0011000000
02EE200000
02EC100000
ENDCHAR
STARTCHAR uni1EE6
ENCODING 7910
SWIDTH 890 0
DWIDTH 12 0
BBX 15 17 0 0
BITMAP
0000006ED3000000
00000059EA000000
00000009E8000000
0000001EC2000000
03BEC10002E70000
3ECDF70005FA0000
DA07F80007F80000
9108F70009F60000
000BF4000CF40000
000EF2001FF20000
002FD0005FF00000
005FA000AFD00000
008F7001EFB00000
00AF5009BF900310
00BF607E6FB04E30
008FFEF52FFEFA00
001BED5007EE8000
ENDCHAR
STARTCHAR uni1EE7
ENCODING 7911
SWIDTH 462 0
DWIDTH 6 0
BBX 9 13 0 0
BITMAP
0007830000
001FFE1000
00003F3000
0004CE1000
0008E50000
0000000000
07E04E1000
0DC0AE0000
2F90EC0000
4F75F90210
5F8DF72E30
4FFBFDEB00
0BD2BE9000
ENDCHAR
STARTCHAR uni1EE8
ENCODING 7912
SWIDTH 890 0
DWIDTH 12 0
BBX 15 17 0 0
BITMAP
0000000002600000
000000003EF20000
00000004EE709A00
0000000C9103EC00
03BEC10002EFF700
3ECDF70005FE8000
DA07F80007F90000
9108F70009F70000
000BF4000CF40000
000EF2001FF20000
002FD0005FF00000
005FA000AFD00000
008F7001EFB00000
00AF5009BF900310
00BF607E6FB04E30
008FFEF52FFEFA00
001BED5007EE8000
ENDCHAR
STARTCHAR uni1EE9
ENCODING 7913
SWIDTH 512 0
DWIDTH 7 0
BBX 9 13 0 0
BITMAP
0000053000
00002FA000
00009F3000
0001E70000
0004B05C00
000000BC00
07E04EF500
0DC0AE4000
2F90EC0000
4F75F90030
5F8DF706E0
4FFBFDBF60
0BD29EC400
ENDCHAR
STARTCHAR uni1EEA
ENCODING 7914
SWIDTH 890 0
DWIDTH 12 0
BBX 15 17 0 0
BITMAP
0000620000000000
0003FD3000000000
00007EE400009A00
0000019C0003EC00
03BEC10002EFF700
3ECDF70005FE8000
DA07F80007F90000
9108F70009F70000
000BF4000CF40000
000EF2001FF20000
002FD0005FF00000
005FA000AFD00000
008F7001EFB00000
00AF5009BF900310
00BF607E6FB04E30
008FFEF52FFEFA00
001BED5007EE8000
ENDCHAR
STARTCHAR uni1EEB
ENCODING 7915
SWIDTH 512 0
DWIDTH 7 0
BBX 9 13 0 0
BITMAP
0160000000
05F7000000
01DD000000
003F400000
0007805C00
000000BC00
07E04EF500
0DC0AE4000
2F90EC0000
4F75F90030
5F8DF706E0
4FFBFDBF60
0BD29EC400
ENDCHAR
STARTCHAR uni1EEC
ENCODING 7916
SWIDTH 890 0
DWIDTH 12 0
BBX 15 17 0 0
BITMAP
0000006ED3000000
00000059EA000000
00000009E8009A00
0000001EC203EC00
03BEC10002EFF700
3ECDF70005FE8000
DA07F80007F90000
9108F70009F70000
000BF4000CF40000
000EF2001FF20000
002FD0005FF00000
005FA000AFD00000
008F7001EFB00000
00AF5009BF900310
00BF607E6FB04E30
008FFEF52FFEFA00
001BED5007EE8000
ENDCHAR
STARTCHAR uni1EED
ENCODING 7917
SWIDTH 512 0
DWIDTH 7 0
BBX 9 13 0 0
BITMAP
0007830000
001FFE1000
00003F3000
0004CE1000
0008E55C00
000000BC00
07E04EF500
0DC0AE4000
2F90EC0000
4F75F90030
5F8DF706E0
4FFBFDBF60
0BD29EC400
ENDCHAR
STARTCHAR uni1EEE
ENCODING 7918
SWIDTH 890 0
DWIDTH 12 0
BBX 15 16 0 0
BITMAP
000006E806B00000
00001EDFBE909A00
00003D14DC13EC00
03BEC10002EFF700
3ECDF70005FE8000
DA07F80007F90000
9108F70009F70000
000BF4000CF40000
000EF2001FF20000
002FD0005FF00000
005FA000AFD00000
008F7001EFB00000
00AF5009BF900310
00BF607E6FB04E30
008FFEF52FFEFA00
001BED5007EE8000
ENDCHAR
STARTCHAR uni1EEF
ENCODING 7919
SWIDTH 512 0
DWIDTH 7 0
BBX 9 11 0 0
BITMAP
008D33B000
02FAED7000
0150365C00
000000BC00
07E04EF500
0DC0AE4000
2F90EC0000
4F75F90030
5F8DF706E0
4FFBFDBF60
0BD29EC400
ENDCHAR
STARTCHAR uni1EF0
ENCODING 7920
SWIDTH 890 0
DWIDTH 12 0
BBX 15 18 0 -3
BITMAP
0000000000009A00
000000000003EC00
03BEC10002EFF700
3ECDF70005FE8000
DA07F80007F90000
9108F70009F70000
000BF4000CF40000
000EF2001FF20000
002FD0005FF00000
005FA000AFD00000
008F7001EFB00000
00AF5009BF900310
00BF607E6FB04E30
008FFEF52FFEFA00
001BED5007EE8000
0000010000000000
00004FE100000000
00004EC000000000
ENDCHAR
STARTCHAR uni1EF1
ENCODING 7921
SWIDTH 512 0
DWIDTH 7 0
BBX 9 12 0 -3
BITMAP
0000005C00
000000BC00
07E04EF500
0DC0AE4000
2F90EC0000
4F75F90030
5F8DF706E0
4FFBFDBF60
0BD29EC400
0011000000
02EE200000
02EC100000
ENDCHAR
STARTCHAR Ygrave
ENCODING 7922
SWIDTH 851 0
DWIDTH 12 0
BBX 14 22 0 -5
BITMAP
00005300000000
0001FE40000000
00005EF5000000
0000017D000000
03BEC10002E800
3ECDF70005FA00
DA07F80007F800
8009F7000AF600
000BF4000DF400
000EF2002FF200
002FD0008FF000
004FB001EFD000
004FB00BAFB000
001EFADD4FA583
0005DEA38FFFF4
0000018EFF9410
00003DFABF3000
0001ED30CE0000
0007F402FA0000
0009F42CF30000
0005FFFF600000
00004883000000
ENDCHAR
STARTCHAR ygrave
ENCODING 7923
SWIDTH 479 0
DWIDTH 7 0
BBX 9 20 0 -7
BITMAP
0160000000
05F7000000
01DD000000
003F400000
0007800000
0000000000
07E04E1000
0DC0AF0000
2F90ED0000
4F75FA0300
5F8DF87F30
4FFDFEF700
0BD7FD3000
003EF20000
03EED00000
1D7DA00000
9B2F600000
E68E100000
FCF8000000
8EA1000000
ENDCHAR
STARTCHAR uni1EF4
ENCODING 7924
SWIDTH 851 0
DWIDTH 12 0
BBX 14 18 0 -5
BITMAP
03BEC10002E800
3ECDF70005FA00
DA07F80007F800
8009F7000AF600
000BF4000DF400
000EF2002FF200
002FD0008FF000
004FB001EFD000
004FB00BAFB000
001EFADD4FA583
0005DEA38FFFF4
0000018EFF9410
00003DFABF3000
0001ED30CE0000
0007F402FA2000
0009F42CFAFB00
0005FFFF67F800
00004883000000
ENDCHAR
STARTCHAR uni1EF5
ENCODING 7925
SWIDTH 479 0
DWIDTH 7 0
BBX 9 14 0 -7
BITMAP
07E04E1000
0DC0AF0000
2F90ED0000
4F75FA0300
5F8DF87F30
4FFDFEF700
0BD7FD3000
003EF20000
03EED00000
1D7DA00000
9B2F610000
E68ECF7000
FCF8AE4000
8EA1000000
ENDCHAR
STARTCHAR uni1EF6
ENCODING 7926
SWIDTH 851 0
DWIDTH 12 0
BBX 14 22 0 -5
BITMAP
0000004EE50000
00000039DC0000
00000007DB0000
0000000DD30000
03BEC10002E800
3ECDF70005FA00
DA07F80007F800
8009F7000AF600
000BF4000DF400
000EF2002FF200
002FD0008FF000
004FB001EFD000
004FB00BAFB000
001EFADD4FA583
0005DEA38FFFF4
0000018EFF9410
00003DFABF3000
0001ED30CE0000
0007F402FA0000
0009F42CF30000
0005FFFF600000
00004883000000
ENDCHAR
STARTCHAR uni1EF7
ENCODING 7927
SWIDTH 479 0
DWIDTH 7 0
BBX 9 20 0 -7
BITMAP
0007830000
001FFE1000
00003F3000
0004CE1000
0008E50000
0000000000
07E04E1000
0DC0AF0000
2F90ED0000
4F75FA0300
5F8DF87F30
4FFDFEF700
0BD7FD3000
003EF20000
03EED00000
1D7DA00000
9B2F600000
E68E100000
FCF8000000
8EA1000000
ENDCHAR
STARTCHAR uni1EF8
ENCODING 7928
SWIDTH 851 0
DWIDTH 12 0
BBX 14 21 0 -5
BITMAP
000004EA14D000
00000DDFCCB000
00001E33CD3000
03BEC10002E800
3ECDF70005FA00
DA07F80007F800
8009F7000AF600
000BF4000DF400
000EF2002FF200
002FD0008FF000
004FB001EFD000
004FB00BAFB000
001EFADD4FA583
0005DEA38FFFF4
0000018EFF9410
00003DFABF3000
0001ED30CE0000
0007F402FA0000
0009F42CF30000
0005FFFF600000
00004883000000
ENDCHAR
STARTCHAR uni1EF9
ENCODING 7929
SWIDTH 479 0
DWIDTH 7 0
BBX 9 18 0 -7
BITMAP
0046005100
04FEC6F300
09919E7000
0000000000
07E04E1000
0DC0AF0000
2F90ED0000
4F75FA0300
5F8DF87F30
4FFDFEF700
0BD7FD3000
003EF20000
03EED00000
1D7DA00000
9B2F600000
E68E100000
FCF8000000
8EA1000000
ENDCHAR
STARTCHAR endash
ENCODING 8211
SWIDTH 484 0
DWIDTH 7 0
BBX 7 2 0 4
BITMAP
18999910
2EFFFE20
ENDCHAR
STARTCHAR emdash
ENCODING 8212
SWIDTH 620 0
DWIDTH 9 0
BBX 9 2 0 4
BITMAP
1899999800
2EFFFFFE10
ENDCHAR
STARTCHAR quoteleft
ENCODING 8216
SWIDTH 237 0
DWIDTH 3 0
BBX 3 5 1 9
BITMAP
05D0
0CD0
3FB0
8F90
5E50
ENDCHAR
STARTCHAR quoteright
ENCODING 8217
SWIDTH 236 0
DWIDTH 3 0
BBX 4 5 1 9
BITMAP
0BD0
1FF1
2FC0
4F60
5C00
ENDCHAR
STARTCHAR quotesinglbase
ENCODING 8218
SWIDTH 257 0
DWIDTH 4 0
BBX 3 5 0 -2
BITMAP
2E80
6FB0
7F60
9E10
A700
ENDCHAR
STARTCHAR quotedblleft
ENCODING 8220
SWIDTH 457 0
DWIDTH 6 0
BBX 6 5 1 9
BITMAP
05D04D
0CD0BE
3FB2FC
8F96FB
5E54E6
ENDCHAR
STARTCHAR quotedblright
ENCODING 8221
SWIDTH 456 0
DWIDTH 6 0
BBX 7 5 1 9
BITMAP
0BD09E10
1FF1FF20
2FC1FD00
4F63F700
5C04D100
ENDCHAR
STARTCHAR quotedblbase
ENCODING 8222
SWIDTH 477 0
DWIDTH 7 0
BBX 6 5 0 -2
BITMAP
2E81D9
6FB5FC
7F66F8
9E18F2
A70990
ENDCHAR
STARTCHAR dagger
ENCODING 8224
SWIDTH 588 0
DWIDTH 8 0
BBX 7 11 1 3
BITMAP
0005D000
0009E000
079DE980
1EFFFFD0
000F8000
002F6000
004F5000
006F3000
008F1000
009E0000
00340000
ENDCHAR
STARTCHAR daggerdbl
ENCODING 8225
SWIDTH 588 0
DWIDTH 8 0
BBX 7 11 1 3
BITMAP
0005D000
0009E000
089DE980
1EFFFFD0
000E8000
001F6000
39AFB940
7FFFFF70
007F1000
009E0000
00340000
ENDCHAR
STARTCHAR bullet
ENCODING 8226
SWIDTH 512 0
DWIDTH 7 0
BBX 5 5 1 1
BITMAP
09EC30
5FFFA0
8FFFB0
6FFF80
1BEB10
ENDCHAR
STARTCHAR ellipsis
ENCODING 8230
SWIDTH 777 0
DWIDTH 11 0
BBX 11 3 0 0
BITMAP
3C807C41AB10
9FE0EF94FF40
5E90AE42DC10
ENDCHAR
STARTCHAR perthousand
ENCODING 8240
SWIDTH 1277 0
DWIDTH 18 0
BBX 18 11 0 0
BITMAP
04EF9000AA00000000
1EACF43AF900000000
4F48FFFFE100000000
3F65F9BF7000000000
0BFF91ED1000000100
004308F56EF702DFB0
00002FC2F99F2BC6F7
0000AF46F23F5F70DA
0003FA07F14F5F60E9
000BF203F9BD0DC8F4
000B80008EC304DE70
ENDCHAR
STARTCHAR guilsinglleft
ENCODING 8249
SWIDTH 350 0
DWIDTH 5 0
BBX 5 6 0 1
BITMAP
006E20
1AFC10
8FA100
6FB100
08FC00
007D10
ENDCHAR
STARTCHAR guilsinglright
ENCODING 8250
SWIDTH 350 0
DWIDTH 5 0
BBX 5 6 0 1
BITMAP
2E6000
1DF700
01CF50
01AF70
2DF900
3D6000
ENDCHAR
STARTCHAR fraction
ENCODING 8260
SWIDTH 200 0
DWIDTH 3 0
BBX 7 10 -2 2
BITMAP
00000430
00002F80
0000AF20
0003F900
000CE100
005F7000
00DD0000
07F50000
1EC00000
2E300000
ENDCHAR
STARTCHAR uni2074
ENCODING 8308
SWIDTH 450 0
DWIDTH 6 0
BBX 6 7 1 5
BITMAP
01D600
09E590
2F7AD0
8F2DB0
BFFFF7
145F81
001E30
ENDCHAR
STARTCHAR colonmonetary
ENCODING 8353
SWIDTH 517 0
DWIDTH 7 0
BBX 8 12 0 -2
BITMAP
00000B4C
003BEFB8
02EEEFF1
0BF4D8F1
1FA87DC0
3F8D6A00
4FD8C200
2FF6A040
0BFEBDB0
1DCFEA10
88C40000
51500000
ENDCHAR
STARTCHAR franc
ENCODING 8355
SWIDTH 750 0
DWIDTH 11 0
BBX 11 9 0 0
BITMAP
0CFFFFFF8000
09FA99982000
09F32103D700
0BFFFE2EF900
0EC49F9BEE30
1F908FE2EF40
3F708FB0AA00
5F608F600000
3E305D100000
ENDCHAR
STARTCHAR lira
ENCODING 8356
SWIDTH 525 0
DWIDTH 7 0
BBX 8 9 0 0
BITMAP
00058720
00AFFFE2
04F916F4
3CFA9110
6FFFF300
8FFFF100
5EF98000
3EE99980
9FFFFFD0
ENDCHAR
STARTCHAR uni20A6
ENCODING 8358
SWIDTH 672 0
DWIDTH 9 0
BBX 10 9 0 0
BITMAP
00C7000D70
02FF201F90
04FFA03F80
06FDF35F60
6FFFFFFFF2
7FFFFFFFE0
9FFFFFFFE0
0EC008FC00
0C9000B800
ENDCHAR
STARTCHAR peseta
ENCODING 8359
SWIDTH 1085 0
DWIDTH 15 0
BBX 15 10 0 0
BITMAP
0388500073000000
3FFFFA03F7000000
1BF3AF35F5000000
0AF05FEFFFF38D00
0DD06FBDF981EB00
0FA0CF1CC005FC00
2FDDF60DB00CEF60
4FC8200EB06E2ED0
6F50000BFAF78DC0
5E200003DE73ED30
ENDCHAR
STARTCHAR uni20A9
ENCODING 8361
SWIDTH 775 0
DWIDTH 11 0
BBX 12 9 0 0
BITMAP
002001100100
05F10BA01E60
5FFFFFFFFFE2
7FFFFFFFFFE0
05F3DFB3F500
04F6FBB8E000
03FCC9CE8000
01FF78FF2000
00AD13E70000
ENDCHAR
STARTCHAR dong
ENCODING 8363
SWIDTH 463 0
DWIDTH 6 0
BBX 8 14 0 -2
BITMAP
00000450
00000ED0
0599AFD4
0AFFFFF6
00005F60
007EEF30
08FDEF10
2FC0DD00
7F52FB00
8F36F900
6FCEF900
1BE6E600
79999910
DFFFFF20
ENDCHAR
STARTCHAR Euro
ENCODING 8364
SWIDTH 552 0
DWIDTH 8 0
BBX 8 9 0 0
BITMAP
0007DE90
007FCBF5
01FB00E8
06F400F8
7FFFE151
AFFFD000
3BF73042
04FEACF3
006DFD50
ENDCHAR
STARTCHAR uni20AD
ENCODING 8365
SWIDTH 590 0
DWIDTH 8 0
BBX 9 9 0 0
BITMAP
01D6008D00
03F702FA00
05F50BE200
07F5BE3000
9FFFFFFD00
1DD7FA3200
0EB0CF3000
1FA04FE930
1E6007ED40
ENDCHAR
STARTCHAR uni20AE
ENCODING 8366
SWIDTH 513 0
DWIDTH 7 0
BBX 7 9 1 0
BITMAP
58999810
EFFFFF40
00BC0000
01EE9000
8EF83000
36FEA000
6DF20000
08F00000
08B00000
ENDCHAR
STARTCHAR uni20B1
ENCODING 8369
SWIDTH 557 0
DWIDTH 8 0
BBX 8 9 0 0
BITMAP
04CEE900
0CFCBF80
8FFFFFFD
AFFFFFFD
BFFFFFFA
0AF7DE20
0CFB8100
0EC00000
0D800000
ENDCHAR
STARTCHAR uni20B2
ENCODING 8370
SWIDTH 599 0
DWIDTH 8 0
BBX 8 13 0 -2
BITMAP
00009400
0000C400
003BFFA0
03EDE8F4
0BE3D3F5
1F94B2B2
3F769000
4F7788FD
2FB965EE
0AFEBCFC
01AFEBCB
000F10C8
001D0021
ENDCHAR
STARTCHAR uni20B4
ENCODING 8372
SWIDTH 570 0
DWIDTH 8 0
BBX 8 9 0 0
BITMAP
019EEB20
08FABFB0
04500DC0
1EFFFFF8
4FFFFFF6
7FFFFFF7
09E20280
0BFAAEE1
02BEEB30
ENDCHAR
STARTCHAR uni20B5
ENCODING 8373
SWIDTH 517 0
DWIDTH 7 0
BBX 8 13 0 -2
BITMAP
00009400
0000C400
003BFD40
03EEFEE0
0BE4D7F1
1FA4B5B0
3F759000
4F778000
2FB96280
0AFECEA0
01AFEA10
000F1000
001D0000
ENDCHAR
STARTCHAR uni20B8
ENCODING 8376
SWIDTH 522 0
DWIDTH 7 0
BBX 8 9 0 0
BITMAP
06899981
0EFFFFF4
18AA9970
4FFFFFE1
011F7000
003F4000
005F2000
007F1000
006C0000
ENDCHAR
STARTCHAR uni20B9
ENCODING 8377
SWIDTH 511 0
DWIDTH 7 0
BBX 8 9 0 -1
BITMAP
1DEEEEE5
4EEEFEE3
0008F200
004E9000
8FF80000
13BF4000
001ED100
0004EFC0
00001200
ENDCHAR
STARTCHAR uni20BA
ENCODING 8378
SWIDTH 452 0
DWIDTH 6 0
BBX 7 9 0 0
BITMAP
01D60000
04F9C200
06FE6000
1BF7C000
7EFC3000
5EE00000
5EC03D30
0EE9EB00
09FD6000
ENDCHAR
STARTCHAR uni20BC
ENCODING 8380
SWIDTH 673 0
DWIDTH 9 0
BBX 9 11 0 0
BITMAP
0000051000
00000E2000
00005F3000
002CFFF600
00CFCDEF10
06F9796F50
0DF1882F90
2FB0A61FA0
6F70C41FB0
9F30E32FA0
AC00E11E60
ENDCHAR
STARTCHAR uni20BD
ENCODING 8381
SWIDTH 505 0
DWIDTH 7 0
BBX 7 9 0 0
BITMAP
05CED800
0BFDCF80
03F70EC0
05F50EC0
08F4AF70
8FFFF900
9FFEA000
BFFFD000
0D800000
ENDCHAR
STARTCHAR uni2116
ENCODING 8470
SWIDTH 1198 0
DWIDTH 17 0
BBX 16 13 1 0
BITMAP
05E408EE9002CE90
09F4AEAEF50BECF4
0BF8E208F81F71F8
0DFD5008F73F50F8
0FFC000AF51F85F5
2FF6000CF30BFFC0
4FF1000EF1018810
6FC0002FD0BFFFE0
8F90004FB0799950
AF60006F90000000
CF30009F70000000
DF2000AF50000000
BC00008D20000000
ENDCHAR
STARTCHAR trademark
ENCODING 8482
SWIDTH 1150 0
DWIDTH 16 0
BBX 15 6 1 6
BITMAP
6EFFF7A9AE95EE30
01D800DE47EA2F60
01F501F907F22F40
03F203F40AC05F10
06F004F10C907E00
0260026005303500
ENDCHAR
STARTCHAR partialdiff
ENCODING 8706
SWIDTH 451 0
DWIDTH 6 0
BBX 7 12 0 -1
BITMAP
07820000
04DE5000
001BF400
0001EC00
00019F30
04DFEF50
1ED5BF50
6F508F30
8F40BE00
5F95F900
0BFFC100
00330000
ENDCHAR
STARTCHAR product
ENCODING 8719
SWIDTH 700 0
DWIDTH 10 0
BBX 10 12 0 0
BITMAP
0049999993
00BFFFFFF8
00DD0006F6
00FB0008F3
02F9000AF1
05F7000CE0
07F5000EC0
09F2001FA0
0BF0003F80
0DD0006F60
0FB0008F30
1E60008D10
ENDCHAR
STARTCHAR summation
ENCODING 8721
SWIDTH 700 0
DWIDTH 10 0
BBX 10 12 0 0
BITMAP
0069999994
00DFFFFFF7
004FD10000
0005FC1000
00007FB000
000009F900
000006FB00
00007FB100
0009F90000
01BF700000
0CFD999920
1EFFFFFF30
ENDCHAR
STARTCHAR minus
ENCODING 8722
SWIDTH 700 0
DWIDTH 10 0
BBX 8 2 1 3
BITMAP
7DDDDDD8
AFFFFFF9
ENDCHAR
STARTCHAR uni2215
ENCODING 8725
SWIDTH 700 0
DWIDTH 10 0
BBX 9 13 1 0
BITMAP
0000005D10
000001EE00
000007F600
00001ED000
00008F5000
0002FC0000
000AF40000
003FB00000
00BF300000
04FA000000
0CF2000000
4F90000000
5D10000000
ENDCHAR
STARTCHAR uni2219
ENCODING 8729
SWIDTH 700 0
DWIDTH 10 0
BBX 4 2 3 2
BITMAP
3EE2
3ED1
ENDCHAR
STARTCHAR radical
ENCODING 8730
SWIDTH 700 0
DWIDTH 10 0
BBX 11 13 0 -1
BITMAP
000000001920
000000006F30
00000000DB00
00000005F400
0000000BC000
0110003F5000
3FF9009D0000
049F11F70000
002F58E10000
000DAE800000
0008FF100000
0003F9000000
000030000000
ENDCHAR
STARTCHAR infinity
ENCODING 8734
SWIDTH 700 0
DWIDTH 10 0
BBX 10 6 0 1
BITMAP
04BC42AC60
2FFFECFFF3
7F53FE44F8
8F31DE23F7
4FEEDFEEF3
08ED36EE60
ENDCHAR
STARTCHAR integral
ENCODING 8747
SWIDTH 700 0
DWIDTH 10 0
BBX 10 18 0 -4
BITMAP
0000003771
000006FFF4
00000EE300
00002FA000
00004F8000
00006F6000
00008F4000
0000AF3000
0000CF1000
0000EE0000
0000FC0000
0002FA0000
0004F80000
0006F70000
0008F50000
000AF20000
17AFD00000
3EEB200000
ENDCHAR
STARTCHAR approxequal
ENCODING 8776
SWIDTH 700 0
DWIDTH 10 0
BBX 10 7 0 0
BITMAP
008EA205E1
05FADF9EC0
09B007DD20
0055000000
06FFB20B80
0EE9FEAF50
1E502AE800
ENDCHAR
STARTCHAR notequal
ENCODING 8800
SWIDTH 700 0
DWIDTH 10 0
BBX 8 9 1 0
BITMAP
00000610
00006F20
6FFFFFFD
6DDEFDDA
000DB000
ADDFEDD6
DFFFFFF6
04F40000
02500000
ENDCHAR
STARTCHAR lessequal
ENCODING 8804
SWIDTH 700 0
DWIDTH 10 0
BBX 9 8 1 0
BITMAP
000027BE20
049DFFB600
8FF9400000
5DFEA61000
0038CFF700
0000026200
7999999300
EFFFFFF600
ENDCHAR
STARTCHAR greaterequal
ENCODING 8805
SWIDTH 700 0
DWIDTH 10 0
BBX 8 8 1 0
BITMAP
3EB61000
18DFFC72
00027DFE
026AEFD7
BFFB7300
55100000
79999993
EFFFFFF6
ENDCHAR
STARTCHAR lozenge
ENCODING 9674
SWIDTH 700 0
DWIDTH 10 0
BBX 8 14 1 0
BITMAP
00003400
0001EE10
0009FF50
002F9D90
00AE19E0
03F704F4
0CD100E9
1F7001E9
0CA008F2
07E01E80
03F49E10
00DBF700
008FD000
003E4000
ENDCHAR
STARTCHAR fi
ENCODING 64257
SWIDTH 633 0
DWIDTH 9 0
BBX 11 19 0 -5
BITMAP
00009E600000
0007FDC00000
001E98C00000
007F3AA11000
00CE1E7EF200
01FA8C2ED100
05FDE2000000
7FFFFFFE2000
4DFA99DF3000
0BF050BF0000
0DE1F2ED0020
0DD0F3FB0A90
0EC0F3DECE30
0ED0F26EC300
0DE1F1000000
0CE2E0000000
09F7B0000000
05FF60000000
007700000000
ENDCHAR
STARTCHAR fl
ENCODING 64258
SWIDTH 688 0
DWIDTH 10 0
BBX 12 19 0 -5
BITMAP
0002CD108E70
000CDF74FCE0
005F4D7BB5F1
00BD0E8F66F0
02F93F8F27D0
05F68AAE0B90
09F4E3DD1F40
0CFB80FB8C00
0EFB01FCF500
1FC103FF9000
2F9DFFFB0011
3FAF98FB01C6
4F7F10BFADD1
4F8D302CEA20
3F8C50000000
2F9B50000000
0EAC40000000
0AFE10000000
028300000000
ENDCHAR
STARTCHAR .notdef
ENCODING -1
SWIDTH 265 0
DWIDTH 4 0
BBX 1 1 0 0
BITMAP
00
ENDCHAR
STARTCHAR Iacute_J.loclNLD
ENCODING -1
SWIDTH 776 0
DWIDTH 11 0
BBX 13 17 1 0
BITMAP
00001600001610
0002DF4002DF40
003EF8003EF800
00BA2000AA2000
08E20005E30000
0DF30009F50000
0FF1000BF40000
2FE0000EF30000
4FC0003FF10000
6FA000BFF00000
5FC018EFD00000
2FFEFF7FB00000
05DED64F900000
0000009F500000
560003ED000000
9FDAAFF4000000
19DEEB30000000
ENDCHAR
STARTCHAR A.ss01
ENCODING -1
SWIDTH 780 0
DWIDTH 11 0
BBX 12 13 0 0
BITMAP
000006BEFEC5
0002DFEB9993
002EF9103910
00CF8000BF40
05FC0000EF10
0AF60002FC00
0FF20006FA00
2FE0000AF800
3FD0000EF600
2FE0005FF400
0EF401DFF300
07FEADCEF200
007DEA1CD000
ENDCHAR
ENDFONT
